<?xml version="1.0" encoding="utf-8"?>
<!-- Generator: Adobe Illustrator 26.0.3, SVG Export Plug-In . SVG Version: 6.00 Build 0)  -->
<svg version="1.1" id="Layer_1" xmlns="http://www.w3.org/2000/svg" xmlns:xlink="http://www.w3.org/1999/xlink" x="0px" y="0px"
	 viewBox="0 0 342 788" style="enable-background:new 0 0 342 788;" xml:space="preserve">
<style type="text/css">
	.st0{fill:#BD5945;}
	.st1{fill:#8E4030;}
	.st2{fill:#A13C2C;}
	.st3{fill:#7D2B1B;}
	.st4{fill:#B04836;}
	.st5{fill:#983121;}
	.st6{fill:#AB4634;}
	.st7{fill:#833121;}
	.st8{fill:#943020;}
	.st9{fill:#75200F;}
	.st10{fill:#A13928;}
	.st11{fill:#CB6653;}
	.st12{fill:#9F3536;}
	.st13{fill:#C05541;}
	.st14{fill:#B14533;}
	.st15{fill:#952B29;}
	.st16{fill:#A64139;}
	.st17{fill:#DB6B55;}
	.st18{fill:#D35B46;}
	.st19{fill:#C14D37;}
	.st20{fill:#AA301A;}
</style>
<g id="Layer_2_00000106845230285653589320000002664667237180548232_">
	<g id="Layer_6">
		<path class="st0" d="M194.7,72.7c0.3-2.5-1.4-5.5-2.6-7.2s-1.4-2.7-1.4-3.5c0.1-0.7-0.2-1.5-0.8-2c-0.5-0.3-0.4-0.7-0.4-1.6
			c0.1-0.6-0.2-1.1-0.8-1.3c-0.3-0.2-0.2-0.2-0.8-2s-3.2-3.1-4-4.3s-3.2-1.6-4.9-1.7s-0.5-0.9-4.4-0.5c-1.1,0.1-2.1,0.7-2.7,1.6
			c-0.5-0.9-1.5-1.6-2.6-1.7c-3.9-0.5-2.7,0.4-4.4,0.5s-4,0.5-4.9,1.7s-3.5,2.5-4,4.3s-0.5,1.8-0.8,2c-0.5,0.2-0.9,0.7-0.8,1.3
			c0.1,0.9,0.2,1.2-0.4,1.6c-0.6,0.5-0.8,1.2-0.8,2c0,0.9-0.3,1.8-1.4,3.5s-2.9,4.7-2.6,7.2s-1.9,2.6-1.1,5.6s0.1,3.4,1.4,4.9
			s2,5.8,6.9,8.2c4.5,2.2,12.5,1.8,15.4,0c2.9,1.8,10.9,2.1,15.4,0c4.9-2.4,5.6-6.7,6.9-8.2s0.7-2,1.4-4.9S194.4,75.2,194.7,72.7
			L194.7,72.7z"/>
		<path class="st1" d="M172,91.7c-1.6,0.9-4.4,1.4-7.4,1.4c-2.7,0.1-5.5-0.5-8-1.5c-5-2.4-5.8-6.8-7-8.3s-0.7-2.1-1.5-5
			c-0.1-0.4-0.2-0.8-0.2-1.2c0-0.7,0.3-1.4,0.7-2c0.4-0.6,0.6-1.2,0.6-1.9c0-0.2,0-0.3,0-0.5c0-0.2,0-0.4,0-0.6
			c0-2.5,1.6-5.1,2.6-6.7s1.4-2.6,1.4-3.4c-0.1-0.8,0.2-1.6,0.9-2.2c0.2-0.1,0.4-0.4,0.3-0.7c0-0.2,0-0.4,0-0.8v-0.2
			c0-0.6,0.3-1.1,0.9-1.3c0.1-0.1,0.1,0,0.2-0.3s0.2-0.7,0.5-1.6c0.6-1.9,3.3-3.2,4.1-4.4c0.9-1.3,3.3-1.7,5-1.8
			c0.4,0,0.7-0.1,1-0.3c0.5-0.2,1-0.3,1.5-0.3c0.6,0,1.3,0,1.9,0.1c1,0.1,1.9,0.6,2.5,1.4c0.6-0.8,1.5-1.4,2.6-1.5
			c0.6-0.1,1.3-0.1,1.9-0.1c0.5,0,1.1,0.1,1.5,0.3c0.3,0.2,0.7,0.3,1.1,0.3c1.7,0.1,4.1,0.5,5,1.8c0.8,1.1,3.5,2.4,4,4.4
			c0.3,0.9,0.4,1.4,0.5,1.6s0.1,0.2,0.2,0.3c0.5,0.2,0.9,0.7,0.9,1.3v0.2c0,0.3-0.1,0.6-0.1,0.8c0,0.3,0.1,0.5,0.4,0.6
			c0.6,0.5,0.9,1.4,0.8,2.2c0,0.8,0.3,1.7,1.4,3.4c1.1,1.8,2.6,4.3,2.6,6.7c0,0.2,0,0.4,0,0.6h-0.2h0.2c0,0.2,0,0.3,0,0.5
			c0,0.7,0.2,1.3,0.6,1.9c0.4,0.6,0.7,1.3,0.7,2c0,0.4-0.1,0.8-0.2,1.2c-0.8,2.9-0.1,3.4-1.5,5s-2,5.8-7,8.3c-2.5,1.1-5.3,1.6-8,1.5
			C176.5,93.1,173.6,92.5,172,91.7L172,91.7z M172.1,91.3c1.4,0.9,4.3,1.4,7.3,1.4c2.7,0.1,5.4-0.4,7.8-1.5c4.9-2.4,5.5-6.5,6.9-8.2
			c1.3-1.5,0.6-1.9,1.4-4.9c0.1-0.4,0.2-0.7,0.2-1.1c0-0.7-0.2-1.3-0.6-1.9c-0.4-0.6-0.7-1.3-0.7-2.1c0-0.2,0-0.3,0-0.5
			c0-0.2,0-0.4,0-0.6c0-2.3-1.6-4.9-2.6-6.6c-1.1-1.8-1.5-2.7-1.5-3.6c0.1-0.7-0.2-1.4-0.7-1.9c-0.3-0.2-0.5-0.6-0.5-0.9
			c0-0.2,0-0.5,0.1-0.8v-0.2c0-0.7-0.4-0.8-0.7-1c-0.2-0.1-0.3-0.3-0.4-0.5c-0.1-0.3-0.2-0.7-0.5-1.6c-0.5-1.7-3.1-3-4-4.3
			c-0.7-1.1-3.1-1.5-4.7-1.6c-0.4,0-0.9-0.1-1.3-0.3c-0.4-0.2-0.8-0.3-1.3-0.2c-0.6,0-1.2,0.1-1.8,0.1c-1,0.1-1.9,0.7-2.4,1.6
			l-0.2,0.3l-0.2-0.3c-0.5-0.9-1.4-1.5-2.4-1.6c-0.6-0.1-1.2-0.1-1.8-0.1c-0.4-0.1-0.9,0-1.3,0.2c-0.4,0.2-0.8,0.3-1.2,0.3
			c-1.6,0.1-4,0.5-4.7,1.6c-0.9,1.2-3.5,2.5-4,4.3c-0.3,0.9-0.4,1.4-0.5,1.6c-0.1,0.2-0.2,0.4-0.4,0.5c-0.3,0.2-0.7,0.3-0.7,1v0.2
			c0,0.3,0.1,0.6,0.1,0.8c0,0.4-0.2,0.8-0.5,0.9c-0.5,0.5-0.7,1.2-0.7,1.9c0,0.9-0.3,1.8-1.5,3.6c-1.1,1.6-2.6,4.2-2.6,6.6
			c0,0.2,0,0.4,0,0.6c0,0.2,0,0.3,0,0.5c0,0.7-0.3,1.5-0.7,2.1c-0.4,0.5-0.6,1.2-0.6,1.9c0,0.4,0,0.7,0.1,1.1c0.8,3,0.2,3.4,1.4,4.9
			c1.3,1.7,2,5.8,6.9,8.2c2.5,1.1,5.1,1.6,7.8,1.5c3,0,5.9-0.6,7.3-1.4l0.1-0.1l0.1,0.1L172.1,91.3z"/>
		<path class="st2" d="M159.3,68.1L159.3,68.1L159.3,68.1L159.3,68.1z"/>
		<path class="st2" d="M154.5,73.6l-0.1,0.1L154.5,73.6C154.5,73.7,154.5,73.6,154.5,73.6L154.5,73.6z"/>
		<path class="st2" d="M168.9,60.8c0,0.1,0.1,0.2,0.1,0.3L168.9,60.8L168.9,60.8L168.9,60.8z M167.9,57.8c-0.1,0.2-0.1,0.3-0.1,0.5
			c0,0.2,0.1,0.5,0.3,0.7C168,58.6,168,58.3,167.9,57.8L167.9,57.8z"/>
		<path class="st2" d="M166.5,63.4L166.5,63.4L166.5,63.4L166.5,63.4L166.5,63.4z M167.5,51.1c-0.1,0-0.2,0.1-0.4,0.1l0,0
			C167.3,51.1,167.4,51.1,167.5,51.1L167.5,51.1z"/>
		<rect x="162.8" y="55.8" class="st2" width="0" height="0"/>
		<polygon class="st2" points="162.8,55.8 162.8,55.8 162.8,55.8 		"/>
		<path class="st2" d="M161.5,52.4L161.5,52.4z"/>
		<path class="st2" d="M156.3,60.5L156.3,60.5z"/>
		<path class="st3" d="M154.7,59c0,0.1,0,0.3,0,0.4C154.7,59.3,154.7,59.1,154.7,59z"/>
		<path class="st2" d="M157.9,60.5c0,0.1-0.1,0.1-0.1,0.2C157.9,60.6,157.9,60.5,157.9,60.5L157.9,60.5z M160.4,57.9L160.4,57.9
			L160.4,57.9z"/>
		<path class="st2" d="M161,60c-0.2,0.1-0.5,0.3-0.7,0.5c0,0,0.2-0.1,0.5-0.3C160.9,60.1,161,60.1,161,60z"/>
		<polygon class="st2" points="168.4,49.4 168.4,49.4 168.4,49.4 		"/>
		<path class="st2" d="M168.4,49.4c0.1,0,0.2,0,0.3,0.1l0.2,0.1l0.4,0.1C169,49.6,168.7,49.5,168.4,49.4z"/>
		<polygon class="st2" points="168.4,49.4 168.4,49.4 168.4,49.4 		"/>
		<path class="st2" d="M186,73.9L186,73.9z M190.1,68.7c-0.1,0.2-0.2,0.5-0.3,0.8l0,0C189.9,69.2,190,69,190.1,68.7L190.1,68.7z"/>
		<path class="st2" d="M191.5,68.2c0,0,0,0.1,0,0.1v0.2c0,0,0,0.1,0,0.1C191.5,68.5,191.5,68.4,191.5,68.2z M191.5,66.6
			c0.1,0.2,0.1,0.5,0.1,0.7c0-0.1,0-0.2,0-0.4C191.5,66.9,191.5,66.8,191.5,66.6L191.5,66.6L191.5,66.6z"/>
		<path class="st2" d="M184.7,68.1L184.7,68.1L184.7,68.1L184.7,68.1z"/>
		<path class="st2" d="M189.5,73.6L189.5,73.6L189.5,73.6L189.5,73.6L189.5,73.6z"/>
		<path class="st2" d="M175.1,60.9L175.1,60.9c0,0.1,0,0.2,0,0.2C175.1,61.1,175.1,61,175.1,60.9L175.1,60.9z M176.1,58
			c0,0.3-0.1,0.5-0.1,0.8c0.1-0.1,0.2-0.3,0.2-0.5C176.2,58.2,176.2,58.1,176.1,58L176.1,58z"/>
		<path class="st2" d="M177.6,63.3l-0.1,0.1L177.6,63.3L177.6,63.3L177.6,63.3z M176.5,51.1c0.2,0,0.3,0.1,0.5,0.2c0,0,0,0,0,0
			C176.8,51.2,176.6,51.1,176.5,51.1L176.5,51.1z"/>
		<path class="st2" d="M182.5,52.4L182.5,52.4h0.1l0,0H182.5L182.5,52.4z"/>
		<path class="st2" d="M185.4,54.9c-0.2,0.5-0.5,1.1-0.9,1.6c-0.2,0.2-0.3,0.5-0.3,0.7c0,0.3,0.2,0.4,0.5,0.5s0.6,0.3,1.1,0.5
			c0.9,0.5,1.6,1.3,1.9,2.2c-0.1-1.1-0.8-2-1.7-2.5c-0.5-0.3-0.9-0.4-1.1-0.5s-0.2-0.2-0.2-0.2l0.2-0.6
			C185.2,56.2,185.4,55.6,185.4,54.9L185.4,54.9z"/>
		<path class="st2" d="M186,60.5c0.1,0.1,0.1,0.1,0.2,0.2C186.2,60.6,186.1,60.5,186,60.5L186,60.5L186,60.5z M183.6,58
			C183.6,58,183.6,58.1,183.6,58L183.6,58C183.6,58.1,183.6,58,183.6,58L183.6,58z M183.6,58L183.6,58L183.6,58z"/>
		<path class="st2" d="M183.6,60.5L183.6,60.5z M183.1,60.1l0.1,0.2c0.2,0.1,0.4,0.2,0.4,0.2S183.4,60.3,183.1,60.1z"/>
		<polygon class="st2" points="175.6,49.4 175.6,49.4 175.6,49.4 		"/>
		<path class="st2" d="M175.6,49.4c-0.4,0.1-0.7,0.2-1,0.4l0.4-0.2l0.3-0.1C175.4,49.5,175.5,49.4,175.6,49.4z"/>
		<polygon class="st2" points="175.6,49.4 175.6,49.4 175.6,49.4 		"/>
		<path class="st4" d="M163.7,51.1c0,0,0.2-0.1,0.4-0.3c0.4-0.3,0.9-0.6,1.4-0.7c0.3-0.1,0.7-0.2,1-0.2c0.9,0,1.6,0.5,2,1.3l0,0
			c-0.2-0.2-0.3-0.3-0.6-0.4c-0.4-0.3-0.9-0.4-1.4-0.5l0,0c-0.3,0-0.6,0.1-0.8,0.2c-0.5,0.2-0.9,0.4-1.3,0.7
			c-0.2,0.2-0.4,0.3-0.7,0.3c-0.2,0-0.3-0.1-0.4-0.1c-0.4-0.4-0.9-0.6-1.4-0.6c-0.1,0-0.3,0-0.4,0.1c0.2-0.2,0.5-0.3,0.7-0.3l0,0
			c0.5,0.1,0.9,0.2,1.3,0.5C163.6,51,163.6,51.1,163.7,51.1L163.7,51.1L163.7,51.1z M166.2,49.7H166c-0.1,0-0.2,0-0.2,0h-0.2
			c-0.3,0-0.6,0.1-0.9,0.2c-0.3,0.2-0.2,0.5-0.7,0.5c-0.2,0-0.4,0-0.6-0.1c-0.2,0-0.5-0.1-0.7,0c-1.1,0-2.2,0.4-1.2,0.8l0.2,0.1l0,0
			c0.6,0,1.1,0.3,1.5,0.7c0.1,0.2,0.3,0.2,0.4,0.2c0.6,0,1.3-0.9,1.6-1.1c0.4-0.3,0.9-0.4,1.4-0.4c0.4,0,0.8,0.2,1.1,0.5
			c0.1,0.2,0.4,0.3,0.6,0.3c0.4,0,0.6-0.6-0.1-1.2C167.6,49.8,166.9,49.6,166.2,49.7L166.2,49.7z"/>
		<path class="st5" d="M166.5,49.9c-0.3,0-0.7,0.1-1,0.2c-0.5,0.2-1,0.4-1.4,0.7c-0.2,0.2-0.4,0.3-0.4,0.3l0,0c-0.1,0-0.2,0-0.2-0.1
			c-0.4-0.3-0.8-0.4-1.3-0.5l0,0c-0.3,0-0.5,0.1-0.7,0.3c0.1,0,0.3-0.1,0.4-0.1c0.5,0,1,0.2,1.4,0.6c0.1,0.1,0.3,0.1,0.4,0.1
			c0.3,0,0.4-0.2,0.7-0.3c0.4-0.3,0.8-0.5,1.3-0.7c0.3-0.1,0.5-0.1,0.8-0.2l0,0c0.7,0,1.4,0.4,1.9,0.9l0,0
			C168,50.4,167.3,49.9,166.5,49.9L166.5,49.9z"/>
		<path class="st6" d="M148.7,78.4c0-0.2-0.1-0.4-0.1-0.6c-0.1-1.4,0.4-2.8,1.4-3.8c1.1-1.1,0.2-1-0.1-2.8s2-3.5,2.4-5.3
			s2.3-2.4,2-2.9l-0.1-0.1c0.3-0.1,0.5-0.2,0.8-0.3c0.7-0.4,1.5-0.6,2.3-0.6h0.5c1.5,0,0.9,0,1.4,0.6s0.5,0.5,0.9,0.5h0.4
			c0.4,0,0.5-0.3,0.6-0.3s0.2,0.1,0.5,0.5c0.3,0.5,0.8,0.8,1.4,0.9c0.2,0,0.4-0.1,0.3-0.3s0.1-0.3,0.4-0.3c0.6,0.1,1.1,0.4,1.4,0.9
			c0.6,0.9,1.1,2,1.4,3.1c-0.4,0.6-0.8,1.1-0.8,1.1s-0.1-0.3-0.4-0.3c-0.2,0-0.3,0.1-0.5,0.2c-0.6,0.6,0,0.7-0.1,2.3s-1.5,2-1.6,4.1
			s-0.4,2.5-1.5,2.9s-2.6,1.5-1.8,1.5h0.1c0.6-0.1,1.2-0.4,1.8-0.6c0.1,0,0,0.1-0.2,0.3c-0.8,0.8-3,1.8-4.9,2.6
			c-0.5,0.3-1.1,0.4-1.8,0.5c-0.2,0-0.3,0-0.5,0c-0.1,0-0.3,0-0.4-0.1c-0.1,0-0.2,0-0.3,0c-0.9,0.2,0.3,1-0.3,1.1s-0.6,0.4-1.4,1.3
			c-0.2,0.2-0.3,0.3-0.4,0.3c-0.4,0-0.3-0.9,0.3-1.2c0.8-0.4,1.1-1.3,0.8-2.1c0-0.1-0.1-0.1-0.1-0.2c-0.5-0.9-0.4-1.2-0.2-2.5
			c0.1-0.8-0.1-1.3-0.5-1.3c-0.3,0-0.6,0.2-0.9,0.4c-0.9,0.9-0.1,2.3,0,3.8c0,0.5-0.1,0.7-0.4,0.7c-0.4,0-1.1-0.8-1.3-1.7
			c-0.1-0.6-0.3-1.2-0.5-1.8C148.9,78.9,148.8,78.7,148.7,78.4L148.7,78.4z M157.6,61.4c-0.6,0-1.1,0.3-2.2,0.5
			c-0.7,0-1.3,0.3-1.7,0.9c-0.3,1-0.8,1.9-1.4,2.8c-1.1,1.6-2.6,4.2-2.6,6.6c0,0.2,0,0.4,0,0.6c0,0.2,0,0.3,0,0.5
			c0,0.7-0.3,1.5-0.7,2.1c-0.4,0.5-0.6,1.2-0.6,1.9c0,0.4,0,0.7,0.1,1.1c0.8,3,0.2,3.4,1.4,4.9c0.1,0.1,0.2,0.2,0.4,0.3
			c0.2,0.2,0.5,0.3,0.8,0.3l0,0c0.3,0,0.5-0.2,0.7-0.4c0.2-0.3,0.4-0.6,0.4-1c-0.1-0.6-0.3-1.2-0.6-1.8c-0.1-0.4-0.2-0.9-0.2-1.3
			c0-0.5,0.8-1,0.8-1l0,0c-0.3,0.1-0.5,0.5-0.4,0.8c0,0.5,0.1,0.9,0.3,1.4c0.3,0.6,0.5,1.2,0.6,1.8c0,0.4-0.2,0.9-0.5,1.2
			c-0.2,0.3-0.6,0.6-1,0.6l0,0c-0.2,0-0.5-0.1-0.7-0.3c0.5,0.8,0.9,1.9,1.6,3c0.1-0.8,0.6-2.1,2.9-3.3c0.1-0.1,0.2-0.2,0.2-0.3
			c-0.3-0.1-0.7-0.2-1-0.4c0.4,0.1,0.8,0.2,1.3,0.2c0.4-0.4,1-0.8,1.6-1c0.7-0.3,1.5-0.5,2.2-0.6c3-1.5,5.8-3.2,6-4.3
			c0-0.2,0.1-0.5,0.1-0.8c0-0.8-0.1-1.7-0.1-2.8c0-0.2,0-0.4,0-0.5c-0.3,0.6-0.6,1.3-0.6,2c0,0.2,0,0.4,0.1,0.6v0.2
			c0,1.2-1.4,2.4-3.4,3.3c0,0,3.1-1.6,3-3.3v-0.2c0-0.2,0-0.4,0-0.6c0-0.8,0.3-1.4,1.1-3.2c0-0.1,0.1-0.1,0.1-0.2
			c0.1-0.5,0.2-0.9,0.4-1.3c0-0.4-0.2-0.7-0.5-0.9l0,0c0.3,0,0.6,0.2,0.7,0.4c0.3-0.6,0.7-1.2,1.1-1.8l0,0c-0.1-0.3-0.2-0.6-0.2-0.9
			c-0.1-2.1-1.2-3.3-1.9-3.3c-1.3-0.3-2.5-0.8-3.5-1.7c-0.4-0.3-0.9-0.5-1.4-0.5c-0.3,0-0.5,0-0.8,0.1c0.3,0.2,0.6,0.4,0.9,0.7
			c0.2,0.2,0.1,0.2,0.6,0.2c0.9,0,1.8,0.5,2.1,1.4c-0.6-0.6-1.3-0.9-2.1-1c-0.3,0-0.6-0.1-0.9-0.4c-0.3-0.3-0.7-0.6-1.1-0.7
			c-0.4-0.2-0.8-0.3-1.2-0.3L157.6,61.4z M186.5,61.4L186.5,61.4c-0.4,0-0.8,0.1-1.1,0.3c-0.4,0.2-0.8,0.4-1.1,0.7
			c-0.2,0.3-0.5,0.4-0.9,0.4c-0.8,0.1-1.6,0.4-2.1,1c0.3-0.9,1.2-1.4,2.1-1.4c0.5-0.1,0.4-0.1,0.6-0.2c0.3-0.3,0.6-0.5,0.9-0.7
			c-0.2-0.1-0.5-0.1-0.8-0.1c-0.5,0-1,0.2-1.4,0.5c-0.9,0.8-2.1,1.4-3.3,1.7c-0.6,0-1.6,1.1-1.8,2.8c0.1,0.2,0.3,0.3,0.4,0.5
			c0.3-0.8,0.6-1.6,1.1-2.3c0.3-0.5,0.8-0.8,1.4-0.9c0.3,0,0.4,0.1,0.4,0.3c0,0.2,0.1,0.3,0.4,0.3c0.6-0.1,1.1-0.4,1.4-0.9
			c0.3-0.4,0.4-0.5,0.5-0.5s0.2,0.3,0.6,0.3h0.4c0.3,0,0.4-0.1,0.8-0.5s-0.1-0.6,1.4-0.6h0.5c0.8,0,1.6,0.2,2.3,0.6
			c0.2,0.1,0.4,0.2,0.6,0.2l-0.1,0.2c-0.3,0.5,1.6,1.1,2,2.9s2.6,3.5,2.4,5.3s-1.1,1.6,0,2.7c1,1,1.4,2.4,1.3,3.7c0,0,0,0.1,0,0.2
			c0.1,0.5-0.1,1.1-0.4,1.5c-0.2,0.5-0.4,1.1-0.5,1.6c-0.1,0.9-0.8,1.7-1.2,1.7c-0.2,0-0.4-0.2-0.4-0.7c0.1-1.5,0.9-3,0-3.8
			c-0.2-0.3-0.5-0.4-0.9-0.4c-0.4,0-0.7,0.5-0.5,1.3c0.2,1.3,0.3,1.6-0.2,2.5c-0.5,0.7-0.3,1.7,0.4,2.2c0.1,0,0.1,0.1,0.2,0.1
			c0.7,0.2,0.7,1.2,0.3,1.2c-0.1,0-0.3-0.1-0.4-0.2c0.2,0.6,0.3,1.1,0.4,1.7c0.7-1.2,1.1-2.2,1.6-3c-0.2,0.3-0.5,0.5-0.9,0.6l0,0
			c-0.4,0-0.8-0.2-1-0.6c-0.3-0.3-0.5-0.7-0.5-1.2c0.1-0.6,0.3-1.3,0.6-1.8c0.2-0.4,0.3-0.9,0.3-1.4c0-0.3-0.2-0.6-0.4-0.8
			c0,0,0.8,0.4,0.8,1c0,0.4-0.1,0.9-0.2,1.3c-0.3,0.6-0.4,1.2-0.6,1.8c0,0.4,0.2,0.7,0.4,1c0.1,0.2,0.4,0.4,0.7,0.4l0,0
			c0.3,0,0.5-0.1,0.8-0.3c0.1-0.1,0.2-0.2,0.4-0.3l0,0c0,0.1-0.1,0.2-0.2,0.3l0.2-0.3c1.3-1.5,0.6-1.9,1.4-4.9
			c0.1-0.4,0.2-0.7,0.2-1.1c0-0.7-0.2-1.3-0.6-1.9c-0.4-0.6-0.7-1.3-0.7-2.1c0-0.2,0-0.3,0-0.5c0-0.2,0-0.4,0-0.6
			c0-2.3-1.6-4.9-2.6-6.6c-0.6-0.8-1-1.7-1.3-2.6c0,0,0,0.1,0,0.1l-0.1-0.1c-0.4-0.6-1.1-1-1.8-1C187.5,61.8,187,61.5,186.5,61.4
			L186.5,61.4z M166,49.7c0.1-0.1,0-0.2,0-0.4c0.1-0.3,1.5-0.3,1.5-0.3c1.7,0,3.5,0.2,4,2.5c0.6,2.6-0.4,5-0.3,7.4
			c0.1,1.3,0.3,2.9,0.3,3.3c0.1,0.9-1.2,2-2.4,2.6c-0.7,0.5-1.3,1-1.7,1.7c-0.1-0.2-0.1-0.4-0.2-0.6c-0.4-1.6-0.2-2.2-2.7-3.4
			s-2.3-1.2-3.2-1.4c-0.7-0.2-1.4-0.3-2.1-0.3h-0.5h-0.6h-0.6c-0.3,0-0.7,0-1,0.1c-0.1,0-0.3,0.1-0.4,0.1c-0.2,0-0.4,0-0.7,0
			c0.5-0.2,0-1.6,0.1-2.3s0.1-0.3,1.7-0.9s0.2-0.7-0.4-0.9s0.9-0.9,0.7-1.9s1.8-2.7,2.8-3.4s1-0.3,0.9-1s1.6-1,3-1
			c0.3,0,0.6,0,0.9,0.1c0.3,0.1,0.5,0.1,0.7,0.1s0.3,0,0.4,0L166,49.7z M167.6,48.6c-0.4-0.1-0.9,0-1.3,0.2
			c-0.4,0.2-0.8,0.3-1.2,0.3c-1.6,0.1-4,0.5-4.7,1.6c-0.9,1.2-3.5,2.5-4,4.3c-0.3,0.9-0.4,1.4-0.5,1.6c0,0.1-0.1,0.2-0.1,0.2
			l0.1,0.1c0.2,0.1,0.4,0.2,0.6,0.2c0.2,0,1,0.1,1,0.1c-0.3,0.2-0.6,0.3-1,0.3c-0.4,0-0.7-0.2-0.8-0.6c-0.1,0.1-0.1,0.1-0.2,0.2
			c-0.3,0.2-0.7,0.3-0.7,1v0.2c0,0.2,0,0.5,0.1,0.6l0,0V59v1.4c-0.2-0.2-0.3-0.4-0.3-0.6c-0.1,0.1-0.2,0.2-0.3,0.3
			c-0.5,0.5-0.7,1.2-0.7,1.9c0,0.2,0,0.3,0,0.4c0.4-0.5,1-0.8,1.6-0.8c1.1-0.1,1.6-0.5,2.3-0.5l0,0c0.4,0,0.9,0.1,1.2,0.3
			c0.4-0.2,0.8-0.2,1.2-0.2l0,0c0.6,0,1.2,0.2,1.7,0.6c0.9,0.8,1.9,1.3,3,1.6c1,0.2,2.1,1.5,2.2,3.7c0,0.2,0,0.4,0.1,0.5
			c2.8-3.3,3.7-4.1,5.3-4.2h0.3h0.1c-0.2-0.2-0.3-0.5-0.4-0.8c-0.3-1.7,0.3-1.9,0.4-3.6c0.1-2.5-0.6-6,0-7.6
			c0.9-2.2,1.8-2.2,3.5-2.3c0,0,1.4,0,1.5,0.3c0,0.2-0.1,0.3,0,0.4h0.5l0.6-0.1c0.3,0,0.6-0.1,0.9-0.1c1.4,0,3.1,0.4,3,1
			s-0.1,0.4,0.9,1s2.9,2.3,2.8,3.3s1.3,1.7,0.7,1.9s-2,0.3-0.4,0.9s1.6,0.1,1.7,0.9s-0.4,2.1,0.1,2.3H188c-0.2,0-0.3,0-0.4-0.1
			c-0.3-0.1-0.7-0.1-1-0.1h-0.6c-0.2,0-0.4,0-0.6,0H185c-0.7,0-1.4,0.1-2.1,0.3c-0.9,0.2-0.7,0.2-3.2,1.4s-2.3,1.8-2.7,3.3l0.1,0.2
			c0.3-1.6,1.2-2.6,2.1-2.7c1.1-0.3,2.1-0.8,3-1.6c0.5-0.4,1.1-0.6,1.7-0.6l0,0c0.4,0,0.8,0.1,1.2,0.2c0.4-0.2,0.8-0.3,1.3-0.3l0,0
			c0.8,0,1.2,0.4,2.3,0.5s1.6,0.7,1.7,1.1c0-0.2-0.1-0.5-0.1-0.7c0.1-0.7-0.2-1.4-0.7-1.9c-0.2-0.1-0.3-0.2-0.4-0.4
			c0,0.3-0.1,0.5-0.3,0.7v-1.4v-0.1v-0.1l0,0h0.1l0,0c0-0.2,0-0.3,0.1-0.6V58c0-0.7-0.4-0.8-0.7-1c-0.1-0.1-0.2-0.1-0.2-0.2
			c0,0.4-0.4,0.7-0.8,0.6c-0.4,0-0.7-0.1-1-0.3c0,0,0.8-0.1,1-0.1c0.2,0,0.4-0.1,0.6-0.2l0.1-0.1c0-0.1-0.1-0.1-0.1-0.2
			c-0.1-0.3-0.2-0.7-0.5-1.6c-0.5-1.7-3.1-3-4-4.3c-0.7-1.1-3.1-1.5-4.7-1.6c-0.4,0-0.9-0.1-1.3-0.3c-0.4-0.2-0.8-0.3-1.3-0.2l0,0
			c-0.6,0-1.2,0.1-1.8,0.1c-1,0.1-1.9,0.7-2.4,1.6l-0.2,0.3l-0.2-0.3c-0.5-0.9-1.4-1.5-2.4-1.6c-0.6-0.1-1.2-0.1-1.8-0.1L167.6,48.6
			z"/>
		<path class="st7" d="M154.6,59.4c0,0.2-0.2,0.4-0.4,0.5c-0.3,0.2-0.6,0.6-0.6,1l0,0c0,0.2-0.1,0.3-0.1,0.5l0,0c0,0.2,0,0.4,0,0.5
			v0.3v0.3l0,0c0,0.2-0.1,0.5-0.2,0.7c-0.3,0.8-0.7,1.5-1.2,2.2c-1.1,1.8-2.9,4.7-2.6,7.2s-1.9,2.6-1.1,5.6s0.1,3.4,1.4,4.9
			c0.7,0.8,1.2,2.3,2.2,4V87c0-0.1,0-0.2,0-0.2c-0.7-1.1-1.1-2.2-1.6-3c-0.2-0.2-0.4-0.4-0.5-0.7l0,0c-1.2-1.5-0.6-1.9-1.4-4.9
			c-0.1-0.4-0.2-0.7-0.1-1.1c0-0.7,0.2-1.3,0.6-1.9c0.4-0.6,0.7-1.3,0.7-2.1c0-0.2,0-0.3,0-0.5c0-0.2,0-0.4,0-0.6
			c0-2.3,1.5-4.9,2.6-6.6c0.6-0.8,1.1-1.8,1.4-2.8l-0.1,0.1l-0.1,0.1c0-0.2,0.1-0.5,0.2-0.7c0-0.1,0-0.3,0-0.4
			c-0.1-0.7,0.2-1.4,0.7-1.9c0.1-0.1,0.2-0.2,0.3-0.3c0-0.1,0-0.3,0-0.4L154.6,59.4z M154.8,58.9L154.8,58.9L154.8,58.9L154.8,58.9z
			 M176.5,48.4c-0.6,0-1.2,0.1-1.9,0.1c-1.1,0.1-2.1,0.7-2.7,1.7c-0.5-0.9-1.5-1.6-2.6-1.7c-0.6-0.1-1.2-0.1-1.9-0.1
			c-1.7,0-1.2,0.5-2.6,0.6c-1.7,0.1-4,0.5-4.9,1.7s-3.5,2.5-4,4.3s-0.5,1.8-0.8,2c-0.5,0.2-0.9,0.7-0.8,1.3c0,0.2,0.1,0.4,0.1,0.6
			c0-0.1,0-0.1,0-0.1h0.1h0.1l0,0l0,0c0-0.2,0-0.4-0.1-0.6v-0.2c0-0.7,0.4-0.8,0.7-1c0.1,0,0.1-0.1,0.2-0.2c0-0.1,0-0.1,0-0.2v0.1
			h0.1c0-0.1,0.1-0.2,0.1-0.2c0.1-0.3,0.2-0.7,0.5-1.6c0.5-1.7,3.1-3,4-4.3c0.7-1.1,3.1-1.5,4.7-1.6c0.4,0,0.9-0.1,1.2-0.3
			c0.4-0.2,0.9-0.3,1.3-0.2c0.6,0,1.2,0.1,1.8,0.1c1,0.1,1.9,0.7,2.4,1.6l0.2,0.3l0.2-0.3c0.5-0.9,1.4-1.5,2.4-1.6
			C175.2,48.5,175.8,48.4,176.5,48.4L176.5,48.4c0.4,0,0.8,0,1.2,0.3c0.4,0.2,0.8,0.3,1.3,0.3c1.6,0.1,3.9,0.5,4.7,1.6
			c0.9,1.2,3.5,2.5,4,4.3c0.3,0.9,0.4,1.4,0.5,1.6c0,0.1,0,0.1,0.1,0.2l0,0l0.1-0.1c0,0,0,0.1,0,0.1c0.1,0.1,0.2,0.2,0.2,0.2
			c0.3,0.2,0.7,0.3,0.7,1v0.2c0,0.2,0,0.4-0.1,0.6h0.1c0.1,0.3,0.1,0.6,0,0.8c0.1,0.1,0.2,0.3,0.4,0.4c0.5,0.5,0.8,1.2,0.7,1.9
			c0,0.2,0,0.5,0.1,0.7c0,0.1,0.1,0.2,0.1,0.3c0.3,0.9,0.8,1.8,1.3,2.6c1.1,1.6,2.6,4.2,2.6,6.6c0,0.2,0,0.4,0,0.6
			c0,0.2,0,0.3,0,0.5c0,0.7,0.3,1.5,0.7,2.1c0.4,0.5,0.6,1.2,0.6,1.9c0,0.4-0.1,0.7-0.2,1.1c-0.8,3-0.2,3.4-1.4,4.9l-0.2,0.3
			c0,0,0,0.1-0.1,0.1c-0.5,0.8-0.9,1.9-1.6,3c0,0.1,0,0.3,0,0.4c0.9-1.5,1.4-2.9,2-3.7c1.3-1.6,0.7-2,1.4-4.9s-1.4-3-1.1-5.6
			s-1.4-5.5-2.6-7.2c-0.5-0.7-0.9-1.5-1.2-2.3c-0.1-0.2-0.1-0.4-0.2-0.7l0,0v-0.3v-0.3c0-0.2,0-0.4,0-0.5l0,0c0-0.2-0.1-0.4-0.1-0.5
			l0,0c-0.1-0.4-0.3-0.7-0.6-0.9c-0.5-0.3-0.4-0.7-0.4-1.6c0.1-0.6-0.2-1.1-0.8-1.3c-0.3-0.2-0.2-0.2-0.8-2s-3.2-3.1-4-4.3
			s-3.2-1.6-4.9-1.7c-1.3,0-0.9-0.6-2.6-0.6L176.5,48.4z"/>
		<path class="st8" d="M152.1,78.3c0,0-0.8,0.4-0.8,1c0,0.4,0.1,0.9,0.2,1.3c0.3,0.6,0.5,1.2,0.6,1.8c0,0.4-0.2,0.7-0.4,1
			c-0.1,0.2-0.4,0.4-0.7,0.4l0,0c-0.3,0-0.5-0.1-0.8-0.3c-0.1-0.1-0.2-0.2-0.4-0.3l0,0c0.2,0.2,0.3,0.4,0.5,0.7
			c0.2,0.2,0.4,0.3,0.7,0.3l0,0c0.4,0,0.8-0.2,1-0.6c0.3-0.3,0.5-0.7,0.5-1.2c-0.1-0.6-0.3-1.3-0.6-1.8c-0.2-0.4-0.3-0.9-0.3-1.4
			C151.6,78.8,151.8,78.5,152.1,78.3L152.1,78.3z"/>
		<path class="st9" d="M149.9,83.1L149.9,83.1c0.1,0.3,0.3,0.5,0.5,0.7C150.2,83.6,150.1,83.3,149.9,83.1L149.9,83.1L149.9,83.1z"/>
		<path class="st8" d="M157.6,61L157.6,61c-0.8,0-1.2,0.4-2.3,0.5c-0.6,0-1.2,0.3-1.6,0.8c0,0.1,0,0.3-0.1,0.4
			c0.4-0.6,1.1-0.9,1.7-0.9c1.2-0.1,1.7-0.5,2.2-0.5l0,0c0.4,0,0.8,0.1,1.2,0.3c0.4,0.2,0.8,0.4,1.1,0.7c0.2,0.3,0.5,0.4,0.9,0.4
			c0.8,0.1,1.6,0.4,2.1,1c-0.3-0.9-1.2-1.4-2.1-1.4c-0.5-0.1-0.4-0.1-0.6-0.2c-0.3-0.3-0.6-0.5-0.9-0.7c0.2-0.1,0.5-0.1,0.8-0.1
			c0.5,0,1,0.2,1.4,0.5c0.9,0.8,2.1,1.4,3.3,1.7c0.6,0,1.8,1.3,1.9,3.3c0,0.3,0.1,0.6,0.2,0.9c0.1-0.1,0.2-0.2,0.3-0.4
			c0-0.2-0.1-0.4-0.1-0.5c-0.1-2.2-1.2-3.5-2.2-3.7c-1.1-0.3-2.1-0.8-3-1.6c-0.5-0.4-1.1-0.6-1.7-0.6l0,0c-0.4,0-0.8,0.1-1.2,0.2
			C158.5,61.1,158.1,61,157.6,61L157.6,61z"/>
		<path class="st9" d="M153.7,62.4c-0.1,0.2-0.2,0.4-0.2,0.7l0.1-0.1l0.1-0.1C153.6,62.6,153.6,62.5,153.7,62.4z"/>
		<path class="st8" d="M165,71.4c0,0.1-0.1,0.1-0.1,0.2c-0.8,1.8-1.1,2.4-1.1,3.2c0,0.2,0,0.4,0,0.6v0.2c0.1,1.7-3,3.3-3,3.3
			c2-0.9,3.4-2.1,3.4-3.3v-0.2c0-0.2-0.1-0.4-0.1-0.6c0.1-0.7,0.3-1.4,0.6-2C164.8,72.4,164.8,71.9,165,71.4L165,71.4z M164.9,69.2
			L164.9,69.2c0.3,0.2,0.5,0.5,0.5,0.9c0.1-0.2,0.1-0.3,0.2-0.5C165.4,69.3,165.2,69.2,164.9,69.2L164.9,69.2z"/>
		<path class="st8" d="M154,82.7c0.3,0.2,0.7,0.3,1.1,0.4l0.2-0.2C154.8,82.9,154.4,82.8,154,82.7z"/>
		<path class="st8" d="M155.8,56.9L155.8,56.9c0,0.5,0.3,0.7,0.7,0.7c0.4,0,0.7-0.1,1-0.3c0,0-0.8-0.1-1-0.1
			C156.2,57.2,156,57.2,155.8,56.9L155.8,56.9z"/>
		<path class="st9" d="M155.6,56.8c0,0.1,0,0.1,0,0.2l0.1-0.1h-0.1L155.6,56.8L155.6,56.8z"/>
		<polygon class="st9" points="154.8,58.9 154.8,58.9 154.9,58.9 154.9,58.9 154.9,58.9 154.8,58.9 		"/>
		<path class="st8" d="M154.9,59v0.2c0,0.2-0.1,0.5-0.2,0.7c0,0.2,0.1,0.5,0.3,0.6L154.9,59L154.9,59L154.9,59L154.9,59z"/>
		<path class="st9" d="M154.7,58.9L154.7,58.9c0,0,0,0,0,0.1c0,0.1,0,0.3,0,0.4c0,0.1,0,0.3,0,0.4c0.1-0.2,0.2-0.4,0.2-0.7V59l0,0
			h-0.1h-0.1L154.7,58.9z"/>
		<path class="st6" d="M189.9,82.2h-0.1c0.3,0.1,0.5,0.3,0.7,0.5c0.1-0.2,0.1-0.4-0.3-0.4C190.1,82.3,190,82.3,189.9,82.2
			L189.9,82.2z M180.7,74.6c-0.1,0.5-0.1,1.1-0.1,1.7c0,0.2,0,0.5,0.1,0.7c0.7,0.8,1.5,1.5,2.5,2c-0.6-0.3-1.2-0.6-1.7-1
			c0.1,0.1,0.2,0.2,0.4,0.4c0.6,0.5,1.3,0.9,2,1.2h0.1h0.1c0.8,0-0.8-1.1-1.8-1.5s-1.4-0.8-1.5-2.9
			C180.7,74.9,180.7,74.7,180.7,74.6L180.7,74.6z M189.2,58.9L189.2,58.9L189.2,58.9L189.2,58.9z"/>
		<path class="st8" d="M191.9,78.3c0.3,0.1,0.5,0.5,0.4,0.8c0,0.5-0.1,0.9-0.3,1.4c-0.3,0.6-0.5,1.2-0.6,1.8c0,0.4,0.2,0.9,0.5,1.2
			c0.2,0.3,0.6,0.6,1,0.6l0,0c0.4,0,0.7-0.2,0.9-0.6c0,0,0-0.1,0.1-0.1c0.1-0.1,0.1-0.2,0.2-0.3l0,0c-0.1,0.1-0.2,0.2-0.4,0.3
			c-0.2,0.2-0.5,0.3-0.8,0.3l0,0c-0.3,0-0.5-0.2-0.7-0.4c-0.2-0.3-0.4-0.6-0.4-1c0.1-0.6,0.3-1.2,0.6-1.8c0.1-0.4,0.2-0.9,0.2-1.3
			C192.6,78.7,191.8,78.2,191.9,78.3L191.9,78.3z"/>
		<path class="st9" d="M194,83.4C194,83.5,194,83.5,194,83.4C194,83.5,194,83.5,194,83.4z"/>
		<path class="st8" d="M186.4,61c-0.4,0-0.9,0.1-1.3,0.3c-0.4-0.2-0.8-0.2-1.2-0.2l0,0c-0.6,0-1.2,0.2-1.7,0.6
			c-0.9,0.8-1.9,1.3-3,1.6c-0.9,0.1-1.8,1.1-2.1,2.7l0.1,0.2l0.2,0.3c0.2-1.7,1.2-2.8,1.8-2.8c1.2-0.3,2.3-0.8,3.2-1.6
			c0.4-0.3,0.9-0.5,1.4-0.5c0.3,0,0.5,0,0.8,0.1c-0.3,0.2-0.6,0.4-0.9,0.7c-0.2,0.2-0.1,0.2-0.6,0.2c-0.9,0-1.8,0.6-2.1,1.4
			c0.6-0.6,1.3-0.9,2.1-1c0.3,0,0.7-0.1,0.9-0.4c0.3-0.3,0.7-0.6,1.1-0.7c0.4-0.2,0.7-0.3,1.1-0.3l0,0c0.6,0,1.1,0.3,2.2,0.5
			c0.7,0,1.4,0.4,1.8,1l0.1,0.1c0,0,0-0.1,0-0.1c0-0.1-0.1-0.2-0.1-0.3c-0.1-0.4-0.6-1-1.7-1.1s-1.6-0.5-2.3-0.5L186.4,61z"/>
		<path class="st9" d="M190.5,62.6c0,0.1,0.1,0.2,0.1,0.3C190.6,62.8,190.5,62.7,190.5,62.6z"/>
		<path class="st8" d="M180.6,77c0.1,0.4,0.4,0.8,0.7,1c0.5,0.4,1.1,0.7,1.7,1C182.2,78.5,181.3,77.8,180.6,77z"/>
		<path class="st8" d="M188.3,56.9l-0.1,0.1c-0.2,0.1-0.4,0.2-0.6,0.2c-0.2,0-1,0.1-1,0.1c0.3,0.2,0.6,0.3,1,0.3
			C187.9,57.6,188.3,57.4,188.3,56.9C188.3,56.9,188.3,56.9,188.3,56.9L188.3,56.9z"/>
		<path class="st9" d="M188.4,56.8L188.4,56.8L188.4,56.8c-0.1,0.1-0.1,0.1-0.1,0.1C188.3,56.9,188.3,56.9,188.4,56.8L188.4,56.8z"
			/>
		<polygon class="st8" points="189.2,58.9 189.2,58.9 189.2,58.9 189.2,58.9 189.2,58.9 		"/>
		<path class="st8" d="M189.2,58.9L189.2,58.9L189.2,58.9L189.2,58.9l-0.1,0.1v1.4c0.2-0.2,0.3-0.5,0.3-0.7
			c-0.1-0.2-0.1-0.4-0.1-0.6c0-0.1,0-0.2,0-0.2L189.2,58.9z"/>
		<path class="st9" d="M189.3,58.9L189.3,58.9c-0.1,0.1-0.1,0.2-0.1,0.2c0,0.2,0,0.4,0.1,0.6C189.4,59.4,189.4,59.1,189.3,58.9
			L189.3,58.9z"/>
		<path class="st10" d="M166,49.7c-0.2,0-0.3,0-0.4,0h0.2C165.8,49.7,165.9,49.7,166,49.7z"/>
		<path class="st4" d="M158.6,54.6c-0.2,0-0.4,0.2-0.3,0.8c0.1,0.5,0.3,1,0.6,1.4c0.4,0.5-0.1,0.6-0.8,0.9c-0.9,0.6-1.5,1.5-1.9,2.5
			c0,0.1,0,0.2,0.1,0.3c0.2-1,0.8-2,1.7-2.5c0.5-0.3,0.9-0.4,1.1-0.5s0.3-0.2,0.3-0.2l-0.2-0.6c-0.4-0.5-0.6-1.1-0.6-1.7
			c0.2,0.5,0.5,1.1,0.9,1.6c0.2,0.2,0.3,0.5,0.3,0.7c0,0.3-0.2,0.4-0.5,0.5s-0.6,0.3-1.1,0.5c-0.9,0.5-1.6,1.3-1.9,2.2
			c0,0,0.1,0,0.1,0c0.1,0,0.3-0.2,0.5-0.6c0.5-0.8,0.6-0.9,2-1.7s1.5-1.2,1-1.9c-0.4-0.5-0.8-1-1.1-1.6
			C158.9,54.7,158.8,54.6,158.6,54.6L158.6,54.6z"/>
		<path class="st5" d="M158.6,54.9c0,0.6,0.2,1.2,0.6,1.7l0.2,0.6c0,0,0,0.1-0.3,0.2s-0.6,0.3-1.1,0.5c-0.9,0.5-1.5,1.5-1.7,2.5l0,0
			c0.3-1,1-1.7,1.9-2.2c0.5-0.3,0.9-0.4,1.1-0.5s0.5-0.3,0.5-0.5c-0.1-0.3-0.2-0.5-0.3-0.7C159.1,56,158.8,55.4,158.6,54.9
			L158.6,54.9z"/>
		<path class="st4" d="M161.4,52.2c-0.3,0-0.6,0.1-0.8,0.1c0,0-1.4,0.8-0.3,2.8s1.2,1.4,0.9,2.3s-0.1,1.9,0.3,1.9h0.1
			c0.5-0.2-0.1-1.2,0.3-1.8s0.7-1.2,0.2-1.8s-1.7-1.8-1.1-2.7c0.2-0.3,0.4-0.5,0.4-0.6c-0.6,0.2-0.9,0.8-0.8,1.4
			c0,0.3,0.1,0.5,0.2,0.8c0.6,1.5,1.2,1.6,1.2,2.3c0,0.1,0,0.3-0.1,0.4c-0.5,0.5-0.7,1.3-0.3,2c-0.2-0.3-0.4-0.7-0.4-1.1
			c0-0.4,0.2-0.7,0.3-1c0-0.1,0.1-0.2,0.1-0.3c0-0.3-0.6-0.6-1.2-2.2c-0.1-0.3-0.2-0.6-0.2-0.9c0-0.7,0.5-1.3,1.2-1.4
			C161.4,52.3,161.4,52.3,161.4,52.2L161.4,52.2z"/>
		<path class="st5" d="M161.5,52.4c-0.7,0.1-1.2,0.7-1.2,1.4c0,0.3,0.1,0.6,0.2,0.9c0.6,1.5,1.2,1.8,1.2,2.2c0,0.1,0,0.2-0.1,0.3
			c-0.2,0.3-0.3,0.6-0.3,1c0,0.4,0.2,0.8,0.4,1.1c-0.3-0.7-0.2-1.5,0.3-2c0.1-0.1,0.1-0.3,0.1-0.4c0-0.7-0.6-0.8-1.2-2.3
			c-0.1-0.2-0.2-0.5-0.2-0.8C160.5,53.1,160.9,52.5,161.5,52.4L161.5,52.4z"/>
		<path class="st4" d="M163.7,53.2h-0.4c-0.6,0-1,0.5-0.9,1.1c0,0.1,0,0.1,0,0.2c0,0.5,0.2,1,0.4,1.4c-0.1-0.3-0.1-0.6-0.1-0.9
			c0-0.8,0.1-0.8,0.5-1.1c0.2-0.2,0.5-0.3,0.7-0.2c0.1,0,0.2,0,0.3,0H164c-0.1,0-0.2,0.1-0.4,0.2c-0.7,0.5-1,1.3-0.8,2.1
			c0.1,0.1,0.1,0.1,0.2,0.1s0.2-0.2,0.3-0.5c0.2-1.2-0.1-1.2,0.4-1.5S164.8,53.1,163.7,53.2L163.7,53.2z"/>
		<path class="st5" d="M163.9,53.5c-0.3,0-0.5,0.1-0.7,0.2c-0.4,0.4-0.5,0.3-0.5,1.1c0,0.3,0,0.6,0.1,0.9l0,0
			c-0.2-0.8,0.2-1.6,0.8-2.1c0.1-0.1,0.2-0.1,0.4-0.2h0.1C164.1,53.5,164,53.5,163.9,53.5L163.9,53.5z"/>
		<path class="st4" d="M160.4,58L160.4,58c0,0.8-0.4,1.5-1.2,1.8c-0.5,0.1-0.9,0.4-1.3,0.8c0.2,0,0.5-0.1,0.6-0.3
			c0.3-0.3,1-0.3,1.4-0.5C160.4,59.3,160.6,58.6,160.4,58L160.4,58z M160.4,57.9c-0.4,0.5-0.8,0.8-1.4,1.1c-1,0.6-1.3,1-1.4,1.2
			s0.1,0.2,0.2,0.2c0.2-0.5,0.7-0.9,1.2-1.1c0.6-0.2,1.1-0.7,1.3-1.3l0,0C160.4,58,160.4,57.9,160.4,57.9z"/>
		<path class="st5" d="M160.4,58c-0.2,0.7-0.7,1.2-1.3,1.4c-0.5,0.2-1,0.6-1.2,1.1h0.1c0.4-0.4,0.8-0.6,1.3-0.8
			C160,59.5,160.5,58.8,160.4,58z M160.4,58L160.4,58z"/>
		<path class="st4" d="M162.4,59.3c-0.6,0-1.1,0.3-1.4,0.7c0.4-0.3,0.9-0.5,1.4-0.6h0.3c0.4,0-0.1,0.3-0.1,0.3
			c-0.6,0.1-1.2,0.2-1.8,0.5c0,0.1-0.1,0.1-0.1,0.2c0.3-0.2,0.7-0.3,1.1-0.3c0.9-0.1,1.1-0.3,1.2-0.6
			C163,59.4,162.7,59.3,162.4,59.3L162.4,59.3z"/>
		<path class="st5" d="M162.7,59.4h-0.3c-0.5,0.1-1,0.3-1.4,0.6c0,0.1-0.1,0.1-0.1,0.2c0.5-0.3,1.1-0.5,1.8-0.5
			C162.6,59.6,163.1,59.4,162.7,59.4L162.7,59.4z"/>
		<path class="st4" d="M167.2,51.2c-1,0.5-1.7,1.6-1.7,2.8c0,0.2,0,0.3,0,0.5c0,0.8,0,1.1,0,1.4s-0.1,0.5-0.4,0.8
			c-0.9,0.6-1.4,1.5-1.3,2.6v0.2c0.1,0.9,0.4,1.2,0.8,1.3s1.2,0.4,1.2,0.8c0,0.6,0.3,1.3,0.8,1.7c0,0,0-0.1,0-0.1
			c-0.1-0.4-0.6-0.9-0.5-1.5s-0.3-0.5-1.1-1.1c-0.9-0.7-1.1-1.9-0.5-2.8c0.6-1.1,1.4-1,1.4-2.1s-0.3-2.2,0.7-3.5
			C166.7,52,166.9,51.6,167.2,51.2L167.2,51.2z M167,50.9c-0.2,0-0.4,0.1-0.6,0.1c-1.2,0.5-2,1.7-1.9,3.1c0.2,2.4,0.5,1.8-0.4,2.6
			s-1.5,3.1-0.4,4.2s1.2,0.5,1.6,1.4c0.3,0.6,0.8,1,1.1,1c0,0,0.1,0,0.1,0c-0.8-0.4-0.6-1.2-1.1-1.8c-0.1-0.2-0.6-0.3-1.1-0.5
			c-0.7-0.3-1.1-1-1-1.7v-0.2c-0.1-1.1,0.5-2.2,1.4-2.8c0.3-0.3,0.3-0.3,0.3-0.6s-0.1-0.6-0.1-1.4c0-0.2,0-0.3,0-0.5
			c0.1-1.3,0.9-2.4,2.2-2.8C167.2,51,167.2,50.9,167,50.9L167,50.9z"/>
		<path class="st5" d="M167.2,51.2c-1.2,0.4-2.1,1.5-2.2,2.8c0,0.2,0,0.4,0,0.5c0,0.8,0.1,1.1,0.1,1.4s0,0.2-0.3,0.6
			c-0.9,0.6-1.5,1.7-1.4,2.8v0.2c-0.1,0.7,0.3,1.4,1,1.7c0.5,0.2,1,0.2,1.1,0.5c0.4,0.6,0.3,1.4,1.1,1.8l0,0
			c-0.5-0.5-0.7-1.1-0.8-1.7c0-0.5-0.9-0.7-1.2-0.8s-0.7-0.4-0.8-1.3v-0.2c-0.1-1,0.4-2,1.3-2.6c0.3-0.3,0.5-0.5,0.4-0.8
			s0-0.6,0-1.4c0-0.2,0-0.3,0-0.5C165.5,52.8,166.1,51.8,167.2,51.2L167.2,51.2L167.2,51.2z"/>
		<path class="st4" d="M168.1,59c0,0.1,0.1,0.2,0.1,0.4c0.1,0.5,0.4,1,0.7,1.5C168.7,60.2,168.4,59.6,168.1,59z M168.8,52.7
			c-0.2,0-0.4,0.1-0.6,0.1c-1.1,0.5-1.8,1.5-1.8,2.7c-0.1,1.5,0,3.1,0.4,4.5c0.1,1-0.3,1.1,0.2,2.5c0.4,1,0.7,1.9,0.9,1.9
			c0.1,0,0.1-0.1,0.2-0.4c0.2-1-0.4-2-0.1-2.9c0.1-0.7,0.1-1.3-0.2-2c-0.2-0.6-1.1-2.9-0.6-3.8c0.2-0.3,0.3-0.4,0.5-0.4
			c0.3,0,0.4,0.6,0.4,0.9c-0.1,0.6-0.2,1.1-0.1,1.7c0.2-0.5,0.3-1,0.4-1.5c0-0.1,0-0.3,0.1-0.5c0-0.4-0.3-0.8-0.6-1
			c-0.2-0.1-0.3-0.2-0.5-0.2l0,0c-0.2,0.4-0.4,0.9-0.4,1.4v0.2c0.1,2.1,0.7,3.6,0.7,4.5c0,0.1,0,0.3-0.1,0.4v0.2
			c0.1,1,0.3,2,0.5,2.9c-0.5-0.9-0.8-1.9-0.9-2.9c0-0.1,0-0.2,0-0.3c0-0.1,0-0.2,0-0.3c0-0.8-0.5-2.3-0.7-4.5v-0.2
			c0-2.5,2.8-3.1,2.8-3.1l0,0l-0.4,0.2c-0.3,0.2-0.6,0.3-0.8,0.6c-0.2,0.2-0.4,0.4-0.6,0.7c0.2,0,0.4,0.1,0.6,0.2
			c0.5,0.3,0.8,0.8,0.7,1.3c0,0.2,0,0.3,0,0.5c-0.3,1.3-0.6,1.7-0.6,2c0,0.2,0.1,0.3,0.2,0.4c0.4,0.6,0.6,1.3,0.8,2
			c0,0,0.1,0.1,0.1,0.1c0.1,0,0.1-0.2,0-0.7c-0.4-1.2-0.9-1.8-0.5-2.5c0.4-0.9,0.5-2,0.1-2.9c-0.3-0.4-0.3-1.1,0.2-1.4
			c0.1-0.1,0.2-0.1,0.3-0.2C169.6,53.1,169.4,52.7,168.8,52.7L168.8,52.7z"/>
		<path class="st5" d="M169.2,53c0,0-2.8,0.6-2.8,3.1v0.2c0.1,2.2,0.7,3.7,0.7,4.5c0,0.1,0,0.2,0,0.3c0,0.1,0,0.2,0,0.3
			c0.2,1,0.5,2,0.9,2.9c-0.2-1-0.4-1.9-0.5-2.9v-0.2c0-0.1,0.1-0.3,0.1-0.4c0-0.9-0.6-2.4-0.7-4.5v-0.2c0-0.5,0.1-1,0.4-1.4l0,0
			c0.2,0,0.4,0.1,0.5,0.2c0.4,0.2,0.6,0.6,0.6,1c0,0.2,0,0.3-0.1,0.5c-0.1,0.5-0.2,1-0.4,1.5c0,0.4,0.1,0.8,0.2,1.2
			c0.3,0.6,0.6,1.2,0.8,1.8h0.1c-0.1-0.7-0.4-1.4-0.7-2.1c-0.1-0.1-0.1-0.3-0.2-0.4c0-0.3,0.4-0.7,0.6-2c0-0.2,0-0.3,0-0.5
			c0-0.5-0.3-1.1-0.7-1.3c-0.2-0.1-0.4-0.2-0.6-0.2c0.2-0.2,0.4-0.5,0.6-0.7c0.2-0.2,0.5-0.4,0.8-0.6l0.4-0.2L169.2,53z"/>
		<path class="st4" d="M168.6,49.5c-0.2,0-0.1,0.1,0.4,0.4c0,0,1.5,1.5,1.1,5.4s-0.6,3.4-0.3,4.8c0.3,0.9,0.4,1.8,0.3,2.8
			c0,0.3,0.1,0.5,0.2,0.5s0.5-0.5,0.6-1.5c0.1-1.7-0.6-2.3,0-4.1s0.6-5.8-0.2-7c-0.4-0.4-0.9-0.8-1.4-1c0.7,0.4,1.7,1.4,1.7,3.9
			c0,0.1,0,0.2,0,0.3c-0.1,3.8-0.7,4.2-0.6,5.1c0,0.2,0,0.4,0.1,0.6c0.1,0.7,0.2,1.3,0.2,2c0,0.4,0,0.9-0.2,1.3
			c0-1.1-0.1-2.3-0.4-3.3c0-0.2-0.1-0.4-0.1-0.7c0-1,0.5-1.2,0.6-5c0-0.1,0-0.2,0-0.3c0-2.8-1-3.7-1.6-4
			C168.8,49.5,168.7,49.5,168.6,49.5L168.6,49.5z"/>
		<path class="st5" d="M168.9,49.6c0.6,0.3,1.6,1.2,1.6,4c0,0.1,0,0.2,0,0.3c-0.1,3.7-0.6,4-0.6,5c0,0.2,0,0.4,0.1,0.7
			c0.3,1.1,0.5,2.2,0.4,3.3c0.1-0.4,0.2-0.8,0.2-1.3c0-0.7-0.1-1.3-0.2-2c0-0.2-0.1-0.4-0.1-0.6c0-0.8,0.6-1.3,0.6-5.1
			c0-0.1,0-0.2,0-0.3c0-2.4-1-3.5-1.7-3.9L168.9,49.6L168.9,49.6z"/>
		<path class="st4" d="M161.7,64.6c-0.1,0-0.1,0.1-0.1,0.3l0,0l0,0c0.3,0.3,0.4,0.7,0.4,1.1v0.2c0.1,0,0.1,0.1,0.3,0.2
			c0.2,0.1,0.5,0.2,0.8,0.2l0,0c0.7-0.1,1.3-0.4,1.6-1c-0.2,0.8-0.8,1.4-1.6,1.4l0,0c-0.4,0-0.8-0.1-1.1-0.3c-0.1,0.5-0.5,0.8-1,0.9
			l0,0c0,0.1,0.1,0.5,0.9,1.1c0.5,0.3,0.8,0.9,0.7,1.5c-0.1,0.7,0,1.3,0.4,1.9c-0.5-0.5-0.8-1.2-0.8-1.9c0.1-0.5-0.2-1-0.6-1.2
			c-0.9-0.6-1.1-1.1-1.1-1.4l0,0c-1-0.1-2-0.5-2.8-1.1c-0.3,0.5-0.8,0.9-1.4,1.1c-0.7,0.1-1.5,0.4-2.1,0.8c0.1-0.1,0.1-0.4,1.9-1.1
			c0.9-0.4,1.7-1.3,2-2.2l0,0c0,0.4-0.1,0.7-0.2,1.1c0.2,0.2,0.5,0.4,0.8,0.5c0.6,0.4,1.2,0.6,1.9,0.6l0,0c0.4,0,0.7-0.2,0.9-0.5
			c0.2-0.3,0.3-0.6,0.3-1c0-0.3-0.1-0.6-0.2-0.8l0,0l0,0c0.2,0.8-0.2,1.6-1,1.9c-0.1,0-0.3,0.1-0.4,0.1h-0.1c-0.9,0-1.7-0.7-1.7-1.6
			c0,0,0,0,0,0c0-0.3,0-0.6-0.1-0.6s-0.4,0.2-0.8,0.8c-0.8,1.2-0.5,1-1.6,1.4c-0.6,0.2-1.2,0.5-1.6,1c-0.4,0.5-0.2,0.7,0.1,0.7
			c0.1,0,0.2,0,0.2-0.1c0.5-0.3,1.1-0.4,1.7-0.4c0.5,0,1.3-0.9,1.5-0.9l0,0c0.6,0.3,1.2,0.5,1.9,0.5c0.7,0.1,0.3,0.5,1.1,0.9
			s0.5,1.1,1.1,2.9c0.3,0.8,0.6,1,0.9,1c0.3,0,0.5-0.3,0.5-0.6c0-0.1,0-0.1-0.1-0.2c-0.3-0.5-0.5-1.1-0.5-1.7c0-0.6-0.3-1.2-0.8-1.6
			c-0.6-0.5-0.1-0.5,0-1c0-0.1,0.1-0.2,0.2-0.2c0.1,0,0.3,0,0.4,0.1c0.2,0,0.4,0.1,0.6,0.1c0.3,0,0.5-0.1,0.8-0.2
			c0.9-0.4,1.1-2,0.9-2c0,0-0.1,0-0.2,0.1c-0.4,0.5-1,0.8-1.6,0.8c-0.2,0-0.4-0.1-0.4-0.3C162.6,65.5,161.9,64.6,161.7,64.6
			L161.7,64.6z"/>
		<path class="st5" d="M161.6,64.9c0.2,0.2,0.3,0.5,0.2,0.8c0,0.4-0.1,0.7-0.3,1c-0.2,0.3-0.6,0.5-0.9,0.5l0,0
			c-0.7-0.1-1.3-0.3-1.9-0.6c-0.3-0.1-0.5-0.3-0.8-0.5c0.2-0.3,0.2-0.7,0.2-1.1l0,0c-0.3,1-1.1,1.8-2,2.2c-1.8,0.8-1.9,1-1.9,1.1
			c0.6-0.4,1.4-0.7,2.1-0.8c0.6-0.2,1-0.6,1.4-1.1c0.8,0.6,1.8,1,2.8,1.1l0,0c0,0.3,0.2,0.7,1.1,1.4c0.4,0.3,0.6,0.8,0.6,1.2
			c0,0.7,0.3,1.4,0.8,1.9c-0.4-0.6-0.5-1.2-0.4-1.9c0.1-0.6-0.2-1.2-0.7-1.5c-0.8-0.6-0.9-1-0.9-1.1l0,0c0.5-0.1,0.9-0.4,1-0.9
			c0.3,0.2,0.7,0.3,1.1,0.3l0,0c0.8,0,1.4-0.6,1.6-1.3c-0.4,0.6-1,0.9-1.6,1l0,0c-0.3,0-0.5-0.1-0.8-0.2c-0.1-0.1-0.2-0.1-0.3-0.2
			v-0.2C162.1,65.7,161.9,65.3,161.6,64.9L161.6,64.9z M161.6,64.9L161.6,64.9z"/>
		<path class="st4" d="M159.5,68.1h-0.1c0,0.1,0,0.2,0,0.3c0,0.7-0.8,1.2-0.9,1.3l-0.9,0.5c0,0.1,0,0.2,0,0.3c0,0.2,0,0.2,0.3,0.3
			l0,0c-0.1,0-0.7,0-0.8-1.4c-0.1-0.4-0.3-0.4-0.7-0.4l0,0c-0.4,0-0.8,0.1-1.2,0.3c0.3-0.4,0.7-0.6,1.2-0.6h0.1c0.5,0,0.9,0.3,1,0.7
			c0,0.2,0.1,0.4,0.1,0.7c0.2-0.2,0.4-0.4,0.6-0.6c0.6-0.3,1-0.7,1.1-1.3c-0.3,0.1-0.5,0.2-0.7,0.4c-0.3,0.3-0.5,0.4-0.7,0.4
			s-0.4-0.1-0.7-0.4c-0.2-0.2-0.4-0.3-0.6-0.2c-0.5,0-1,0.2-1.4,0.4c-0.9,0.4-0.6,0.9,0,0.9c0.2,0,0.4,0,0.6-0.1
			c0.2-0.1,0.4-0.1,0.6-0.1c0.5,0,0.7,0.5,1,1.2c0.2,0.6,0.5,0.7,0.7,0.7s0.2-0.1,0.1-0.2s-0.2-0.7,0-0.9c0.7-0.2,1.2-0.7,1.4-1.4
			C159.8,68.3,159.6,68.1,159.5,68.1L159.5,68.1z"/>
		<path class="st5" d="M159.3,68.1L159.3,68.1c-0.2,0.6-0.6,1.1-1.1,1.3c-0.2,0.2-0.4,0.4-0.6,0.6c0-0.2-0.1-0.4-0.1-0.7
			c-0.1-0.4-0.5-0.8-1-0.7h-0.1c-0.5,0-0.9,0.3-1.2,0.6c0.4-0.1,0.8-0.2,1.2-0.3l0,0c0.4,0,0.6,0.1,0.7,0.4c0.1,1.3,0.7,1.4,0.8,1.4
			l0,0c-0.2-0.1-0.2-0.1-0.3-0.3c0-0.1,0-0.2,0-0.3l0.9-0.5c0.2-0.1,0.9-0.6,0.9-1.3c0-0.1,0-0.2,0-0.3H159.3z"/>
		<path class="st4" d="M160.3,71.5L160.3,71.5c-0.1,0.3-0.1,0.6,0,0.8c0.7,0.9,1,2.1,0.9,3.2c0,0.2,0,0.5,0,0.7
			c-0.1,1.7-0.9,2.1-1.9,2.1h-0.1c-0.6,0-1.3-0.1-1.7-0.1l0,0c-0.3,0-0.4,0-0.5,0.3c-0.3,1.5-2.9,2-3.1,2.1l0,0
			c0.2-0.1,2.4-0.8,2.7-2.2c0.1-0.4,0.4-0.6,0.8-0.6h0.1c0.5,0,1.1,0.2,1.6,0.2l0,0c0.9,0,1.6-0.2,1.7-1.9c0-0.2,0-0.5,0-0.7
			c0-2.3-0.8-2.4-0.9-3.2C160.1,72,160.2,71.7,160.3,71.5L160.3,71.5z M160.3,71.3c-0.3,0-0.8,0.4-0.3,1.6c0.7,1.7,1.3,3.6-0.2,4.3
			c-0.3,0.2-0.7,0.2-1.1,0.2c-0.2,0-0.4,0-0.6,0h-0.6c-0.5,0-1,0.3-1.1,0.7c-0.8,1.4-1.2,1.8-1.9,2.1s-1.5,0.6-0.7,0.6
			c0.2,0,0.3,0,0.5,0c1.5-0.2,2.9-0.6,3.2-1.5c0.2-0.5,0.3-0.6,0.6-0.6s0.4,0.1,0.8,0.1h0.2c0.9,0.1,1.8-0.4,2.1-1.2
			c0.4-1.1,0.6-3.7,0.1-4.3c-0.4-0.5-0.7-1.1-0.8-1.7C160.6,71.4,160.5,71.4,160.3,71.3L160.3,71.3z"/>
		<path class="st5" d="M154,80.6L154,80.6z M160.3,71.5c-0.1,0.2-0.2,0.4-0.2,0.7c0,0.8,0.9,0.9,0.9,3.2c0,0.2,0,0.4,0,0.7
			c-0.1,1.7-0.8,1.9-1.7,1.9l0,0c-0.6,0-1.2-0.1-1.6-0.2h-0.1c-0.4,0-0.7,0.2-0.8,0.6c-0.3,1.3-2.4,2.1-2.7,2.2
			c0.2-0.1,2.8-0.6,3.1-2.1c0.1-0.2,0.1-0.2,0.5-0.3l0,0c0.4,0,1,0.1,1.7,0.1h0.1c1,0,1.8-0.4,1.9-2.1c0-0.2,0-0.5,0-0.7
			c0.1-1.1-0.2-2.3-0.9-3.2C160.3,72.1,160.3,71.8,160.3,71.5L160.3,71.5z"/>
		<path class="st4" d="M154.9,73.6c-0.1,0-0.3,0-0.4,0.1c-0.1,0.3-0.2,0.7-0.1,1c0,0.2,0.1,0.3,0.2,0.4c0.1,0.1,0.2,0.3,0.2,0.4
			c0,0.4-0.4,0.6-0.6,0.9s-0.5,0.5-0.5,0.7l0,0c0,0-0.3-0.4,0.2-1c0.3-0.2,0.5-0.5,0.5-0.6l-0.1-0.2c-0.2-0.2-0.3-0.4-0.3-0.7
			c0-0.4,0.2-0.7,0.5-0.9c-0.5,0.2-1,0.7-0.8,1.2s0.3,0.6-0.3,1.4s-0.1,1.4,0,1.4s0,0,0,0c0.1-0.2,0.4-0.4,1-0.9
			c0.7-0.5,0.8-1.4,0.4-2.1C154.3,73.7,154.9,73.6,154.9,73.6L154.9,73.6z"/>
		<path class="st5" d="M154.5,73.7L154.5,73.7c-0.3,0.2-0.5,0.6-0.5,0.9c0,0.3,0.1,0.5,0.3,0.7l0.1,0.2c0,0.1-0.2,0.4-0.5,0.6
			c-0.5,0.6-0.2,1-0.2,1l0,0c0-0.2,0.2-0.4,0.5-0.7s0.6-0.5,0.6-0.9c0-0.2-0.1-0.3-0.2-0.4c-0.1-0.1-0.2-0.3-0.2-0.4
			C154.3,74.3,154.3,74,154.5,73.7L154.5,73.7z"/>
		<path class="st4" d="M149.2,79.2c-0.1-0.4-0.2-0.8-0.2-1.2c-0.1-0.7,0.2-1.4,0.8-1.8c0.3-0.2,0.4-0.5,0.5-0.8c0-0.1,0-0.2,0-0.3
			c0-0.4,0.2-0.8,0.6-1c0.5-0.4,0.8-0.9,1-1.4c0.3-0.7,0.9-1.3,1.6-1.6l0,0c0-0.4,0.3-0.7,0.3-1.2c0-0.3-0.1-0.6-0.2-0.9
			c-0.2-0.3-0.3-0.7-0.4-1.1c0-0.5,0.3-0.8,0.3-1.1c0-0.2,0-0.3-0.1-0.5c-0.1-0.3-0.2-0.5-0.2-0.8c0-0.4,0.2-0.8,0.6-1.1l0,0
			c-0.4,0.5-0.4,1.2,0,1.8c0.1,0.2,0.1,0.4,0.1,0.6c0,0.5-0.3,0.7-0.3,1.1c0,0.3,0.1,0.6,0.3,0.9c0.2,0.3,0.3,0.6,0.3,1
			c0,0.6-0.3,1-0.3,1.2s0,0.2,0.3,0.4c1,0.6,2.2,0.9,2.5,1.8c0.2,0.6,1,0.8,1.3,0.9h-0.1c-0.4,0-1.3-0.1-1.6-0.8s-1.3-0.9-2.4-1.6
			c-0.1-0.1-0.2-0.2-0.3-0.3c-0.6,0.3-1.1,0.8-1.4,1.4c-0.2,0.6-0.6,1.2-1.1,1.6c-0.4,0.3-0.4,0.4-0.4,0.7c0,0.1,0,0.2,0,0.3
			c0,0.4-0.2,0.9-0.6,1.1C149,77.2,149.1,79.2,149.2,79.2L149.2,79.2z M154,64c-0.2,0-0.6,0.4-1,1c-0.5,0.8,0.1,1.6-0.1,1.9
			s0.2,1.8,0.1,2.5s0.1,1.3-1,1.9s-0.4,1.8-1,2.3c-0.6,0.4-1,0.9-1.2,1.6c-0.2,0.8-0.6,0.8-1.1,2.3c-0.1,0.3-0.1,0.7-0.1,1
			c0.1,0.3,0.2,0.6,0.3,0.8c0.1,0.2,0.2,0.3,0.3,0.3s0.1-0.1,0-0.3c-0.1-1.1,0.4-2.1,1.3-2.7c0.9-0.6,0.5-0.8,0.6-1.5
			s0.6-0.5,0.8-1.2s0.6-1.1,1.4-1.8c0.1-0.1,0.3-0.2,0.5-0.2c0.2,0,0.1,0.6,0.6,0.6c0.6,0.1,1.2,0.9,2.1,1.6
			c0.2,0.2,0.5,0.3,0.8,0.3c0.6,0,0.9-0.4,0.4-0.6c-0.5-0.1-0.8-0.6-0.8-1.1c-0.1-0.4-0.9-0.6-2.1-1.3s-0.2-0.7-0.6-1.8
			c-0.4-0.7-0.5-1.5-0.3-2.3c0.2-0.5,0.2-0.8-0.2-1.5c-0.2-0.4-0.1-0.9,0.2-1.2C154,64.1,154,64.1,154,64L154,64z"/>
		<path class="st5" d="M153.7,64.3L153.7,64.3c-0.3,0.3-0.5,0.7-0.6,1.1c0,0.3,0.1,0.5,0.2,0.8c0.1,0.1,0.1,0.3,0.1,0.5
			c0,0.3-0.3,0.6-0.3,1.1c0,0.4,0.1,0.7,0.4,1.1c0.2,0.3,0.2,0.6,0.2,0.9c0,0.5-0.3,0.8-0.3,1.2l0,0c-0.7,0.3-1.3,0.9-1.7,1.7
			c-0.2,0.6-0.5,1.1-1,1.4c-0.4,0.2-0.6,0.6-0.6,1c0,0.1,0,0.2,0,0.3c0,0.3-0.2,0.6-0.5,0.8c-0.5,0.5-0.8,1.1-0.7,1.8
			c0,0.4,0.1,0.8,0.2,1.2c0,0-0.2-2,0.9-2.7c0.4-0.2,0.6-0.6,0.6-1.1c0-0.1,0-0.2,0-0.3c0-0.2,0-0.4,0.4-0.7c0.5-0.4,0.9-1,1.1-1.6
			c0.3-0.6,0.8-1.1,1.4-1.4c0.1,0.1,0.2,0.2,0.3,0.3c1.1,0.7,2.2,0.9,2.4,1.6s1.2,0.8,1.6,0.8h0.1c-0.3,0-1.1-0.2-1.3-0.9
			c-0.3-0.9-1.5-1.1-2.5-1.8c-0.2-0.2-0.3-0.2-0.3-0.4s0.3-0.6,0.3-1.2c0-0.4-0.1-0.7-0.3-1c-0.2-0.3-0.3-0.6-0.3-0.9
			c0-0.4,0.3-0.6,0.3-1.1c0-0.2-0.1-0.4-0.1-0.6C153.4,65.5,153.4,64.8,153.7,64.3L153.7,64.3z"/>
		<path class="st10" d="M148.7,78.4c0,0.3,0.1,0.6,0.3,0.8C148.9,79,148.8,78.7,148.7,78.4z"/>
		<path class="st4" d="M152.5,66.6L152.5,66.6c-0.2,0.6-0.2,1.2,0,1.7v0.2c0,0.8-0.6,1.2-1.1,1.6c-0.5,0.5-0.9,1-1.3,1.5
			c0.4-0.8,0.9-1.5,1.6-2.1c0.3-0.3,0.4-0.6,0.4-1v-0.1c0-0.1,0-0.3,0-0.4C152.1,67.5,152.2,67,152.5,66.6L152.5,66.6z M152.5,66.5
			c0,0-0.1,0.1-0.3,0.3c-0.2,0.4-0.4,0.9-0.3,1.3c0,0.8-0.6,0.8-0.9,1.4s-1.2,2.2-0.8,2.2l0,0c0.4-0.1,0.7-0.7,1.4-1.3
			c0.5-0.5,0.9-1.1,1.1-1.8c-0.1-0.6-0.1-1.2-0.1-1.7C152.5,66.8,152.6,66.5,152.5,66.5L152.5,66.5z"/>
		<path class="st5" d="M152.5,66.6c-0.3,0.4-0.5,0.9-0.4,1.3c0,0.1,0,0.3,0,0.4v0.1c0,0.4-0.2,0.7-0.4,1c-0.6,0.6-1.2,1.3-1.6,2.1
			c0.4-0.5,0.8-1.1,1.3-1.5c0.5-0.4,1.1-0.8,1.1-1.6v-0.2C152.4,67.8,152.4,67.2,152.5,66.6L152.5,66.6z"/>
		<path class="st4" d="M175.6,51.2L175.6,51.2c0.4-0.8,1.1-1.3,2-1.3c0.3,0,0.7,0.1,1,0.2c0.5,0.2,1,0.4,1.4,0.7
			c0.2,0.2,0.4,0.3,0.4,0.3l0,0c0.1,0,0.2,0,0.2-0.1c0.4-0.3,0.8-0.4,1.3-0.5l0,0c0.3,0,0.5,0.1,0.7,0.3c-0.1,0-0.3-0.1-0.4-0.1
			c-0.5,0-1.1,0.2-1.4,0.6c-0.1,0.1-0.3,0.1-0.4,0.1c-0.3,0-0.4-0.2-0.7-0.3c-0.4-0.3-0.8-0.5-1.3-0.7c-0.3-0.1-0.5-0.1-0.8-0.2l0,0
			C176.8,50.3,176.1,50.6,175.6,51.2L175.6,51.2z M177.9,49.7c-0.7-0.1-1.5,0.2-2.1,0.6c-0.6,0.6-0.5,1.2-0.1,1.2
			c0.2,0,0.4-0.2,0.6-0.3c0.3-0.3,0.7-0.5,1.1-0.5c0.5,0,1,0.2,1.4,0.4c0.4,0.2,1.1,1.1,1.6,1.1c0.2,0,0.3-0.1,0.4-0.2
			c0.4-0.5,0.9-0.7,1.5-0.7l0,0l0.2-0.1c0.9-0.5-0.2-0.8-1.2-0.8c-0.2,0-0.5,0-0.7,0c-0.2,0-0.4,0.1-0.6,0.1c-0.4,0-0.3-0.2-0.7-0.5
			c-0.3-0.1-0.6-0.2-0.9-0.2h-0.2C178.1,49.7,178,49.7,177.9,49.7L177.9,49.7z"/>
		<path class="st5" d="M177.6,49.9c-0.9,0-1.6,0.5-2,1.3l0,0c0.5-0.5,1.2-0.9,2-0.9l0,0c0.3,0,0.6,0.1,0.8,0.2
			c0.5,0.2,0.9,0.4,1.3,0.7c0.2,0.2,0.4,0.3,0.7,0.3c0.2,0,0.3,0,0.4-0.1c0.4-0.4,0.9-0.6,1.4-0.6c0.1,0,0.3,0,0.4,0.1
			c-0.2-0.2-0.5-0.2-0.7-0.3l0,0c-0.5,0.1-0.9,0.2-1.3,0.5c-0.1,0-0.1,0.1-0.2,0.1l0,0c-0.1,0-0.2-0.1-0.4-0.3
			c-0.4-0.3-0.9-0.6-1.4-0.7C178.2,50,177.9,49.9,177.6,49.9L177.6,49.9z"/>
		<path class="st10" d="M178,49.7c0.1,0,0.1,0.1,0.2,0h0.2L178,49.7L178,49.7z"/>
		<path class="st4" d="M182.7,52.2c-0.1,0-0.1,0-0.1,0.2c0.7,0.1,1.2,0.7,1.2,1.4c0,0.3-0.1,0.6-0.2,0.9c-0.6,1.5-1.2,1.8-1.2,2.2
			c0,0.1,0,0.2,0.1,0.3c0.2,0.3,0.3,0.6,0.3,1c0,0.4-0.2,0.8-0.4,1.1c0.3-0.7,0.2-1.5-0.3-2c-0.1-0.1-0.1-0.3-0.1-0.4
			c0.1-0.7,0.7-0.8,1.2-2.3c0.1-0.2,0.2-0.5,0.2-0.8c0.1-0.6-0.2-1.2-0.7-1.4c0.1,0.1,0.2,0.3,0.4,0.6c0.6,0.9-0.6,2-1.1,2.7
			s-0.2,1.2,0.2,1.8s-0.2,1.6,0.3,1.8h0.1c0.4,0,0.6-1,0.3-1.9s-0.1-0.2,0.9-2.3s-0.4-2.8-0.4-2.8C183.3,52.2,183,52.2,182.7,52.2
			L182.7,52.2z"/>
		<path class="st5" d="M182.6,52.4L182.6,52.4c0.5,0.2,0.9,0.8,0.7,1.4c0,0.3-0.1,0.5-0.2,0.8c-0.6,1.5-1.2,1.6-1.2,2.3
			c0,0.1,0,0.3,0.1,0.4c0.5,0.5,0.7,1.3,0.3,2c0.2-0.3,0.4-0.7,0.4-1.1c0-0.4-0.2-0.7-0.3-1c0-0.1-0.1-0.2-0.1-0.3
			c-0.1-0.3,0.6-0.6,1.2-2.2c0.1-0.3,0.2-0.6,0.2-0.9C183.8,53.1,183.3,52.5,182.6,52.4L182.6,52.4z"/>
		<path class="st4" d="M181.2,55.8L181.2,55.8z M181.2,55.8c0.2-0.8-0.2-1.6-0.8-2.1c-0.1-0.1-0.2-0.1-0.4-0.2h-0.1
			c0.1,0,0.2,0,0.3,0c0.3,0,0.5,0.1,0.7,0.2c0.4,0.4,0.5,0.3,0.5,1.1C181.3,55.3,181.3,55.6,181.2,55.8L181.2,55.8z M180.4,53.2
			c-1.1,0-0.4,0.5,0,0.7s0.2,0.3,0.4,1.5c0.1,0.4,0.2,0.5,0.3,0.5s0.6-0.7,0.6-1.5c0.1-0.5-0.2-1.1-0.8-1.2c-0.1,0-0.1,0-0.2,0
			L180.4,53.2L180.4,53.2z"/>
		<path class="st5" d="M180.1,53.5c-0.1,0-0.2,0-0.3,0h0.1c0.1,0,0.2,0.1,0.4,0.2c0.7,0.5,1,1.3,0.8,2.1c0.1-0.3,0.1-0.6,0.1-0.9
			c0-0.8-0.1-0.8-0.5-1.1C180.7,53.5,180.4,53.4,180.1,53.5L180.1,53.5z"/>
		<polygon class="st5" points="181.2,55.8 181.2,55.8 181.2,55.8 		"/>
		<path class="st4" d="M183.6,58.1c-0.1,0.6,0.1,1.2,0.5,1.6c0.4,0.2,1,0.2,1.4,0.5c0.2,0.2,0.4,0.3,0.6,0.3
			c-0.4-0.4-0.8-0.6-1.3-0.8C184,59.5,183.6,58.8,183.6,58.1L183.6,58.1z M183.7,57.8c-0.1,0.1-0.1,0.1-0.1,0.2
			c0.2,0.6,0.7,1.1,1.3,1.3c0.5,0.2,1,0.6,1.2,1.1c0.2,0,0.3-0.1,0.3-0.2s-0.4-0.6-1.4-1.2C184.5,58.7,184.1,58.3,183.7,57.8z"/>
		<path class="st5" d="M183.6,58L183.6,58c0,0.7,0.5,1.4,1.1,1.7c0.5,0.1,0.9,0.4,1.3,0.8h0.1c-0.2-0.5-0.7-0.9-1.2-1.1
			C184.3,59.1,183.8,58.6,183.6,58z"/>
		<path class="st4" d="M181.6,59.3c-0.3,0-0.6,0.1-0.5,0.2c0,0.3,0.3,0.5,1.1,0.6s1,0.3,1,0.3c0-0.1-0.1-0.1-0.1-0.2
			c-0.6-0.3-1.2-0.5-1.8-0.6c0,0-0.5-0.3-0.1-0.3h0.3c0.5,0.1,1,0.3,1.5,0.7C182.7,59.6,182.2,59.3,181.6,59.3L181.6,59.3z"/>
		<path class="st5" d="M181.3,59.4c-0.4,0,0.1,0.3,0.1,0.3c0.6,0.1,1.3,0.3,1.8,0.6l-0.1-0.2c-0.4-0.3-0.9-0.6-1.5-0.7L181.3,59.4
			L181.3,59.4z"/>
		<path class="st4" d="M176.9,51.3c0.2,0.4,0.4,0.7,0.7,1c0.9,1.3,0.7,2.4,0.7,3.5s0.8,1,1.4,2.1c0.5,0.9,0.3,2.2-0.5,2.8
			c-0.7,0.5-1.1,0.5-1,1.1s-0.5,1.1-0.5,1.5l0,0c0.4-0.5,0.7-1.1,0.7-1.7c0-0.5,0.9-0.7,1.3-0.8s0.7-0.4,0.8-1.3v-0.2
			c0-1.7-0.6-1.9-1.3-2.6c-0.3-0.3-0.4-0.5-0.4-0.8s0.1-0.6,0.1-1.4c0-0.2,0-0.3,0-0.5C178.6,52.8,178,51.7,176.9,51.3L176.9,51.3z
			 M177.1,50.9c-0.2,0-0.3,0.1-0.2,0.3c1.2,0.4,2,1.5,2.1,2.8v0.5c0,0.8-0.1,1.1-0.1,1.4s0,0.2,0.4,0.6c0.9,0.6,1.5,1.7,1.4,2.8v0.2
			c0.1,0.7-0.3,1.4-1,1.7c-0.5,0.2-1,0.2-1.1,0.5c-0.4,0.5-0.3,1.3-1,1.8c0,0,0.1,0.1,0.1,0.1c0.2,0,0.8-0.4,1-1
			c0.4-0.8,0.6-0.2,1.6-1.4s0.6-3.4-0.4-4.2s-0.6-0.2-0.4-2.6c0.2-1.3-0.6-2.6-1.8-3.1C177.5,50.9,177.3,50.9,177.1,50.9L177.1,50.9
			z"/>
		<path class="st5" d="M176.9,51.2C176.9,51.2,176.9,51.2,176.9,51.2c1,0.6,1.7,1.6,1.7,2.8c0,0.2,0,0.3,0,0.5
			c0,0.8-0.1,1.1-0.1,1.4s0.1,0.5,0.4,0.8c0.7,0.7,1.3,0.8,1.3,2.6v0.2c0,0.9-0.4,1.2-0.8,1.3s-1.2,0.4-1.3,0.8
			c0,0.6-0.3,1.2-0.7,1.7l0,0c0.7-0.4,0.6-1.2,1-1.8c0.1-0.2,0.6-0.3,1.1-0.5c0.7-0.3,1.1-1,1-1.7v-0.2c0.1-1.1-0.5-2.2-1.4-2.8
			c-0.3-0.3-0.3-0.3-0.4-0.6s0.1-0.6,0.1-1.4V54C178.9,52.7,178.1,51.6,176.9,51.2L176.9,51.2z"/>
		<path class="st4" d="M176,58.8c-0.4,0.7-0.7,1.4-0.9,2.1c0.4-0.4,0.7-1,0.8-1.5C175.9,59.2,176,59,176,58.8L176,58.8z M175.2,52.7
			c-0.6,0-0.8,0.4-0.4,0.5c0.5,0.2,0.8,0.7,0.6,1.3c0,0.1-0.1,0.2-0.2,0.3c-0.4,0.9-0.4,2,0.1,2.9c0.4,0.7,0,1.4-0.5,2.5
			c-0.2,0.5-0.1,0.7,0,0.7h0c0.1-0.8,0.4-1.5,0.7-2.2c0.1-0.1,0.1-0.3,0.2-0.4c0-0.3-0.4-0.7-0.6-2c0-0.2-0.1-0.3-0.1-0.5
			c0-0.5,0.3-1.1,0.7-1.3c0.2-0.1,0.4-0.2,0.6-0.2c-0.2-0.2-0.4-0.5-0.6-0.7c-0.2-0.2-0.5-0.4-0.8-0.6l-0.4-0.2c0,0,2.7,0.6,2.8,3.1
			v0.2c-0.1,2.2-0.7,3.7-0.7,4.5c0,0.1,0,0.2,0,0.3c0,0.1,0.1,0.2,0.1,0.3c-0.2,1-0.5,2-0.9,2.9c0.2-1,0.4-1.9,0.5-2.9v-0.2
			c0-0.1-0.1-0.3-0.1-0.4c0-0.9,0.6-2.4,0.7-4.5V56c0-0.5-0.1-1-0.4-1.4l0,0c-0.2,0-0.4,0.1-0.5,0.2c-0.4,0.2-0.6,0.6-0.6,1
			c0,0.1,0,0.3,0,0.5c0.1,0.6,0.3,1.1,0.5,1.7c0.1-0.6,0-1.3-0.1-1.9c0-0.4,0.1-0.9,0.4-0.9c0.1,0,0.3,0.1,0.5,0.4
			c0.6,0.9-0.4,3.2-0.6,3.8c-0.3,0.6-0.4,1.3-0.2,2c0.2,0.8-0.4,1.9-0.1,2.9c0.1,0.3,0.1,0.4,0.2,0.4s0.5-0.9,0.9-1.9
			c0.6-1.4,0.1-1.6,0.2-2.5c0.4-1.5,0.5-3,0.4-4.5c0-1.2-0.7-2.2-1.8-2.7C175.6,52.7,175.4,52.6,175.2,52.7L175.2,52.7z"/>
		<path class="st5" d="M174.8,53l0.4,0.2c0.3,0.2,0.6,0.3,0.8,0.6c0.2,0.2,0.4,0.4,0.6,0.7c-0.2,0-0.4,0.1-0.6,0.2
			c-0.5,0.3-0.8,0.8-0.7,1.3c0,0.2,0,0.3,0.1,0.5c0.3,1.3,0.6,1.7,0.6,2c0,0.2-0.1,0.3-0.2,0.4c-0.4,0.6-0.6,1.4-0.8,2.1l0,0
			c0.2-0.7,0.6-1.4,0.9-2.1c0.1-0.3,0.1-0.5,0.1-0.8c-0.2-0.5-0.4-1.1-0.5-1.7c0-0.1,0-0.3,0-0.5c0-0.4,0.3-0.8,0.6-1
			c0.2-0.1,0.3-0.2,0.5-0.2l0,0c0.2,0.4,0.4,0.9,0.4,1.4v0.2c-0.1,2.1-0.7,3.6-0.7,4.5c0,0.1,0,0.3,0.1,0.4v0.2
			c-0.1,1-0.3,2-0.5,2.9c0.4-0.9,0.8-1.9,0.9-2.9c0-0.1,0-0.2-0.1-0.3c0-0.1,0-0.2,0-0.3c0-0.8,0.5-2.3,0.7-4.5v-0.2
			C177.5,53.7,174.8,53.1,174.8,53L174.8,53z"/>
		<path class="st4" d="M175.5,49.5c-0.2,0-0.3,0.1-0.5,0.1c-0.6,0.4-1.5,1.3-1.5,4v0.3c0.1,3.7,0.6,4,0.6,5c0,0.2,0,0.4-0.1,0.7
			c-0.3,1.1-0.5,2.2-0.4,3.3c-0.1-0.4-0.2-0.8-0.2-1.3c0-0.7,0.1-1.3,0.2-2c0-0.2,0.1-0.4,0.1-0.6c0-0.8-0.6-1.3-0.6-5.1v-0.3
			c0-2.2,0.8-3.3,1.5-3.8c-0.4,0.2-0.8,0.5-1.2,0.9c-0.9,1.1-0.9,5.2-0.2,7s-0.1,2.4,0,4.1c0,1,0.4,1.5,0.6,1.5s0.2-0.2,0.2-0.5
			c-0.1-0.9,0-1.9,0.3-2.8c0.3-1.3,0.1-0.8-0.3-4.8s1.1-5.4,1.1-5.4c0.5-0.3,0.6-0.4,0.4-0.4L175.5,49.5z"/>
		<path class="st5" d="M175,49.6l-0.4,0.2c-0.7,0.5-1.5,1.5-1.5,3.8v0.3c0.1,3.8,0.7,4.2,0.6,5.1c0,0.2,0,0.4-0.1,0.6
			c-0.1,0.7-0.2,1.3-0.2,2c0,0.4,0,0.9,0.2,1.3c0-1.1,0.1-2.3,0.4-3.3c0-0.2,0.1-0.4,0.1-0.7c0-1-0.5-1.2-0.6-5v-0.3
			C173.5,50.9,174.4,50,175,49.6L175,49.6z"/>
		<path class="st4" d="M182.4,64.9L182.4,64.9L182.4,64.9c-0.2,0.2-0.3,0.5-0.2,0.8c0,0.4,0.1,0.7,0.3,1c0.2,0.3,0.6,0.5,0.9,0.5
			l0,0c0.7-0.1,1.3-0.3,1.9-0.6c0.3-0.1,0.5-0.3,0.8-0.5c-0.2-0.3-0.3-0.7-0.3-1.1l0,0c0.3,1,1.1,1.8,2,2.2c1.8,0.8,1.9,1,1.9,1.1
			c-0.7-0.4-1.4-0.7-2.1-0.8c-0.6-0.2-1-0.6-1.4-1.1c-0.8,0.6-1.8,1-2.8,1.1l0,0c0,0.3-0.2,0.7-1,1.4c-0.4,0.3-0.6,0.8-0.6,1.2
			c0,0.7-0.3,1.4-0.8,1.9c0.4-0.6,0.5-1.2,0.4-1.9c-0.1-0.6,0.2-1.2,0.7-1.5c0.8-0.6,0.9-1,0.9-1.1l0,0c-0.5-0.1-0.9-0.4-1-0.9
			c-0.3,0.2-0.7,0.3-1.1,0.3l0,0c-0.8,0-1.4-0.6-1.6-1.3c0.4,0.6,1,0.9,1.6,1l0,0c0.3,0,0.5-0.1,0.8-0.2l0.3-0.2v-0.2
			C182,65.7,182.2,65.3,182.4,64.9L182.4,64.9z M182.4,64.6c-0.3,0-0.9,0.8-0.9,1.3c0,0.2-0.2,0.3-0.4,0.3c-0.6,0-1.2-0.4-1.6-0.8
			c-0.1-0.1-0.1-0.1-0.2-0.1c-0.2,0,0,1.6,0.9,2c0.2,0.1,0.5,0.2,0.8,0.2c0.2,0,0.4,0,0.6-0.1c0.1,0,0.3-0.1,0.4-0.1
			c0.1,0,0.2,0.1,0.2,0.2c0.1,0.5,0.6,0.5,0,1c-0.5,0.4-0.8,0.9-0.8,1.6c0,0.6-0.2,1.2-0.5,1.7c0,0.2,0.1,0.5,0.1,0.7
			c0.1,0.1,0.2,0.1,0.3,0.2c0.3,0,0.6-0.3,0.9-1c0.6-1.8,0.4-2.5,1.1-2.9s0.4-0.8,1.1-0.9c0.7-0.1,1.3-0.2,1.9-0.5l0,0
			c0.2,0,1,0.8,1.5,0.9c0.6,0,1.2,0.1,1.7,0.4c0.1,0.1,0.1,0.1,0.2,0.1c0.2,0,0.5-0.2,0.1-0.7c-0.4-0.5-1-0.8-1.6-1
			c-1.1-0.3-0.7-0.1-1.6-1.4c-0.4-0.6-0.6-0.8-0.8-0.8s-0.1,0.2-0.1,0.6c0,0.9-0.8,1.6-1.7,1.6h-0.1c-0.8,0-1.5-0.7-1.5-1.5
			c0-0.2,0-0.3,0.1-0.4C182.5,64.7,182.5,64.6,182.4,64.6L182.4,64.6z"/>
		<path class="st5" d="M182.4,64.9c-0.3,0.3-0.4,0.7-0.4,1.1v0.2l-0.3,0.2c-0.2,0.1-0.5,0.2-0.8,0.2l0,0c-0.7-0.1-1.3-0.4-1.6-1
			c0.2,0.8,0.8,1.4,1.6,1.4l0,0c0.4,0,0.8-0.1,1.1-0.3c0.1,0.5,0.5,0.8,1,0.9l0,0c0,0.1-0.1,0.5-0.9,1.1c-0.5,0.3-0.8,0.9-0.7,1.5
			c0.1,0.7,0,1.3-0.4,1.9c0.5-0.5,0.8-1.2,0.8-1.9c-0.1-0.5,0.1-1,0.6-1.2c0.9-0.6,1-1.1,1-1.4l0,0c1-0.1,2-0.5,2.8-1.1
			c0.3,0.5,0.8,0.9,1.4,1.1c0.7,0.1,1.5,0.4,2.1,0.8c-0.1-0.1-0.2-0.4-1.9-1.1c-0.9-0.4-1.7-1.3-2-2.2l0,0c0,0.4,0.1,0.7,0.3,1.1
			c-0.2,0.2-0.5,0.4-0.8,0.5c-0.6,0.4-1.2,0.6-1.9,0.6l0,0c-0.4,0-0.7-0.2-0.9-0.5c-0.2-0.3-0.3-0.6-0.3-1
			C182.1,65.4,182.2,65.1,182.4,64.9L182.4,64.9z M182.4,64.9L182.4,64.9L182.4,64.9z"/>
		<path class="st4" d="M184.6,68.1c-0.2,0-0.4,0.2-0.1,0.8c0.2,0.7,0.7,1.2,1.4,1.4c0.3,0.1,0.2,0.7,0,0.9s0,0.2,0.1,0.2
			s0.5-0.2,0.7-0.7c0.3-0.8,0.5-1.2,1-1.2c0.2,0,0.4,0.1,0.6,0.1c0.2,0.1,0.4,0.1,0.6,0.1c0.6,0,0.8-0.5,0-0.9
			c-0.4-0.2-0.9-0.4-1.4-0.4c-0.2,0-0.5,0.1-0.7,0.2c-0.3,0.3-0.5,0.4-0.7,0.4s-0.4-0.2-0.7-0.4C185.2,68.4,185,68.2,184.6,68.1
			c0.2,0.6,0.7,1.1,1.2,1.3c0.2,0.2,0.4,0.4,0.6,0.6c0-0.2,0.1-0.4,0.1-0.7c0.1-0.5,0.6-0.8,1.1-0.7l0,0c0.5,0,0.9,0.3,1.2,0.6l0,0
			c-0.4-0.1-0.8-0.2-1.2-0.3l0,0c-0.4,0-0.6,0.1-0.7,0.4c-0.1,1.3-0.7,1.4-0.8,1.4l0,0c0.2-0.1,0.2-0.1,0.3-0.3s0-0.2,0-0.3
			l-0.9-0.5c-0.5-0.3-0.8-0.8-0.9-1.3C184.6,68.3,184.6,68.2,184.6,68.1L184.6,68.1z"/>
		<path class="st5" d="M184.7,68.1c0,0.1-0.1,0.2-0.1,0.3c0.1,0.6,0.4,1,0.9,1.3l0.9,0.5c0,0.1,0,0.2,0,0.3s0,0.2-0.3,0.3l0,0
			c0.1,0,0.7,0,0.8-1.4c0.1-0.4,0.3-0.4,0.7-0.4l0,0c0.4,0,0.8,0.1,1.2,0.3c-0.3-0.4-0.7-0.6-1.2-0.6l0,0c-0.5,0-0.9,0.3-1.1,0.7
			c0,0.3-0.1,0.5-0.1,0.7c-0.2-0.2-0.4-0.4-0.6-0.6C185.3,69.2,184.9,68.7,184.7,68.1L184.7,68.1z"/>
		<path class="st4" d="M184.6,78.4c-1,0-1.8-0.4-1.9-2.1c0-0.2,0-0.5,0-0.7c-0.1-1.1,0.2-2.3,0.9-3.2c0.1-0.3,0.1-0.6,0-0.8
			c0.1,0.2,0.2,0.4,0.2,0.7c0,0.8-0.9,0.9-0.9,3.2c0,0.2,0,0.4,0,0.7c0.1,1.7,0.8,1.9,1.7,1.9l0,0c0.6,0,1.2-0.1,1.7-0.2h0.1
			c0.4,0,0.7,0.2,0.8,0.6c0.3,1.3,2.4,2.1,2.7,2.2l0,0c-0.3-0.1-2.8-0.6-3.1-2.1c0-0.2-0.1-0.2-0.5-0.3l0,0
			C186,78.3,185.4,78.4,184.6,78.4L184.6,78.4z M183.7,71.3c-0.1,0-0.3,0.1-0.2,0.2c-0.1,0.6-0.4,1.2-0.8,1.7
			c-0.4,0.6-0.3,3.2,0.1,4.3c0.4,0.8,1.2,1.3,2.1,1.3h0.2c0.3,0,0.6-0.1,0.8-0.1s0.4,0.1,0.6,0.6c0.3,0.8,1.7,1.3,3.2,1.5
			c0.2,0,0.3,0,0.5,0c0.8,0-0.1-0.4-0.7-0.6s-1.1-0.6-1.9-2.1c-0.2-0.5-0.7-0.7-1.1-0.7h-0.6c-0.2,0-0.4,0-0.6,0
			c-0.4,0-0.7-0.1-1.1-0.2c-1.5-0.7-0.9-2.6-0.2-4.3C184.6,71.6,184,71.2,183.7,71.3L183.7,71.3z"/>
		<path class="st5" d="M190,80.6L190,80.6z M183.7,71.5c0.1,0.3,0.1,0.6,0,0.8c-0.7,0.9-1,2.1-0.9,3.2c0,0.2,0,0.5,0,0.7
			c0.1,1.7,0.9,2.1,1.9,2.1h0.1c0.6,0,1.3-0.1,1.7-0.1l0,0c0.3,0,0.4,0,0.5,0.3c0.3,1.5,2.8,2,3.1,2.1c-0.2-0.1-2.4-0.8-2.7-2.2
			c-0.1-0.4-0.4-0.6-0.8-0.6h-0.1c-0.5,0-1.1,0.2-1.7,0.2l0,0c-0.9,0-1.6-0.2-1.7-1.9c0-0.2,0-0.5,0-0.7c0-2.3,0.8-2.4,0.9-3.2
			C183.9,72,183.8,71.7,183.7,71.5L183.7,71.5z"/>
		<path class="st4" d="M189.2,73.6c0,0,0.6,0.1,0.1,1.2c-0.4,0.7-0.2,1.6,0.4,2.1c0.5,0.5,0.9,0.7,0.9,0.9l0,0c0,0,0.6-0.7,0-1.4
			s-0.6-0.7-0.3-1.4s-0.4-1.1-0.9-1.3c0.3,0.3,0.5,0.6,0.5,1c0,0.3-0.1,0.5-0.3,0.7l-0.1,0.2c0,0.1,0.2,0.4,0.5,0.6
			c0.5,0.6,0.2,1,0.2,1l0,0c0-0.2-0.2-0.4-0.5-0.7s-0.6-0.5-0.6-0.9c0-0.2,0.1-0.3,0.2-0.4c0.1-0.1,0.2-0.3,0.2-0.4
			c0-0.3,0-0.7-0.1-1C189.4,73.6,189.3,73.6,189.2,73.6L189.2,73.6z"/>
		<path class="st5" d="M189.5,73.6c0.1,0.3,0.2,0.7,0.1,1c0,0.2-0.1,0.3-0.2,0.4c-0.1,0.1-0.2,0.3-0.2,0.4c0,0.4,0.4,0.6,0.6,0.9
			s0.5,0.5,0.5,0.7l0,0c0,0,0.3-0.4-0.2-1c-0.3-0.2-0.5-0.5-0.5-0.6l0.1-0.2c0.2-0.2,0.3-0.4,0.3-0.7
			C190.1,74.2,189.9,73.8,189.5,73.6L189.5,73.6z"/>
		<path class="st4" d="M189.8,69.5c-0.4,1.1,0.6,1-0.6,1.8s-2,0.9-2.1,1.3c0,0.5-0.4,0.9-0.8,1.1c-0.2,0.1-0.2,0.2-0.2,0.3
			c0.3,0,1.1-0.2,1.3-0.9c0.3-0.9,1.5-1.1,2.5-1.8c0.3-0.2,0.3-0.2,0.3-0.4c-0.1-0.4-0.2-0.8-0.3-1.2
			C189.8,69.6,189.8,69.6,189.8,69.5L189.8,69.5z M190.1,64c-0.1,0-0.1,0.1,0,0.3c0.4,0.3,0.5,0.8,0.2,1.2c-0.4,0.8-0.4,1-0.2,1.5
			c0.2,0.5,0.2,1.1,0,1.6l0,0c0.2-0.3,0.3-0.6,0.3-0.9c0-0.4-0.3-0.6-0.3-1.1c0-0.2,0.1-0.4,0.1-0.6c0.4-0.5,0.4-1.2,0-1.8l0,0
			c0.3,0.3,0.5,0.7,0.5,1.1c0,0.3-0.1,0.6-0.2,0.8c-0.1,0.1-0.1,0.3-0.1,0.5c0,0.3,0.3,0.6,0.3,1.1c0,0.4-0.1,0.7-0.4,1.1
			c-0.2,0.3-0.2,0.6-0.3,0.9c0,0.5,0.3,0.8,0.3,1.2l0,0c0.7,0.3,1.3,0.9,1.7,1.7c0.2,0.6,0.5,1.1,1,1.4c0.4,0.2,0.6,0.6,0.6,1
			c0,0.1,0,0.2,0,0.3c0,0.3,0.2,0.6,0.5,0.8c0.5,0.5,0.8,1.1,0.7,1.8c0,0.4-0.1,0.8-0.2,1.2c0,0,0.2-2-0.9-2.7
			c-0.4-0.2-0.6-0.6-0.6-1.1c0-0.1,0-0.2,0-0.3c0-0.2,0-0.4-0.4-0.7c-0.5-0.4-0.9-1-1.1-1.6c-0.3-0.6-0.8-1.2-1.4-1.4
			c-0.1,0.1-0.2,0.2-0.3,0.3c-1.1,0.7-2.2,0.9-2.4,1.6s-1.2,0.8-1.6,0.8H186c0.1,0.2,0.4,0.4,0.6,0.3c0.3,0,0.6-0.1,0.8-0.3
			c1-0.7,1.5-1.5,2.1-1.6c0.4-0.1,0.3-0.6,0.6-0.6c0.1,0,0.2,0.1,0.4,0.2c0.9,0.7,1.2,1,1.4,1.8s0.8,0.5,0.8,1.2s-0.3,0.8,0.6,1.5
			c0.9,0.6,1.4,1.6,1.3,2.7c-0.1,0.2,0,0.3,0,0.3c0.1,0,0.1,0,0.1-0.1c0.2-0.5,0.3-1,0.4-1.5c0-0.2,0-0.4-0.1-0.5
			c-0.4-1.5-0.9-1.5-1.1-2.3c-0.2-0.7-0.6-1.2-1.1-1.6c-0.6-0.5,0.1-1.7-1-2.3s-0.9-1.2-1-1.9s0.3-2.1,0.1-2.5s0.4-1.1-0.1-1.9
			C190.7,64.5,190.3,64,190.1,64L190.1,64z"/>
		<path class="st5" d="M190.3,64.3L190.3,64.3c0.4,0.5,0.4,1.2,0,1.8c-0.1,0.2-0.1,0.4-0.1,0.6c0,0.5,0.3,0.7,0.3,1.1
			c0,0.3-0.1,0.6-0.3,0.9l0,0c-0.1,0.3-0.2,0.5-0.3,0.7l0,0c0,0.1,0,0.2,0,0.2c0.1,0.4,0.2,0.8,0.3,1.2c0,0.1,0,0.2-0.3,0.4
			c-1,0.6-2.2,0.9-2.5,1.8c-0.2,0.6-1,0.8-1.3,0.9h0.1c0.4,0,1.4-0.1,1.6-0.8s1.3-0.9,2.4-1.6c0.1-0.1,0.2-0.2,0.3-0.3
			c0.6,0.3,1.1,0.8,1.4,1.4c0.2,0.6,0.6,1.2,1.1,1.6c0.4,0.3,0.4,0.4,0.4,0.7c0,0.1,0,0.2,0,0.3c0,0.4,0.2,0.9,0.6,1.1
			c1,0.7,0.9,2.7,0.9,2.7c0.1-0.4,0.1-0.7,0.1-1.1c0-0.7-0.2-1.4-0.7-1.8c-0.3-0.2-0.5-0.5-0.5-0.8c0-0.1,0-0.2,0-0.3
			c0-0.4-0.2-0.8-0.6-1c-0.5-0.4-0.8-0.9-1-1.4c-0.3-0.7-0.9-1.3-1.6-1.6l0,0c0-0.4-0.3-0.7-0.3-1.2c0-0.3,0.1-0.6,0.3-0.9
			c0.2-0.3,0.3-0.7,0.4-1.1c0-0.5-0.3-0.8-0.3-1.1c0-0.2,0-0.3,0.1-0.5c0.1-0.2,0.2-0.5,0.2-0.8C190.9,65,190.7,64.6,190.3,64.3
			L190.3,64.3z"/>
		<path class="st10" d="M195.4,77.9c-0.1,0.5-0.2,1-0.4,1.5C195.3,79,195.4,78.5,195.4,77.9z"/>
		<path class="st4" d="M191.6,67.3c0,0.2-0.1,0.6-0.1,0.9C191.6,68,191.6,67.6,191.6,67.3z M191.6,66.5
			C191.6,66.5,191.5,66.5,191.6,66.5c0.2,0.5,0.4,0.9,0.3,1.4c0,0.1,0,0.3,0,0.4v0.1c0,0.4,0.2,0.7,0.4,1c0.6,0.6,1.2,1.3,1.6,2.1
			c-0.4-0.5-0.8-1.1-1.3-1.5c-0.5-0.4-1-0.8-1.1-1.5c0,0,0,0,0,0.1c0.2,0.7,0.5,1.3,1,1.8c0.6,0.6,0.9,1.2,1.4,1.3l0,0
			c0.4,0-0.5-1.7-0.8-2.2s-0.9-0.6-0.9-1.4c0-0.5-0.1-0.9-0.3-1.3C191.7,66.6,191.6,66.5,191.6,66.5L191.6,66.5z"/>
		<path class="st5" d="M191.5,66.6c0,0.1,0,0.2,0.1,0.3c0,0.1,0,0.2,0,0.4c0,0.3,0,0.6-0.1,0.9c0,0.1,0,0.3,0,0.4
			c0.1,0.7,0.6,1.1,1.1,1.5c0.5,0.5,0.9,1,1.3,1.5c-0.4-0.8-0.9-1.5-1.6-2.1c-0.3-0.3-0.4-0.6-0.4-1v-0.1c0-0.2,0-0.3,0-0.4
			C191.9,67.5,191.8,67,191.5,66.6L191.5,66.6z"/>
		<path class="st11" d="M156.8,62.9c-0.4,0-0.7,0.3-1.8,1.3c-1.6,1.4-0.4,2.2-0.4,2.2c0.1,0.1,0.3,0.2,0.5,0.2
			c0.4,0,0.8-0.2,1.1-0.4c0.6-0.3,0.4-1,1.4-1.9c0.2-0.2,0.4-0.4,0.7-0.4c0.4,0,0.5,0.5,0.7,1c0.3,0.8,0.4,1,1.3,1.1h0.1
			c0.7,0,0.6-1.5,0.2-2c-0.1-0.2-0.3-0.3-0.4-0.3s-0.5,0.2-1.1,0.2H159c-0.8,0-0.3-0.6-1.4-0.8C157.4,63,157.1,62.9,156.8,62.9
			L156.8,62.9z"/>
		<path class="st11" d="M163.8,64.4C163.8,64.4,163.8,64.4,163.8,64.4c-0.2,0.1-0.3,0.2-0.4,0.2H163c-0.1,0-0.2,0-0.2,0.1
			s-0.2,1.1,0.3,1.1c0.1,0,0.2,0,0.3-0.1c0.9-0.5,1.4-0.9,0.9-0.9h-0.1c-0.1,0-0.3-0.1-0.4-0.2C163.8,64.5,163.8,64.4,163.8,64.4
			L163.8,64.4z"/>
		<path class="st11" d="M165.5,67c-0.8,0.2-1.5,0.5-2.1,0.9c0,0-0.6,0.2-0.4,0.8s0,2.5,0.9,2.5l0,0c1-0.1,0.6-0.6,0.4-1.3
			s-0.6-1.4,0.2-1.7s1.4-0.5,1.2-1.1C165.8,67,165.6,67,165.5,67L165.5,67z"/>
		<path class="st11" d="M158.9,71.7c-0.6,0-0.7,0.3-0.8,0.4s-0.6,0.5,0.1,1.1s0.6,1.5-0.4,1.5h-0.2h-0.4c-1,0-1.7,0.5-1.6,1.2
			s-2.2,1.7-2.2,2.8c0,0.6,0.1,1,0.4,1s0.7-0.3,1.4-1.1c1.4-1.5,0.4-2.2,1.7-2.2h0.5c0.6,0.1,1.1,0.1,1.5,0.1c1,0,1.4-0.2,1.1-1.3
			c-0.4-1.5-0.5-1.4-0.5-1.9s0.3-1.5-0.5-1.6L158.9,71.7z"/>
		<path class="st11" d="M155.7,70c-0.4,0-0.8,0.1-0.6,0.6c0.2,0.8,0.8,0.3,1.2,1c0.1,0.2,0.2,0.3,0.4,0.3c0.3,0,0.6-0.6,0.4-1
			s-0.7-0.9-1-0.9C156,70,155.8,70,155.7,70L155.7,70z"/>
		<path class="st11" d="M160.4,69.2c-0.1,0-0.1,0-0.1,0.1c0,0.4-0.2,0.7-0.6,0.9c-0.5,0.2-0.9,0.8-0.4,0.8h0.2
			c0.8-0.2,1.4-0.7,1.4-1.1C160.9,69.5,160.7,69.3,160.4,69.2L160.4,69.2z"/>
		<path class="st11" d="M161.6,71.8c-0.1,0-0.1,0-0.1,0.2c0.4,0.5,0.7,1.2,0.8,1.8c0,0.7,0.1,2.2-0.6,3.2c-0.2,0.3-0.2,0.4,0,0.4
			c0.5-0.2,0.9-0.6,1-1.2c-0.1-0.8,0-1.7,0.4-2.4c0.5-0.8,1-1.7,0.9-1.7h-0.1c-0.3,0.2-0.8,0.8-1.2,0.8c-0.1,0-0.2-0.1-0.3-0.2
			C162.2,72.3,161.8,71.8,161.6,71.8L161.6,71.8z"/>
		<path class="st11" d="M153.1,73.4c-0.1,0-0.3,0.1-0.4,0.2l0,0c-0.1,0-0.7,0-0.8,1.3s0.1,1.2-0.6,1.6s-2.1,2.4-1.6,3.3
			c0.1,0.1,0.1,0.2,0.2,0.2c0.3,0,0.2-2.1,1.2-2.4s1.3-0.2,1.5-0.9s0.4-0.6,0.4-1.3s0-0.9,0.4-1.2S153.4,73.4,153.1,73.4L153.1,73.4
			z"/>
		<path class="st11" d="M158.5,79.7c-0.2,0-0.5,0.1-0.7,0.2c-0.6,0.5-0.8,0.7-2.4,0.9s-1.7,1-1.7,1c-0.2,0.1,0.1,0.3,0.6,0.3
			c0.3,0,0.6-0.1,0.8-0.2c0.8-0.4,0.7-0.2,1.6-0.4c0.9-0.2,1.8-0.6,2.4-1.3C159.2,79.9,158.9,79.7,158.5,79.7L158.5,79.7z"/>
		<path class="st11" d="M169,51.8c-0.2,0-0.4,0-0.7,0.1c0,0-0.1,0-0.1,0c-0.1,0-0.1,0-0.2,0c-0.1,0-0.1,0-0.2,0
			c-0.2,0-0.3,0-0.4,0.1c0,0-1.4,0.4-1.2,1.6c0,0.4,0.1,0.5,0.2,0.5s0.4-0.7,1-1.1c0.7-0.5,1.1-0.3,1.5-0.5s0.7-0.2,0.7-0.4
			S169.3,51.9,169,51.8L169,51.8z"/>
		<path class="st11" d="M165.7,57.2c0,0-0.1,0-0.2,0.1c-0.8,0.4-1.2,1.5-0.7,2.3c0,0,0,0.1,0.1,0.1c0.5,0.9,0.9,1.3,1.2,1.3
			s0.4-0.3,0.3-0.8c-0.1-1.1-0.4-1.2-0.4-1.9S165.9,57.2,165.7,57.2L165.7,57.2z"/>
		<path class="st11" d="M169.4,54c-0.1,0-0.2,0.1-0.1,0.6c0.3,0.8,0.2,1.7-0.2,2.4c-0.4,0.7-0.4,1.6,0.1,2.3l0,0c0.2,0,0-1,0.3-1.9
			c0.3-1.1,0.3-2.3,0-3.4C169.5,54,169.4,54,169.4,54L169.4,54z"/>
		<path class="st11" d="M168.8,61.2c0,0-0.1,0-0.1,0.1s-0.4,0.2-0.2,1.1s-0.2,1.8,0.3,1.9l0,0c0.4,0,0.7-0.6,1-0.8s-0.5-0.7-0.3-1.4
			c0.1-0.5,0-0.7-0.1-0.7s-0.1,0.1-0.2,0.2s-0.1,0.1-0.1,0.1s-0.1-0.1-0.2-0.2S168.8,61.2,168.8,61.2L168.8,61.2z"/>
		<path class="st11" d="M162.1,52.7c-0.4,0-0.9,0.2-0.7,1.2c0.2,0.8,0.4,1.1,0.5,1.1s0.2-0.3,0.2-0.7c0-0.8-0.1-1,0.1-1.1
			s0.6-0.5,0.4-0.5h-0.1C162.4,52.7,162.2,52.7,162.1,52.7L162.1,52.7z"/>
		<path class="st11" d="M164.1,54.6c0,0-0.1,0.1-0.1,0.2c0,0.5-0.3,1-0.7,1.3c-0.8,0.6-1.4,2-1,2.5c0,0,0.1,0.1,0.1,0.1
			c0.2,0,0.3-1,0.8-1.7s0.7-0.2,0.9-1C164.2,55.4,164.2,54.7,164.1,54.6L164.1,54.6z"/>
		<path class="st11" d="M162.3,60.4c-0.3,0-0.6,0-0.6,0.2c0.2,0.4,0.6,0.7,1.1,0.8c0,0,0.1,0,0.1,0c0.1-0.2,0.6-0.9,0-1
			C162.7,60.4,162.5,60.4,162.3,60.4L162.3,60.4z"/>
		<path class="st11" d="M160.1,52.1c-0.1,0-0.2,0-0.2,0.1c0,0-1.2,0.4-1.3,1.3c-0.1,0.6,0.2,1.2,0.8,1.5c0,0,0.1,0,0.1-0.1
			c0.1-0.2-0.5-1.1,0-1.7S160.3,52.1,160.1,52.1L160.1,52.1z"/>
		<path class="st11" d="M187.1,62.9c-0.3,0-0.5,0.1-0.8,0.1c-1.1,0.2-0.6,0.8-1.4,0.8h-0.1c-0.6,0-0.9-0.2-1.1-0.2s-0.3,0.1-0.4,0.3
			c-0.4,0.6-0.5,2,0.2,2h0.1c0.9-0.2,1-0.3,1.3-1.1c0.2-0.5,0.4-1,0.7-1c0.3,0,0.5,0.2,0.7,0.4c1,0.9,0.8,1.6,1.4,1.9
			c0.3,0.2,0.7,0.4,1.1,0.4c0.2,0,0.3-0.1,0.4-0.2c0,0,1.3-0.8-0.4-2.2C187.8,63.2,187.6,62.9,187.1,62.9L187.1,62.9z"/>
		<path class="st11" d="M180.2,64.4c0,0-0.1,0.1-0.1,0.2c-0.1,0.1-0.2,0.2-0.4,0.2h-0.1c-0.5,0,0.1,0.4,0.9,0.9
			c0.1,0.1,0.2,0.1,0.3,0.1c0.5,0,0.3-1.1,0.3-1.1s-0.1-0.1-0.2-0.1h-0.4C180.5,64.5,180.4,64.5,180.2,64.4
			C180.3,64.4,180.2,64.4,180.2,64.4L180.2,64.4z"/>
		<path class="st11" d="M178.4,67c-0.1,0-0.2,0-0.3,0.2c0,0,0,0,0,0.1c0.2,0.3,0.5,0.6,0.8,0.8c0.2,0.1,0.3,0.1,0.5,0.2
			c0.5,0.2,0.5,0.6,0.4,1c0.4,0.5,0.6,1.1,0.8,1.7c0.2-0.7,0.3-1.4,0.4-2.2c0.2-0.6-0.4-0.8-0.4-0.8C179.9,67.5,179.2,67.2,178.4,67
			L178.4,67z"/>
		<path class="st11" d="M185.1,71.7h-0.2c-0.8,0.1-0.5,1.1-0.5,1.6s-0.1,0.4-0.5,1.9c-0.3,1.1,0.1,1.3,1.1,1.3c0.4,0,0.9,0,1.5-0.1
			h0.5c1.3,0,0.4,0.7,1.7,2.2c0.7,0.8,1.1,1.1,1.4,1.1s0.4-0.4,0.4-1c0-1.1-2.4-2-2.2-2.8s-0.6-1.2-1.6-1.2h-0.4h-0.2
			c-1,0-1.1-0.9-0.4-1.5s0.1-1.1,0.1-1.1S185.7,71.7,185.1,71.7L185.1,71.7z"/>
		<path class="st11" d="M188.2,70c-0.1,0-0.2,0-0.4,0c-0.3,0-0.7,0.4-1,0.9s0.1,1,0.4,1c0.1,0,0.2-0.1,0.4-0.3c0.5-0.7,1-0.2,1.2-1
			C189,70.1,188.6,70,188.2,70L188.2,70z"/>
		<path class="st11" d="M183.5,69.2c-0.3,0.1-0.5,0.3-0.5,0.6c0,0.4,0.6,1,1.4,1.1h0.2c0.5,0,0.1-0.5-0.4-0.8
			c-0.3-0.2-0.5-0.5-0.6-0.9C183.7,69.2,183.6,69.2,183.5,69.2L183.5,69.2z"/>
		<path class="st11" d="M182.3,71.8c-0.1,0-0.6,0.5-0.8,0.9c0,0.1-0.1,0.2-0.3,0.2c-0.1,0-0.3-0.1-0.4-0.1c0,0.3,0,0.7-0.1,1l0,0
			l0,0c0.4,0.8,0.5,1.6,0.4,2.4c0.1,0.6,0.5,1,1,1.2c0.1,0,0.2-0.1-0.1-0.4c-0.7-0.9-0.6-2.5-0.6-3.2c0.1-0.7,0.4-1.3,0.8-1.8
			C182.3,71.9,182.3,71.8,182.3,71.8L182.3,71.8z"/>
		<path class="st11" d="M190.8,73.4c-0.3,0-0.5,0.5-0.2,0.7s0.3,0.4,0.4,1.2s0.3,0.6,0.4,1.3s0.4,0.5,1.5,0.9
			c0.9,0.3,0.9,2.4,1.2,2.4c0,0,0.1-0.1,0.2-0.2c0.5-0.9-1-2.8-1.6-3.3s-0.5-0.3-0.6-1.6s-0.8-1.3-0.8-1.3l0,0
			C191.1,73.5,191,73.4,190.8,73.4L190.8,73.4z"/>
		<path class="st11" d="M185.5,79.7c-0.4,0-0.7,0.2-0.7,0.4l0.6,0.3c0.5,0.3,1.1,0.6,1.6,1h0.2c0.9,0.1,0.8,0,1.6,0.4
			c0.2,0.1,0.5,0.2,0.8,0.2c0.5,0,0.9-0.2,0.6-0.3c0,0-0.1-0.8-1.7-1c-0.9,0.1-1.8-0.2-2.4-0.9C186,79.7,185.7,79.6,185.5,79.7
			L185.5,79.7z"/>
		<path class="st11" d="M174.9,51.8c-0.3,0-0.5,0-0.5,0.2s0.3,0.3,0.7,0.4s0.7-0.1,1.5,0.5c0.5,0.4,0.8,1.1,1,1.1s0.1-0.1,0.2-0.5
			c0.1-1.2-1.2-1.6-1.2-1.6c-0.1-0.1-0.3-0.1-0.4-0.1c-0.1,0-0.1,0-0.2,0c-0.1,0-0.1,0-0.2,0c0,0-0.1,0-0.1,0
			C175.4,51.8,175.2,51.7,174.9,51.8L174.9,51.8z"/>
		<path class="st11" d="M178.3,57.2c-0.2,0-0.2,0.7-0.2,1.3s-0.3,0.8-0.4,1.9c-0.1,0.5,0.1,0.8,0.3,0.8s0.7-0.4,1.2-1.3
			c0.5-0.8,0.3-1.9-0.5-2.4c0,0-0.1-0.1-0.1-0.1C178.4,57.3,178.3,57.2,178.3,57.2L178.3,57.2z"/>
		<path class="st11" d="M174.6,54c0,0-0.1,0-0.1,0c-0.3,1.1-0.3,2.3,0,3.4c0.3,0.9,0.1,1.9,0.3,1.9c0,0,0,0,0.1,0
			c0.4-0.7,0.5-1.6,0.1-2.3c-0.4-0.7-0.5-1.6-0.2-2.4C174.8,54.1,174.7,54,174.6,54L174.6,54z"/>
		<path class="st11" d="M175.2,61.2c-0.1,0-0.1,0.1-0.2,0.2s-0.1,0.2-0.2,0.2s0,0-0.1-0.1s-0.1-0.2-0.2-0.2s-0.2,0.2-0.1,0.7
			c0.2,0.6-0.5,1.1-0.4,1.3c0.5,0.2,0.9,0.4,1.3,0.7c0.1-0.3-0.1-1,0.1-1.8c0.2-1-0.2-1.1-0.2-1.1S175.2,61.2,175.2,61.2z"/>
		<path class="st11" d="M181.9,52.7c-0.2,0-0.3,0-0.5,0.1h-0.1c-0.2,0,0.1,0.4,0.4,0.5s0.1,0.3,0.1,1.1c0,0.4,0.1,0.7,0.2,0.7
			s0.3-0.3,0.5-1.1C182.8,52.9,182.3,52.7,181.9,52.7L181.9,52.7z"/>
		<path class="st11" d="M179.9,54.6c-0.1,0-0.2,0.7,0,1.4c0.2,0.8,0.2,0.3,0.9,1s0.6,1.7,0.8,1.7c0.1,0,0.1,0,0.1-0.1
			c0.4-0.4-0.2-1.9-1-2.5c-0.5-0.3-0.7-0.8-0.7-1.3C180,54.7,179.9,54.6,179.9,54.6L179.9,54.6z"/>
		<path class="st11" d="M181.6,60.4c-0.2,0-0.4,0-0.6,0c-0.6,0.1-0.2,0.8,0,1s0,0,0.1,0c0.3,0,1-0.5,1.1-0.8S182,60.4,181.6,60.4
			L181.6,60.4z"/>
		<path class="st11" d="M183.9,52.1c-0.3,0,0.2,0.6,0.6,1.1s-0.1,1.5,0,1.7c0,0,0,0.1,0.1,0.1c0.6-0.3,0.9-0.8,0.8-1.5
			c-0.1-0.9-1.3-1.3-1.3-1.3C184,52.2,183.9,52.1,183.9,52.1L183.9,52.1z"/>
		<path class="st0" d="M190.4,84c-6.7-4.3-11.1-1.4-13.5,2.4s-2.1,6.2-4.6,5.9s-2.2-3.8-5.2-8c-2-2.8-6.3-2.8-8.8-2.5
			c-1,0.5-2,1-2.9,1.5c-3.8,2-3.1,4.1-3.1,4.1c0.8,2.1,2.6,3.7,4.8,4.3c3.8,1.2,21.7,6.1,34.1-4.3C192.3,86.5,191.8,85.2,190.4,84
			L190.4,84z"/>
		<path class="st12" d="M171.4,94.1c-4.9,0-9.8-0.8-14.5-2.2c-2.2-0.6-4-2.2-4.9-4.4c0-0.2-0.1-0.3-0.1-0.5c0-0.8,0.4-2.3,3.2-3.8
			l2.9-1.5l0,0l0,0c0.7-0.1,1.4-0.1,2.1-0.1c2.4,0,5.2,0.5,6.8,2.7c1.2,1.7,2.1,3.5,2.9,5.4c0.6,1.4,1.2,2.3,2.3,2.4h0.4
			c0.9,0,1.3-0.4,1.8-1.4c0.6-1.5,1.4-3,2.2-4.4c1.6-2.5,4-4.6,7.4-4.6c2.3,0.1,4.5,0.8,6.4,2.2l-0.1,0.2l-0.2,0.1l0.2-0.1l0.1-0.2
			l0,0c0.8,0.6,1.4,1.4,1.5,2.4c0,0.5-0.3,1-0.7,1.3C185.2,92.7,177.8,94.1,171.4,94.1L171.4,94.1z M155.4,83.6
			c-2.7,1.4-3,2.8-3,3.5c0,0.1,0,0.3,0,0.4c0.2,0.6,0.5,1.2,0.9,1.7c0.9,1.2,2.3,2.1,3.7,2.5c4.7,1.4,9.5,2.1,14.3,2.2
			c6.3,0,13.6-1.4,19.6-6.4c0.4-0.2,0.6-0.6,0.6-1.1c-0.2-0.9-0.6-1.6-1.3-2.1c-1.8-1.3-3.9-2-6.1-2.1c-3.2,0-5.5,2-7,4.4
			c-0.8,1.4-1.6,2.9-2.2,4.4c-0.5,1-1,1.7-2.2,1.7h-0.4c-1.4-0.2-2-1.2-2.6-2.6c-0.7-1.9-1.6-3.7-2.8-5.4c-1.5-2-4.1-2.5-6.5-2.5
			c-0.7,0-1.3,0-2,0.1c-1,0.5-2,1-2.9,1.5L155.4,83.6z"/>
		<path class="st13" d="M167,84.4c3,4.1,2.8,7.7,5.3,7.9s2.1-2,4.6-5.9s6.8-6.7,13.5-2.4c-2.6-2.4-8-4.8-8.8-5.6
			c-1.1-1.1-1.6-0.9-1-4.7s-2.2-5.5-3.6-7.5s-3-3-4.6-2.8S170,64.3,167,68s-1.4,7.2-1.8,9c-0.3,1.4-3.7,3.2-6.9,4.9
			C160.7,81.6,165,81.6,167,84.4L167,84.4z"/>
		<path class="st12" d="M172.6,92.5h-0.4c-1.4-0.2-2-1.2-2.6-2.6c-0.7-1.9-1.6-3.7-2.8-5.4l0.2-0.1l0.2-0.1c1.2,1.7,2.1,3.5,2.8,5.4
			c0.6,1.4,1.2,2.3,2.3,2.4h0.3c0.9,0,1.3-0.4,1.8-1.4c0.6-1.5,1.4-3,2.2-4.4c1.6-2.5,4-4.6,7.4-4.6c1.5,0,3,0.4,4.3,1
			c-1-0.7-2.2-1.4-3.2-2c-1.3-0.7-2.5-1.4-3.7-2.2c-0.8-0.7-1.3-1-1.3-2.3c0-0.8,0.1-1.7,0.3-2.5c0.1-0.3,0.1-0.7,0.1-1
			c0-3-2.3-4.6-3.6-6.4s-2.7-2.8-4.1-2.7h-0.3c-1.5,0.1-2.3,0.8-5.4,4.4c-1.3,1.5-1.9,3.4-1.9,5.3c0,1.1,0.1,2,0.1,2.8
			c0,0.3,0,0.5-0.1,0.8c-0.4,1.4-3.2,3-6.2,4.6c0.4,0,0.8,0,1.2,0c2.4,0,5.2,0.5,6.8,2.7l-0.2,0.1l-0.2,0.1c-1.5-2-4.1-2.5-6.5-2.5
			c-0.7,0-1.4,0-2.1,0.1l-0.1-0.3c3.3-1.6,6.6-3.5,6.8-4.8c0-0.2,0.1-0.5,0.1-0.8c0-0.8-0.1-1.7-0.1-2.8c0-2,0.7-4,2-5.5
			c3-3.7,3.9-4.4,5.6-4.6h0.3c1.6,0,3.1,1.1,4.4,2.9s3.7,3.4,3.7,6.6c0,0.3,0,0.7-0.1,1c-0.1,0.8-0.2,1.6-0.2,2.5
			c0,1.2,0.3,1.2,1.2,2.1c1.2,0.8,2.4,1.5,3.6,2.1c1.8,1,3.5,2.1,5.1,3.4l-0.3,0.3c-1.8-1.3-3.9-2-6.2-2.1c-3.2,0-5.5,2-7,4.4
			c-0.8,1.4-1.6,2.9-2.2,4.4c-0.5,1-1,1.7-2.2,1.7L172.6,92.5z"/>
		<path class="st14" d="M171.6,88.4c-1.9,0-1.8-5.1-4.2-6.7c-2.7-1.9-1.4-2,0.4-2.4s1.5-0.7-0.4-2.5s0.5-3.3,0.3-5.5s2-2.4,1.9-3.7
			s2.1-2.2,2.1-2.2c0.2-0.1,0.5-0.2,0.8-0.2c2,0,3.7,3.8,4.5,5.7c0.9,2.1,2.6,4.7,0.6,5.9s-2.8,2.7-0.4,2.7h0.7
			c2.6,0,4.2,1.7,1.2,2.4s-3.4,4.3-6.4,6.2C172.3,88.3,172,88.4,171.6,88.4L171.6,88.4z M172.8,63.6h-0.3c-1.5,0.1-2.3,0.8-5.4,4.4
			c-1.3,1.5-1.9,3.4-1.9,5.3c0,1.1,0.1,2,0.1,2.8c0,0.3,0,0.5-0.1,0.8c-0.3,1.3-2.7,2.7-5.4,4.1c0.2,0,0.4,0,0.7,0l0,0
			c3.4,0,6.5,1.8,8.2,4.7c1,1.6,2.1,3,3.5,4.4c0.4,0.4,0.7,0.8,0.9,1.3c0.3-0.8,0.9-1.2,1.9-2.3c0.4-1,0.9-2,1.5-2.9
			c1.3-2.3,3.4-3.9,5.9-4.5c1-0.3,2-0.5,3-0.5c0.2,0,0.5,0,0.7,0c-0.4-0.2-0.7-0.4-1.1-0.6c-1.3-0.7-2.5-1.4-3.7-2.2
			c-0.8-0.7-1.3-1-1.3-2.3c0-0.8,0.1-1.7,0.3-2.5c0.1-0.3,0.1-0.7,0.1-1c0-3-2.3-4.6-3.6-6.4S174.2,63.6,172.8,63.6L172.8,63.6z"/>
		<path class="st15" d="M182.6,81.8c-2.5,0.6-4.7,2.2-5.9,4.5c-0.6,0.9-1.1,1.9-1.5,2.9l0.5-0.6c0.4-0.8,0.8-1.5,1.2-2.2
			c1-1.7,2.5-3.1,4.3-4C181.6,82.1,182.1,81.9,182.6,81.8L182.6,81.8z M172.8,63.4h-0.3c-1.6,0.2-2.5,0.8-5.5,4.5s-1.4,7.2-1.8,9
			c-0.3,1.2-2.8,2.7-5.6,4.2h0.5c2.7-1.4,5-2.8,5.4-4.1c0-0.3,0.1-0.5,0.1-0.8c0-0.8-0.1-1.8-0.1-2.8c-0.1-1.9,0.6-3.8,1.9-5.3
			c3.1-3.7,3.9-4.3,5.4-4.4h0.3c1.4,0,2.8,0.9,4.1,2.7s3.6,3.4,3.6,6.4c0,0.3,0,0.7-0.1,1c-0.1,0.8-0.2,1.7-0.3,2.5
			c0,1.3,0.5,1.6,1.3,2.3c1.2,0.8,2.5,1.5,3.7,2.2c0.4,0.2,0.7,0.4,1.1,0.6c0.1,0,0.3,0,0.4,0c-2.3-1.4-4.7-2.5-5.1-3
			c-1.1-1.1-1.6-0.9-1-4.7s-2.2-5.5-3.6-7.5S174.3,63.4,172.8,63.4L172.8,63.4z"/>
		<path class="st16" d="M168.7,86.2c-2.3-2.1-5-3.7-7.9-4.7l0.1-0.3c3,1,5.7,2.7,8,4.8L168.7,86.2L168.7,86.2z"/>
		<path class="st17" d="M170.1,97.2c-1.6,0.1-3.2,0-4.8-0.3c-2-0.3-3.9-0.8-5.7-1.7c-1-0.5-2-1.2-2.8-2c-4.5-4.5-3.2-9.8,0.1-11.1
			c4.4-1.9,9.4-0.2,11.8,3.9c3.4,5.3,4.6,4.2,4.5,7.2c0,1.3-0.2,2.8-1.6,3.5C171.1,97,170.6,97.2,170.1,97.2L170.1,97.2z"/>
		<path class="st18" d="M170.4,94.8l-0.5,0.3c0.8,0.3,1.6,0.5,2.4,0.7l0.1-0.2C171.8,95.3,171.1,95,170.4,94.8L170.4,94.8z
			 M170.8,94.6l-0.2,0.2c0.6,0.2,1.3,0.5,2,0.7c0,0,0.1-0.1,0.1-0.1C172,95.1,171.4,94.8,170.8,94.6L170.8,94.6z M171.2,94.3
			c-0.1,0.1-0.2,0.2-0.3,0.3c0.6,0.2,1.2,0.5,1.8,0.7c0.1-0.1,0.1-0.3,0.1-0.4C172.2,94.7,171.7,94.5,171.2,94.3z M171.5,94
			l-0.3,0.2c0.5,0.2,1,0.4,1.5,0.5c0-0.1,0-0.1,0.1-0.2L171.5,94L171.5,94z M171.8,93.6c-0.1,0.1-0.1,0.2-0.2,0.3
			c0.4,0.2,0.9,0.4,1.3,0.5c0-0.1,0-0.2,0-0.3C172.5,94,172.1,93.8,171.8,93.6L171.8,93.6z M171.9,93.3c0,0.1-0.1,0.1-0.1,0.2
			l1.1,0.5c0-0.1,0-0.1,0-0.2C172.6,93.7,172.2,93.5,171.9,93.3L171.9,93.3z M172,93c0,0.1,0,0.1-0.1,0.2c0.3,0.2,0.7,0.3,1,0.5
			v-0.1C172.7,93.4,172.3,93.2,172,93L172,93z M172,92.5c0,0.1,0,0.2,0,0.4l0.9,0.6v-0.2L172,92.5L172,92.5z M167.9,90.2l0.2,0.1
			L167.9,90.2z M166.8,88.6c0.2,0.4,0.5,0.9,0.8,1.2l1.1,0.8l1.6,0.5C169.1,90.2,167.9,89.4,166.8,88.6z M166.3,87.6
			c0.1,0.2,0.2,0.3,0.3,0.5l0.1,0.3c1.2,0.9,2.5,1.8,3.7,2.8c0.6,0.2,1.2,0.6,1.5,1.2l1,0.9c0,0,0-0.1,0-0.1V93
			C170.8,91.1,168.6,89.3,166.3,87.6L166.3,87.6z M165.7,86.6c0.2,0.3,0.4,0.6,0.6,0.9c2.4,1.7,4.6,3.5,6.8,5.4c0-0.1,0-0.2,0-0.3
			C170.7,90.4,168.3,88.4,165.7,86.6L165.7,86.6z M164.9,85.6c0.2,0.2,0.4,0.5,0.6,0.8c2.7,1.8,5.1,3.8,7.5,6.1c0-0.1,0-0.2,0-0.4
			C170.6,89.6,167.9,87.5,164.9,85.6L164.9,85.6z M162.8,83.7c0.7,0.4,1.3,1,1.9,1.6c3,1.9,5.7,4.1,8.2,6.6
			c-0.1-0.3-0.2-0.5-0.3-0.8C169.6,88.3,166.3,85.8,162.8,83.7z M155.3,83.5c-0.8,1-1.2,2.2-1.1,3.5c0.1,2.3,1.2,4.5,2.9,6.1
			c0.8,0.8,1.7,1.5,2.8,2c1.8,0.9,3.7,1.5,5.6,1.7c1.2,0.2,2.3,0.3,3.5,0.4c0.4,0,0.8,0,1.2-0.1c0.5-0.1,1-0.3,1.5-0.5
			c0.3-0.2,0.6-0.4,0.8-0.7c-0.9-0.2-1.7-0.4-2.4-0.7c-0.2,0.1-0.3,0.2-0.5,0.2c-0.8,0.4-1.7,0.5-2.6,0.5c-2-0.1-4-0.6-5.9-1.6
			c-4.2-3.7-4.9-6.7-4.2-8.6C156.2,85,155.7,84.3,155.3,83.5L155.3,83.5z M155.6,83.1c-0.1,0.1-0.2,0.2-0.3,0.3
			c0.4,0.8,0.9,1.5,1.4,2.2c0-0.1,0.1-0.2,0.1-0.3C156.4,84.6,155.9,83.9,155.6,83.1z M155.8,82.9l-0.1,0.1c0.4,0.7,0.8,1.4,1.3,2.1
			c0.1-0.1,0.2-0.3,0.2-0.4C156.7,84.2,156.2,83.6,155.8,82.9L155.8,82.9z M156,82.8l-0.1,0.1c0.4,0.6,0.9,1.2,1.4,1.8l0.2-0.3
			C156.7,83.5,156.2,82.9,156,82.8L156,82.8z M156.3,82.6c-0.1,0-0.1,0.1-0.2,0.1c0.1,0.2,0.6,0.8,1.4,1.6l0.2-0.2
			C157,83.3,156.5,82.7,156.3,82.6z M156.5,82.5L156.5,82.5c0.1,0.2,0.6,0.7,1.3,1.5c0.1-0.1,0.1-0.1,0.2-0.2
			C157.2,83.1,156.6,82.6,156.5,82.5L156.5,82.5z M156.8,82.3l-0.3,0.1c0.2,0.2,0.7,0.7,1.5,1.4c0.1-0.1,0.2-0.2,0.3-0.2
			C157.6,83,157.1,82.5,156.8,82.3z M157,82.3L157,82.3c0.3,0.2,0.8,0.7,1.5,1.3l0.2-0.1C157.9,82.9,157.3,82.5,157,82.3L157,82.3z
			 M157.2,82.2L157.2,82.2l1.5,1.2l0.2-0.1C158,82.7,157.4,82.3,157.2,82.2L157.2,82.2z M157.4,82.1l-0.2,0.1l1.7,1l0.3-0.1
			C158.3,82.5,157.6,82.2,157.4,82.1L157.4,82.1z M157.9,82l-0.3,0.1c0.3,0.2,0.9,0.5,1.8,1l0.4-0.1C158.9,82.4,158.2,82.1,157.9,82
			L157.9,82z M158.3,81.9l-0.2,0.1c0.3,0.2,1,0.5,2,1h0.4h0.1C159.4,82.3,158.6,82,158.3,81.9L158.3,81.9z M158.9,81.7l-0.5,0.1
			c0.4,0.2,1.1,0.5,2.2,1.1c0.7,0.1,1.4,0.4,2,0.7C161.4,82.9,160.2,82.3,158.9,81.7z M160.7,81.6L160.7,81.6c-0.5,0-1.1,0-1.6,0.1
			c1.2,0.5,6.4,2.9,13.1,9c0-0.1-0.1-0.1-0.1-0.1c-1.3-1.3-2.5-2.8-3.5-4.4C166.9,83.3,163.9,81.6,160.7,81.6L160.7,81.6z"/>
		<path class="st19" d="M154.2,85.1h0.1c0.5,1.9,1.4,3.6,2.8,5c2.3,2.7,6.5,5.6,14,6.7v0.1C156.1,94.7,154.2,85.2,154.2,85.1z"/>
		<path class="st19" d="M154,86.1h0.1c0.4,1.8,1.4,3.4,2.6,4.7c2.2,2.5,6.4,5.2,13.9,6.2v0.1C155.5,95.1,154,86.2,154,86.1z"/>
		<path class="st19" d="M154,88.4h0.1c0.6,1.4,1.5,2.5,2.6,3.5c2.1,1.9,5.9,4.1,12.5,5.4v0.1C155.9,94.8,154,88.4,154,88.4z"/>
		<path class="st19" d="M154.9,90.8h0.1c0.5,0.8,1.2,1.5,2,2.1c2.8,2,5.9,3.4,9.1,4.2v0.1C156.5,94.3,154.9,90.8,154.9,90.8z"/>
		<path class="st19" d="M156.8,89.1c-1.2-1.4-2-3-2.3-4.9h0.1C154.9,86.1,155.7,87.7,156.8,89.1c2.2,2.6,6.5,5.6,14.8,7.4v0.1
			C163.3,94.9,159,91.8,156.8,89.1z"/>
		<path class="st19" d="M154.7,83.8h0.1c0.5,1.9,1.5,3.6,2.8,5.1c2.4,2.7,6.7,5.9,14.4,7.4v0.1C156.5,93.2,154.7,83.8,154.7,83.8z"
			/>
		<path class="st19" d="M155,83.4h0.1c0.8,1.9,1.9,3.7,3.3,5.2c2.5,2.8,6.8,5.9,13.8,7.5v0.1C158.2,93,155,83.4,155,83.4z"/>
		<path class="st19" d="M155.1,83.2h0.1c1,1.9,2.3,3.6,3.9,5.2c3.7,3.7,8.3,6.3,13.4,7.4v0.1C159.8,92.9,155.1,83.3,155.1,83.2
			L155.1,83.2z"/>
		<path class="st19" d="M155.5,82.9h0.1c0.8,1.7,1.9,3.3,3.3,4.6c2.5,2.6,6.8,5.7,13.8,8v0.1C158.8,91.1,155.6,83.1,155.5,82.9
			L155.5,82.9z"/>
		<path class="st19" d="M155.6,82.7h0.1c1.2,1.7,2.5,3.3,4.1,4.7c3.7,3.5,8.2,6.2,13,7.9l-0.1,0.1C160.8,91.1,155.7,82.8,155.6,82.7
			L155.6,82.7z"/>
		<path class="st19" d="M156,82.7L156,82.7c1.6,1.7,3.3,3.4,5.1,4.9c3.1,2.7,7.3,5.7,11.9,7.1v0.1C163.7,92,156,82.8,156,82.7z"/>
		<path class="st19" d="M156.2,82.5L156.2,82.5c1.6,1.6,3.1,3.1,4.8,4.5c3.5,3.1,7.6,5.7,11.9,7.5l-0.1,0.1
			C163.4,90.8,156.3,82.6,156.2,82.5L156.2,82.5z"/>
		<path class="st19" d="M156.4,82.4L156.4,82.4c0.1-0.1,2.2,2,5.3,4.5c3.5,2.9,7.3,5.3,11.4,7.2v0.1
			C164.9,90.8,156.5,82.4,156.4,82.4L156.4,82.4z"/>
		<path class="st19" d="M156.6,82.1L156.6,82.1L156.6,82.1c0.1-0.1,2.3,1.9,5.5,4.4c3.4,2.8,7.1,5.2,11,7.3l-0.1,0.1
			C165.5,90.2,156.6,82.1,156.6,82.1L156.6,82.1z"/>
		<path class="st19" d="M162.6,85.6c-3.2-2.1-5.5-3.5-5.5-3.5l0.1-0.1c5.6,3.4,11,7.2,16.1,11.4l-0.1,0.1
			C169.8,90.7,166.2,88.1,162.6,85.6z"/>
		<path class="st19" d="M156.8,82.1L156.8,82.1c0.1-0.1,2.8,1.9,6.2,4.4s7.4,5.3,10.1,7.1l-0.1,0.1
			C167.7,90.2,156.9,82.2,156.8,82.1z"/>
		<path class="st19" d="M162.5,85c-3-1.9-5.1-3-5.1-3l0.1-0.1c5.7,3.1,11,6.8,15.8,11.2l-0.1,0.1C169.8,90.1,166.3,87.4,162.5,85z"
			/>
		<path class="st19" d="M162.8,84.6c-1.6-1-3.3-2-5-2.8v-0.1c5.7,2.9,10.9,6.6,15.5,11h-0.1C170,89.7,166.5,87,162.8,84.6
			L162.8,84.6z"/>
		<path class="st19" d="M163.1,84.4c-1.6-1-3.2-1.9-4.9-2.7v-0.1c5.6,2.6,10.6,6.2,15,10.5l-0.1,0.1
			C170.1,89.2,166.7,86.6,163.1,84.4L163.1,84.4z"/>
		<path class="st19" d="M162.7,83.7c-1.3-0.8-2.6-1.5-4-2.1v-0.1c0,0,6,2.3,14,9.7l-0.1,0.1C169.6,88.4,166.2,85.9,162.7,83.7
			L162.7,83.7z"/>
		<path class="st19" d="M163,83.2c-1.1-0.7-2.3-1.2-3.5-1.7v-0.1c0,0,5.5,1.9,11.7,8l-0.1,0.1C168.7,87.1,166,85,163,83.2z"/>
		<path class="st19" d="M160,81.5L160,81.5L160,81.5c3.7,1.1,7.1,3.2,9.7,6.1l-0.1,0.1C167,84.7,163.7,82.6,160,81.5z"/>
		<path class="st20" d="M165.3,97.1c-2-0.3-4-0.8-5.8-1.8c-1.1-0.5-2-1.2-2.9-2.1c-1.8-1.6-2.8-3.9-2.9-6.3c-0.1-2.1,1.1-4.1,3.1-5
			c1.2-0.5,2.6-0.7,3.9-0.7c3.4,0,6.5,1.8,8.2,4.7c1,1.6,2.1,3,3.5,4.4c0.8,0.7,1.2,1.7,1.1,2.7v0.2c0,1.3-0.2,2.8-1.7,3.7
			c-0.5,0.3-1.1,0.5-1.6,0.6c-0.4,0.1-0.8,0.1-1.2,0.1c-1.2,0-2.4-0.2-3.6-0.4V97.1z M157,82.2c-1.9,0.8-3,2.7-2.9,4.8
			c0.1,2.3,1.2,4.5,2.9,6.1c0.8,0.8,1.7,1.5,2.8,2c1.8,0.9,3.7,1.5,5.6,1.7c1.2,0.2,2.3,0.3,3.5,0.4c0.4,0,0.8,0,1.2-0.1
			c0.5-0.1,1-0.3,1.5-0.5c1.2-0.7,1.4-2.1,1.5-3.4V93c0.1-0.9-0.3-1.8-1-2.4c-1.3-1.3-2.5-2.8-3.5-4.4c-1.6-2.8-4.6-4.5-7.8-4.5l0,0
			C159.4,81.5,158.1,81.8,157,82.2L157,82.2z"/>
		<path class="st17" d="M176.1,97.2c1.6,0.1,3.2,0,4.8-0.3c2-0.3,3.9-0.8,5.7-1.7c1-0.5,2-1.2,2.8-2c4.5-4.5,3.2-9.8,0-11.1
			c-4.4-1.9-9.5-0.2-11.9,3.9c-3.4,5.3-4.6,4.2-4.5,7.2c0,1.3,0.2,2.8,1.6,3.5C175.1,97,175.6,97.2,176.1,97.2L176.1,97.2z"/>
		<path class="st18" d="M179.5,95.9c-0.9,0-1.8-0.2-2.6-0.5c-3.6-1.6-3.4-3.5-1-4.3s2.4-0.4,3.7-3s3.5-4.9,6-5.2h0.3
			c2.6,0,7.6,4.3-0.5,11.4C183.6,95.3,181.6,95.8,179.5,95.9L179.5,95.9z M185.5,81.3c-3.3,0-6.4,1.8-8,4.6
			c-0.6,0.9-1.2,1.8-1.9,2.7l-0.5,0.6c-1,1.1-1.6,1.6-1.9,2.3c-0.1,0.4-0.2,0.9-0.2,1.4v0.2c0,1.3,0.2,2.8,1.6,3.5
			c0.5,0.3,1,0.5,1.6,0.6c0.4,0.1,0.8,0.1,1.2,0.1c1.2,0,2.4-0.2,3.6-0.4c2-0.3,3.9-0.8,5.7-1.7c1-0.5,2-1.2,2.8-2
			c1.8-1.6,2.8-3.9,2.9-6.2l0,0c0-0.1,0-0.3,0-0.4c-0.1-1.5-0.7-2.9-1.8-3.8c-0.2-0.2-0.5-0.3-0.7-0.5l-0.4-0.2
			c-0.9-0.3-1.7-0.5-2.6-0.7c-0.1,0-0.3,0-0.4,0S185.8,81.4,185.5,81.3L185.5,81.3z"/>
		<path class="st19" d="M192,85.1c0,0.1-1.9,9.6-16.8,11.8v-0.1c7.5-1.1,11.7-4,14-6.7C190.5,88.7,191.4,87,192,85.1L192,85.1z"/>
		<path class="st19" d="M192.3,86.1c0,0.1-1.6,8.9-16.7,11v-0.1c7.6-1,11.7-3.8,13.9-6.2C190.8,89.5,191.7,87.9,192.3,86.1
			L192.3,86.1z"/>
		<path class="st19" d="M192.2,88.4h-0.1c-0.6,1.4-1.5,2.5-2.6,3.5c-2.1,1.9-5.9,4.1-12.5,5.4v0.1C190.3,94.8,192.2,88.4,192.2,88.4
			z"/>
		<path class="st19" d="M191.3,90.8h-0.1c-0.5,0.8-1.2,1.5-2,2.1c-2.8,2-5.9,3.4-9.1,4.2v0.1C189.7,94.3,191.3,90.8,191.3,90.8z"/>
		<path class="st19" d="M189.4,89.1c1.2-1.4,2-3,2.3-4.9h-0.1C191.3,86.1,190.5,87.7,189.4,89.1c-2.2,2.6-6.5,5.6-14.8,7.4v0.1
			C182.9,94.9,187.2,91.8,189.4,89.1z"/>
		<path class="st19" d="M191.5,83.8h-0.1c-0.5,1.9-1.5,3.6-2.8,5.1c-2.4,2.7-6.7,5.9-14.4,7.4v0.1C189.7,93.2,191.5,83.8,191.5,83.8
			z"/>
		<path class="st19" d="M191.2,83.4h-0.1c-0.8,1.9-1.9,3.7-3.3,5.2c-2.5,2.8-6.8,5.9-13.8,7.5v0.1C188,93,191.2,83.4,191.2,83.4z"/>
		<path class="st19" d="M191.1,83.2H191c-1,1.9-2.3,3.6-3.9,5.2c-3.7,3.7-8.3,6.3-13.4,7.4v0.1C186.5,92.8,191.1,83.2,191.1,83.2z"
			/>
		<path class="st19" d="M190.7,82.9c0,0.1-3.2,8.2-17.1,12.6v-0.1c7-2.2,11.2-5.4,13.8-8C188.7,86.1,189.9,84.6,190.7,82.9
			L190.7,82.9z"/>
		<path class="st19" d="M190.6,82.7h-0.1c-1.1,1.7-2.5,3.3-4,4.7c-3.7,3.5-8.2,6.2-13,7.9v0.1C185.4,91.1,190.6,82.7,190.6,82.7z"/>
		<path class="st19" d="M190.3,82.7c-0.1,0.1-7.7,9.3-16.9,12.2v-0.1c4.4-1.5,8.5-4,11.9-7.1C187,86.1,188.7,84.4,190.3,82.7
			L190.3,82.7z"/>
		<path class="st19" d="M190,82.5c-0.1,0.1-7.2,8.3-16.7,12.1l-0.1-0.1c4.4-1.8,8.4-4.3,11.9-7.5c1.7-1.4,3.3-3,4.8-4.6L190,82.5z"
			/>
		<path class="st19" d="M189.8,82.4L189.8,82.4c-0.1-0.1-2.2,2-5.3,4.5c-3.5,2.9-7.3,5.3-11.4,7.2l0.1,0.1
			C181.4,90.8,189.8,82.4,189.8,82.4z"/>
		<path class="st19" d="M189.6,82.1L189.6,82.1L189.6,82.1c-0.1-0.1-2.3,1.9-5.5,4.4c-3.4,2.8-7.1,5.2-11,7.3l0.1,0.1
			C180.7,90.2,189.6,82.1,189.6,82.1z"/>
		<path class="st19" d="M183.6,85.6c3.2-2.1,5.5-3.5,5.5-3.5l-0.1-0.1c-5.6,3.4-11,7.2-16.1,11.4l0.1,0.1
			C176.4,90.7,180,88.1,183.6,85.6z"/>
		<path class="st19" d="M189.4,82.1c-0.1,0.1-10.9,8.2-16.2,11.6l-0.1-0.1c2.7-1.7,6.7-4.6,10.1-7.1S189.3,82,189.4,82.1L189.4,82.1
			z"/>
		<path class="st19" d="M183.7,85c3-1.9,5.1-3,5.1-3l-0.1-0.1c-5.7,3.1-11,6.8-15.8,11.2l0.1,0.1C176.4,90.1,179.9,87.4,183.7,85z"
			/>
		<path class="st19" d="M183.5,84.6c1.6-1,3.3-2,5-2.8l-0.1-0.1c-5.7,2.9-10.8,6.6-15.4,10.9h0.1C176.3,89.7,179.7,87,183.5,84.6z"
			/>
		<path class="st19" d="M183.1,84.4c-3.6,2.2-7,4.8-10,7.9l-0.1-0.1c4.4-4.3,9.4-7.9,15-10.5v0.1C186.4,82.5,184.7,83.4,183.1,84.4z
			"/>
		<path class="st19" d="M183.5,83.7c1.3-0.8,2.6-1.5,4-2.1v-0.1c0,0-6,2.3-14,9.7l0.1,0.1C176.6,88.4,179.9,85.9,183.5,83.7z"/>
		<path class="st19" d="M183.2,83.2c-3,1.7-5.7,3.9-8.1,6.3l-0.1-0.1c6.2-6.1,11.7-8,11.7-8v0.1C185.5,82,184.3,82.6,183.2,83.2z"/>
		<path class="st19" d="M186.2,81.5L186.2,81.5L186.2,81.5c-3.7,1.1-7.1,3.2-9.7,6.1l0.1,0.1C179.2,84.7,182.5,82.6,186.2,81.5z"/>
		<path class="st20" d="M180.9,97.1c-1.2,0.2-2.4,0.3-3.6,0.4c-0.4,0-0.8,0-1.2-0.1c-0.6-0.1-1.1-0.3-1.6-0.6
			c-1.4-0.9-1.6-2.4-1.7-3.7v-0.2c-0.1-1,0.3-2,1.1-2.7c1.3-1.3,2.5-2.8,3.4-4.4c1.7-2.9,4.8-4.7,8.2-4.7c1.3,0,2.7,0.3,3.9,0.7
			c2,0.9,3.2,2.9,3.1,5c-0.1,2.4-1.2,4.7-2.9,6.4c-0.8,0.8-1.8,1.5-2.9,2.1C184.9,96.2,183,96.9,180.9,97.1z M189.3,82.2
			c-1.2-0.5-2.4-0.7-3.7-0.7l0,0c-3.2,0-6.2,1.7-7.9,4.5c-1,1.6-2.2,3.1-3.5,4.4c-0.7,0.6-1.1,1.5-1,2.4v0.2c0,1.3,0.2,2.7,1.5,3.4
			c0.5,0.3,1,0.4,1.5,0.5c0.4,0.1,0.8,0.1,1.2,0.1c1.2-0.1,2.4-0.2,3.5-0.4c2-0.3,3.9-0.8,5.6-1.7c1-0.5,2-1.2,2.8-2
			c1.7-1.6,2.7-3.7,2.9-6C192.2,85,191.1,83.1,189.3,82.2z"/>
	</g>
</g>
</svg>
