<?xml version="1.0" encoding="utf-8"?>
<!-- Generator: Adobe Illustrator 26.0.3, SVG Export Plug-In . SVG Version: 6.00 Build 0)  -->
<svg version="1.1" id="Layer_1" xmlns="http://www.w3.org/2000/svg" xmlns:xlink="http://www.w3.org/1999/xlink" x="0px" y="0px"
	 viewBox="0 0 342 788" style="enable-background:new 0 0 342 788;" xml:space="preserve">
<style type="text/css">
	.st0{fill:#B13225;}
	.st1{fill:#A32C25;}
	.st2{fill:#B73A28;}
	.st3{fill:#BD4633;}
	.st4{fill:#972824;}
	.st5{fill:#7F1F11;}
	.st6{fill:#8F2619;}
</style>
<g id="Layer_2_00000025433223489032029880000009681262128105364396_">
	<g id="Layer_6">
		<path class="st0" d="M172,217.3c0,0-5.9,4.8-6.7,8.3s-3.1,5.2,0.2,12c2.3,4.7,2.8,3.4,3.9,5.7s2.7,1.9,7.3,4.8s17,3.9,22.2,3
			s7-7.2,2.8-17c-3.2-7.4-5.8-7.6-6.9-9.9c-0.9-2.3-2.1-4.4-3.6-6.3C189,215.1,179.3,213.1,172,217.3L172,217.3z"/>
		<path class="st1" d="M182.8,249.6c-2.2,0-5.8-0.5-7.3-2.9c1.1,1.3,2.7,2.1,4.4,2.2h0.6c1.3,0.1,2.5-0.2,3.6-0.8
			c2.9,1.2,6,1.9,9.2,2.1c0.5,0,1,0,1.4-0.1c0.7-0.1,1.4-0.1,2.1-0.1c2,0,3.1,0.3-1.3,0.7c-0.8,0.1-1.6,0.1-2.3,0.1
			c-1.9,0-3.8-0.2-5.7-0.7c-1-0.3-2-0.5-3-0.7h-0.2C183.9,249.6,183.4,249.6,182.8,249.6L182.8,249.6z M170.5,238.6L170.5,238.6
			c-0.1,0.9-0.2,1.9-0.2,2.8C170.2,240.5,170.2,239.6,170.5,238.6z M177.8,218.4L177.8,218.4c-1.1,2.5-1,4.9-1.5,7.4
			s-1.2,1.8-1.5,3.3s0.8,1.5,0.9,3.2s0.2,0.9,3.7,5c3.2,3.7,3.3,10.2,3.2,10.2c0-0.1,0-0.2,0-0.2c-0.2-2.6-1.1-5.2-2.6-7.4
			c-1.2-1.8-2.7-3.4-4.3-4.8c-1.1-1.1-1-2.8-2.2-4.3s0.9-2.6,1.4-3.9c0.7-1.4,1.2-2.9,1.5-4.5C176.7,220.9,177.1,219.6,177.8,218.4
			L177.8,218.4z M167.8,226.1c-0.9,0-0.6-1.2,0.3-3.3c1-2.3,6.2-4.7,7.7-4.7c0.3,0,0.5,0.1,0.3,0.4c-0.1,0.1-0.1,0.2-0.2,0.3
			c-0.1,0.3-0.2,0.8-0.3,1.4c-0.2,1.8-0.1,4-1.1,5c-1.2,1.1-2.1,2.4-2.7,3.9c0,0.4,0.1,0.9,0.2,1.3l0.2,0.1c1.6,1,0.4,2.6,3.2,5.1
			s1.7,1.8,3.9,5.5s2,6,2,6c0.1,0.5-0.1,0.9-0.6,1c-0.1,0-0.2,0-0.3,0c-1.3-0.2-2.4-0.8-3.2-1.8c-2.6-2.4-5.4-0.6-6.5-4.1
			c-0.9-3,0.9-6.5,0.5-7.4c-0.3,1.1-0.6,2.4-0.8,3.5c0.2-1.2,0.4-2.4,0.7-3.6c0,0-0.1,0-0.1,0c0,0-0.1,0-0.1,0
			c-1.5,0.3-0.7,3.3-1.6,3.6c-0.1,0.1-0.2,0.1-0.4,0.1c-0.6,0-1-0.8-2.4-2.2c-1.7-1.7-1.6-4.2-0.2-7s4.6-2.9,5.4-3.5
			c0.6-0.4,0.5-1.1-0.4-1.1c-0.7,0.1-1.4,0.3-1.9,0.6C168.9,225.8,168.3,226,167.8,226.1L167.8,226.1z M190.2,248.4
			c-3.5,0-6.6-1.4-7.7-5.9c-1.7-7-6.6-9.3-4.9-14.7c0.8-2.6,0.9-6.3,2.8-8.4c1.1-1.2,2.7-1.8,4.3-1.8c0.6,0,1.3,0.1,1.9,0.3
			c0.3,0.1,0.6,0.2,0.8,0.3c1.8,0.9,4.2,2.9,3.1,4.9c-1.1,1.8-2.8,1.9-1.9,3.7c0.1,0.3,0.3,0.4,0.6,0.4c0.5-0.1,0.9-0.2,1.4-0.4
			c0.6-0.3,1.3-0.4,2-0.4c1.1,0,2.5,0.5,4,2.2c4.2,4.8,4.8,9.1,4.1,10.8s0.5,6.8-4.9,8.2C194,248.1,192.1,248.4,190.2,248.4
			L190.2,248.4z M191.1,225.3c-0.6,0,0-0.5,0.6-1.4c0.7-1.1,1.1-0.3,0.2-2.8s-5.1-5-5.1-5c2.6,0.7,5.1,3.6,5.5,4.3s0.9,3.3,1.9,4.2
			s2.7,2,6.1,7.8s2.9,8.4,3,12.1c0.1,2.9-1.8,4.4-2.2,4.4c-0.1,0-0.1-0.1,0.1-0.4c1-1.6,1.4-3.5,1.2-5.3c-0.1-1.3-0.1-2.7,0-4
			c-0.2-1.6-0.6-3.1-1.2-4.5c-1.7-2.9-3.6-5.7-5.9-8.2c-0.7-0.8-1.7-1.2-2.7-1.2c-0.3,0-0.6,0-0.9,0.1
			C191.5,225.2,191.3,225.2,191.1,225.3L191.1,225.3z M181.5,214.9c-0.4,0-0.8,0-1.2,0H180c-0.3,0-0.7,0.1-1,0.1c-0.1,0-0.2,0-0.3,0
			c-2.4,0.3-4.6,1.1-6.7,2.2l-0.7,0.6c-0.1,0.1-0.1,0.1-0.2,0.2c-1.6,1.4-4.7,4.4-5.6,6.9c-0.1,0.2-0.2,0.4-0.2,0.6
			c0,0.1,0,0.2,0,0.2c-0.5,2-1.5,3.5-1.5,5.7c0.1,2.1,0.7,4.2,1.7,6c2.3,4.7,2.8,3.4,3.9,5.7s2.7,1.9,7.3,4.8
			c3.5,2.2,11.6,3.3,17.5,3.3c1.6,0,3.1-0.1,4.6-0.3c3.2-0.5,5.2-3.2,5.1-7.5c-0.1-3.3-0.9-6.5-2.3-9.5c-3.2-7.4-5.8-7.6-6.9-9.9
			c-0.9-2.3-2.1-4.4-3.6-6.3c-0.4-0.4-0.8-0.8-1.3-1.1l-0.2-0.1c-0.3-0.2-0.7-0.3-1-0.5C186.4,215.2,184,214.7,181.5,214.9
			L181.5,214.9z"/>
		<path class="st2" d="M190.4,239.4c-3.2,0-5.3-3.1-6.4-6c-0.6-1.5-1.3-4-0.9-5.6l0,0c0.1-0.5,0.4-0.8,0.6-0.8c1,0,2.8,3.7,3.4,4.2
			c1.1,0.8,2.2,1.6,3.4,2.2c1.8,1.2,4.8,5,1,5.8C191.1,239.4,190.7,239.4,190.4,239.4L190.4,239.4z M183.2,220.4
			c-0.5,0-1,0.2-1.5,0.4c-0.3,0.2-0.6,0.5-0.8,0.8c-1.6,2.6-1.9,5.8-0.7,8.6c2.2,6.1,4.2,7.1,4.8,9s3.5,5.9,9.2,6h0.1
			c5.6,0,2.6-11.5,0.6-14.2c-0.7-0.9-1.7-1.3-2.8-1.2h-0.8c-0.3,0-0.6,0-0.8,0c-0.7,0-1.4-0.1-2.1-0.4c-2.5-1.4-1-3.8-1.4-5.9
			C186.6,221.7,185,220.5,183.2,220.4L183.2,220.4z"/>
		<path class="st3" d="M183.7,227c-0.3,0-0.5,0.2-0.6,0.8l0,0c-0.4,1.6,0.4,4.1,0.9,5.6c1.1,2.9,3.2,6,6.4,6c0.4,0,0.7,0,1.1-0.1
			c3.8-0.8,0.8-4.6-1-5.8c-1.2-0.7-2.3-1.4-3.4-2.2C186.5,230.6,184.8,227,183.7,227L183.7,227z"/>
		<path class="st4" d="M177.8,218.4c-0.7,1.2-1.2,2.6-1.4,4c-0.2,1.6-0.7,3.1-1.5,4.5c-0.5,1.2-2.5,2.4-1.4,3.9s1,3.2,2.2,4.3
			c1.6,1.4,3.1,3,4.3,4.8c1.5,2.2,2.4,4.7,2.6,7.4c0,0.1,0,0.2,0,0.2c0.1,0,0-6.5-3.2-10.2c-3.5-4.1-3.6-3.3-3.7-5s-1.1-1.7-0.9-3.2
			s1-0.8,1.5-3.3S176.6,220.9,177.8,218.4L177.8,218.4z"/>
		<path class="st4" d="M186.8,216.1c0,0,4.2,2.5,5.1,5s0.4,1.7-0.2,2.8c-0.5,0.9-1.2,1.4-0.6,1.4c0.2,0,0.5,0,0.7-0.1
			c0.3-0.1,0.6-0.1,0.9-0.1c1,0,2,0.5,2.7,1.2c2.2,2.5,4.2,5.3,5.9,8.2c0.7,1.4,1.1,3,1.2,4.5c-0.1,1.3-0.1,2.7,0,4
			c0.2,1.9-0.3,3.7-1.2,5.3c-0.2,0.3-0.2,0.4-0.1,0.4c0.4,0,2.3-1.5,2.2-4.4c-0.1-3.7,0.3-6.3-3-12.1s-5.1-6.9-6.1-7.8
			s-1.5-3.5-1.9-4.2S189.5,216.8,186.8,216.1L186.8,216.1z"/>
		<path class="st4" d="M175.5,246.7c1.5,2.4,5.1,2.9,7.3,2.9c0.5,0,1,0,1.5-0.1h0.2c1,0.2,2,0.4,3,0.7c1.9,0.4,3.8,0.7,5.7,0.7
			c0.7,0,1.5,0,2.3-0.1c4.4-0.4,3.3-0.7,1.3-0.7c-0.7,0-1.4,0-2.1,0.1c-0.5,0-1,0.1-1.4,0.1c-3.2-0.1-6.3-0.8-9.2-2.1
			c-1.1,0.6-2.4,0.9-3.6,0.8h-0.6C178.2,248.8,176.6,248,175.5,246.7L175.5,246.7z"/>
		<path class="st5" d="M176.4,248.3c-1.6-1-3.2-1.9-4.9-2.6c-1.1-0.4-2-1.2-2.4-2.3c-0.3-0.7-0.8-1.4-1.4-1.8
			c-1-1.1-1.9-2.4-2.4-3.8c-1-1.9-1.6-4-1.7-6.1c0-2.4,1.1-4,1.5-6c0.4-1.9,2.1-3.9,3.7-5.6c1-1,2-2,3.1-2.9l0,0
			c2.9-1.7,6.3-2.5,9.6-2.5c4.5,0,8.4,1.4,9.8,3.1c1.5,2,2.7,4.1,3.6,6.4c1,2.1,3.7,2.4,6.9,9.9c1.4,3,2.2,6.3,2.3,9.6
			c0,4.3-2,7.2-5.4,7.7c-1.6,0.2-3.1,0.3-4.7,0.3C188.1,251.6,180,250.6,176.4,248.3z M171.2,218.3c-0.6,0.5-1.3,1.2-2.1,2
			c-1.6,1.6-3.2,3.7-3.6,5.3c-0.5,2.2-1.5,3.6-1.5,5.9c0.1,2.1,0.7,4.1,1.7,5.9c0.6,1.4,1.4,2.6,2.4,3.7c0.7,0.5,1.2,1.2,1.5,2
			c0.4,0.9,1.2,1.7,2.2,2c1.7,0.8,3.4,1.7,5,2.7c3.4,2.2,11.5,3.3,17.4,3.3c1.5,0,3.1-0.1,4.6-0.3c3.1-0.5,4.9-3,4.9-7.2
			c-0.1-3.3-0.9-6.5-2.3-9.4c-3.2-7.4-5.6-7.5-6.9-9.9l0,0l0,0c0,0-0.4-0.9-1-2.1c-0.7-1.5-1.6-2.8-2.6-4.1c-1.2-1.5-5-2.9-9.4-2.9
			c-3.3,0-6.5,0.8-9.4,2.4C172,217.6,171.7,217.9,171.2,218.3L171.2,218.3z"/>
		<path class="st6" d="M183.7,222.3c-1.4-0.3-1.3-0.2-2-1.4c-0.1-0.3-0.4-0.5-0.8-0.5c-0.7,0.2-1.4,0.4-2.1,0.5
			c-1.4,0-1.6-0.9-1.6-0.9h0.2c0,0,0.1,0.7,1.4,0.7c0.9,0,1.5-0.5,2.1-0.5c0.4,0,0.8,0.2,1,0.6c0.8,1.2,0.5,1,1.9,1.3s1.6,1,1.9,2.3
			C185.6,224.3,185.2,222.4,183.7,222.3z"/>
		<path class="st6" d="M180.3,233.1c0-1.6-0.5-0.5-1.8-2.4c-0.5-0.8-0.8-1.7-0.8-2.7c0-0.9,0.2-1.6,0.1-2.1v-0.1
			c-0.1-0.9-1.2-1.6-1.2-1.6l0.1-0.2c0,0,1.3,0.8,1.4,1.8v0.1c0,0.5-0.1,1.3-0.1,2.1c0,0.9,0.2,1.8,0.7,2.5c1.2,1.7,1.8,0.8,1.8,2.5
			c0,1.6,2.3,3.7,2.3,3.7S180.3,234.9,180.3,233.1z"/>
		<path class="st6" d="M182.2,230.1c-0.5-0.7-0.9-0.8-1.4-0.8s-0.8,0.1-1.4,0.1h-0.1c-0.7,0.1-1.3-0.4-1.6-1l0.2-0.1
			c0.2,0.6,0.7,0.9,1.3,0.9h0.1c0.6,0,1-0.1,1.4-0.1c0.6,0,1.2,0.4,1.5,0.9c0.6,0.8,1.4,1.4,2.3,1.8
			C183.8,231.5,182.9,230.9,182.2,230.1z"/>
		<path class="st6" d="M178.5,234.4c0-0.5,0.1-0.9,0.3-1.3c0.3-0.4,0.4-0.9,0.4-1.4v-0.1h0.2v0.1c0,0.5-0.2,1.1-0.4,1.5
			c-0.2,0.7-0.4,1.4-0.4,2.1C178.5,235,178.5,234.7,178.5,234.4z"/>
		<path class="st6" d="M185.9,235.2L185.9,235.2c-0.7,0-1.4-0.1-2-0.3c-0.5-0.2-0.9-0.3-1.4-0.3c-0.4,0-0.8,0.1-1.1,0.4l0,0
			l-0.2-0.1c0.3-0.3,0.8-0.5,1.3-0.4c0.5,0,1.1,0.1,1.5,0.4c0.6,0.2,1.2,0.3,1.9,0.3c0.8,0,1.7-0.1,2.5-0.1c0.5,0,1,0.1,1.4,0.2
			C188.5,235,187.2,235.1,185.9,235.2z"/>
		<path class="st6" d="M182.5,238.1c0-0.3,0.1-0.4,0.1-0.6c0-0.1,0-0.2-0.1-0.3c-0.2-0.3-0.4-0.7-0.4-1.1h0.2c0,0.4,0.2,0.7,0.4,1
			c0.1,0.1,0.2,0.3,0.2,0.5c0,0.2-0.1,0.4-0.1,0.6s0.2,1.3,0.2,1.3C182.7,239,182.5,238.5,182.5,238.1z"/>
		<path class="st6" d="M182.2,231.8c0-0.1,0-0.3,0-0.4c0-0.2-0.1-0.4-0.2-0.5c-0.2-0.2-0.3-0.5-0.3-0.8c0-0.2,0-0.3,0.2-0.4l0.1,0.2
			c0,0-0.1,0-0.1,0.2c0,0.3,0.1,0.5,0.3,0.7c0.1,0.2,0.2,0.4,0.2,0.6c0,0.2,0,0.3,0,0.4c0.1,0.3,0.1,0.5,0.2,0.8
			C182.3,232.2,182.2,232,182.2,231.8z"/>
		<path class="st6" d="M179,229.2c0.2-0.8,0.9-1.4,1.7-1.3c1.1,0.3,2.2,0.2,3.3-0.1c-0.5,0.3-1,0.4-1.6,0.4c-0.5,0-1.1-0.1-1.7-0.1
			c-0.7,0-1.3,0.4-1.5,1.1L179,229.2z"/>
		<path class="st6" d="M187.2,236.4c-0.8-0.1-1.5-0.6-2-1.2l0.2-0.1c0.4,0.6,1.1,1,1.8,1.1c0.7,0.1,1.2,1.1,1.6,1.7
			c0.2,0.3,0.4,0.5,0.7,0.6C188.2,238.2,188.4,236.6,187.2,236.4z"/>
		<path class="st6" d="M172.8,239.5c0-1.6,1.4-2,1.4-2.8v-0.2v-0.2c0-1.1,1.3-1.8,1.3-1.8l0.1,0.2c0,0-1.2,0.7-1.2,1.6v0.2v0.2
			c0,0.4-0.8,1.2-1.2,1.7c-0.3,0.4-0.4,0.8-0.5,1.2V239.5z"/>
		<path class="st6" d="M171.2,238.1L171.2,238.1c0.3-0.7,1.5-0.6,1.8-1c0.2-0.2,0.4-0.3,0.6-0.2c0.2,0,0.5,0.1,0.7,0.1l0,0l-0.1,0.2
			c-0.2-0.1-0.4-0.1-0.6-0.1c-0.2,0-0.3,0-0.4,0.2c-0.4,0.2-0.8,0.4-1.2,0.5C171.6,237.8,171.4,237.9,171.2,238.1z"/>
		<path class="st6" d="M168.5,230.4c0.6-0.9,1.9-0.7,2.4-1.5c0.5-0.4,1.2-0.6,1.9-0.6c0.4,0,0.8,0,1.1,0.1v0.2
			c-0.4-0.1-0.7-0.1-1.1-0.1c-0.7,0-1.4,0.1-1.7,0.5c-0.5,0.3-1,0.6-1.5,0.8C168.9,230.2,168.5,230.4,168.5,230.4z"/>
		<path class="st6" d="M170.4,231.9c0-0.7,0.2-1.3,0.5-1.9c0.1-0.2,0.2-0.4,0.2-0.6c0-0.1,0-0.2-0.1-0.3l0.2-0.1
			c0.1,0.1,0.1,0.3,0.1,0.5c0,0.2-0.1,0.5-0.2,0.7c-0.3,0.7-0.5,1.4-0.6,2.1C170.4,232.1,170.4,232,170.4,231.9z"/>
		<path class="st6" d="M169.1,223.4c1.3-1.3,2.8-1.1,3.8-1.8c0.2-0.1,0.5-0.2,0.7-0.2c0.8,0.1,1.5,0.5,2,1l0.8-0.1v0.2l-0.9,0.1l0,0
			c-0.2-0.2-0.4-0.3-0.6-0.5c-0.4-0.3-0.8-0.4-1.3-0.5c-0.2,0-0.4,0.1-0.6,0.2C171.7,222.2,170.4,222.7,169.1,223.4z"/>
		<path class="st6" d="M170.2,224.6c0.1-0.6,1.4-0.8,2.1-1.6c0.3-0.3,0.5-0.8,0.6-1.2v-0.1l0,0h0.2v0.2c0,0.5-0.3,1-0.6,1.4
			C171.7,223.6,170.9,224.1,170.2,224.6L170.2,224.6z"/>
		<path class="st6" d="M172.2,221.9L172.2,221.9c0-0.1,0-0.3-0.5-0.4s-0.4-0.4-0.4-0.5s-0.8-0.7-0.8-0.7c0.8,0.1,1,0.4,1,0.7
			s-0.1,0.3,0.2,0.3c0.6,0,0.8,0.4,0.8,0.6v0.1L172.2,221.9z"/>
		<path class="st6" d="M181.8,224.4L181.8,224.4c-0.1-0.1-0.1-0.2-0.1-0.4c0.1-0.5,0.2-1,0.4-1.5v-1.3h0.2v1.3
			c-0.2,0.5-0.3,1-0.4,1.5c0,0.1,0,0.2,0,0.2c0.2,0.2,0.9,0.3,0.9,1v0.2C182.7,225,182.3,224.6,181.8,224.4z"/>
		<path class="st6" d="M179.5,223.1c0-0.2,0-0.4,0-0.6c0-0.1,0-0.2,0-0.3c0-0.6-0.3-1.1-0.8-1.4l0.1-0.2c0.6,0.3,1,0.9,1,1.6
			c0,0.1,0,0.2,0,0.3c0,0.2-0.1,0.4-0.1,0.6c0,0.7,0.1,1.3,0.3,2C179.7,224.5,179.5,223.8,179.5,223.1z"/>
		<path class="st6" d="M180.3,220.1c0.3-0.6,0.9-1.1,1.6-1.1c0.3,0,0.6,0,0.8,0.1c0.4,0.1,0.8,0.2,1.2,0.2c0.5,0,0.8-0.1,1.2-0.1
			c0.4,0,0.7,0.1,1.1,0.3l-1.1-0.1c-0.4,0-0.8,0.1-1.2,0.1c-0.4,0-0.8-0.1-1.2-0.2c-0.2-0.1-0.5-0.1-0.8-0.1c-0.6,0-1.2,0.4-1.4,0.9
			L180.3,220.1z"/>
		<path class="st6" d="M186.6,243.6c-2.2,0-4.1-1.5-4.7-3.6c-0.5-1.7-1.4-1.6-1.4-1.7v-0.2c0,0,1,0,1.6,1.8c0.6,2,2.4,3.4,4.5,3.4
			c1.4,0,2.7,0.5,3.7,1.4C189.3,244,187.9,243.6,186.6,243.6z"/>
		<path class="st6" d="M183.2,242.3c0-0.1,0.1-0.8,1.3-0.8c0.3,0,0.5,0,0.8,0.1c0.2,0,0.4,0.1,0.6,0.1c1.1,0,1-0.9,2.4-0.9
			c0.1,0,0.3,0,0.4,0c-0.5,0.1-0.9,0.2-1.4,0.4c-0.5,0.2-0.9,0.7-1.4,0.7c-0.2,0-0.4,0-0.6,0c-0.3-0.1-0.5-0.1-0.8-0.1
			c-1.1,0-1,0.6-1.1,0.6l0,0L183.2,242.3L183.2,242.3z"/>
		<path class="st6" d="M186.4,244.8c-1-0.2-1.5-1.4-1.5-1.4l0.2-0.1c0,0,0.6,1.2,1.4,1.3c0.6,0.1,1.1,1.3,1.6,1.9
			c0.3,0.3,0.7,0.5,1.1,0.6C187.2,246.7,187.2,244.9,186.4,244.8z"/>
	</g>
</g>
</svg>
