<?xml version="1.0" encoding="utf-8"?>
<!-- Generator: Adobe Illustrator 26.0.3, SVG Export Plug-In . SVG Version: 6.00 Build 0)  -->
<svg version="1.1" id="Layer_1" xmlns="http://www.w3.org/2000/svg" xmlns:xlink="http://www.w3.org/1999/xlink" x="0px" y="0px"
	 viewBox="0 0 342 788" style="enable-background:new 0 0 342 788;" xml:space="preserve">
<style type="text/css">
	.st0{opacity:0.7;}
	.st1{fill:#A14537;}
	.st2{fill:#AA4739;}
	.st3{fill:#7A2F23;}
	.st4{fill:#8D322A;}
	.st5{fill:#93352D;}
	.st6{fill:#7A2723;}
	.st7{fill:#B45643;}
	.st8{fill:#993A30;}
	.st9{fill:#6D251B;}
	.st10{fill:#B1513F;}
	.st11{fill:#953A2F;}
</style>
<g>
	<g id="Layer_2_00000096776745284634979130000018181746714769858969_">
		<g id="Layer_6">
			<g class="st0">
				<path class="st1" d="M131.5,280.8c0,0,0,0.1-0.1,0.1c-0.9,1.6-1.3,3.4-1.3,5.3c0.3-0.6,0.5-1.2,0.7-1.9
					C131,283.5,131.2,282.3,131.5,280.8L131.5,280.8z M151,260.9c-1.6,0.8-3.3,1.7-4.9,2.6C148.1,262.5,149.6,261.7,151,260.9z
					 M182.4,245.2c-3.8,1.2-7.6,2.6-11.3,4.2c-0.6,0.3-1.2,0.6-1.8,0.8c0.7-0.3,1.4-0.6,2.2-0.8
					C175.2,248.2,178.9,246.8,182.4,245.2L182.4,245.2z"/>
				<path class="st2" d="M128.4,277.8c0,0-1.6,6.8,2.2,12.4s7.4-2.2,11.2-7.2s16.6-5.3,26-12.3s7-5.6,14.5-11.1s9.9-7.2,13.9-12
					s5.2-0.7,6.1-5s-22.4-9.2-30-5.9c-5,2.2-6.9,2.2-9.3,2.1c-1.6-0.1-3.1,0-4.6,0.3c-5.8,0.9-21.2,1.6-28.4,13.3
					C122.7,264.1,128.9,273.2,128.4,277.8L128.4,277.8z"/>
				<path class="st3" d="M130.3,290.3c-1.7-2.6-2.5-5.6-2.5-8.6c0-1.3,0.1-2.7,0.3-4c0-0.2,0-0.4,0-0.6c0-2.7-1.9-7-2-12.4
					c-0.1-4.5,1.2-8.8,3.6-12.6c7.3-11.9,22.9-12.5,28.6-13.4c1.1-0.2,2.1-0.3,3.2-0.3c0.5,0,1,0,1.5,0h1.3c1.9,0,3.9-0.3,7.9-2.1
					c2.1-0.8,4.4-1.2,6.7-1.1c5.2,0,10.4,0.7,15.4,2.1c4.7,1.4,8.2,2.9,8.4,4.9c0,0.1,0,0.2,0,0.3c-0.4,2.1-1.2,2.5-2.1,2.5
					s-2,0.2-4.1,2.6c-4.1,4.8-6.4,6.5-14,12.1s-5.1,4.1-14.5,11.1s-22.4,7.4-26,12.3c-2.9,3.7-5.5,9.1-8.6,9.3
					C132.3,292.4,131.3,291.8,130.3,290.3L130.3,290.3z M128.7,277.8c-0.3,1.3-0.4,2.6-0.3,3.9c0,3,0.9,5.8,2.5,8.3
					c0.9,1.4,1.8,1.8,2.6,1.8c2.4,0,5.3-5.2,8.2-9c4-5.2,16.8-5.4,26.1-12.4s6.9-5.6,14.5-11.1s9.8-7.2,13.9-12
					c2.1-2.4,3.5-2.7,4.4-2.8s1.1,0.1,1.6-2.1v-0.2c0.1-1.3-3.3-3.1-8-4.4c-5-1.4-10.1-2-15.2-2c-2.2,0-4.4,0.3-6.4,1.1
					c-4,1.8-6.1,2.1-8.1,2.2c-0.4,0-0.9,0-1.3,0s-0.9,0-1.5,0c-1.1,0-2.1,0.1-3.1,0.3c-5.8,0.9-21.1,1.6-28.2,13.1
					c-2.3,3.7-3.6,7.9-3.5,12.3c0.1,5.2,2,9.4,2,12.4C128.7,277.4,128.7,277.6,128.7,277.8l-0.3,0L128.7,277.8L128.7,277.8z"/>
				<path class="st4" d="M135.1,286.8c-0.7,0,0.3-3.3,2.9-7.6c3.3-5.5,8.3-7.2,16.6-8.8s14.4-11.8,21.7-14.7s10.6-7.3,13.5-9.3
					c2.2-1.5,4.5-2.8,5.4-2.8c0.2,0,0.3,0.1,0.3,0.4c-0.2,1.1-2.9,5.7-8.8,10.2c-5.9,4.5-17.3,11.2-20.1,13.6s-4.2,3.5-14.7,7.7
					c0,0-4.9,2.1-9.2,3.9s-4.6,4.2-6.6,6.6C135.6,286.5,135.3,286.8,135.1,286.8z M197.5,241.1c-0.5,0-1,0-1.4,0.1
					c-0.7,0.3-1.4,0.6-2.2,0.9c-4.5,2.1-10.9,7.2-16.1,7.9s-8.9,3.7-16.7,10.1s-11.6,6.9-17.2,8.5s-7.4,4.4-8.4,9.3
					c-0.9,4.4-2.5,5.8-3.8,10.6c0.1,1.2,0.8,1.6,1.4,1.6c0.5,0,1.1-0.2,1.6-0.4c2.4-1.2,2.8-2.9,5.4-6.4s9.2-5.6,12.6-7.1
					s10.4-3.3,14.5-6.5s14.2-11,18.7-14.1s9.5-9.9,12.5-11.3s1.3-2.2,0.3-3C198.4,241.1,197.9,241,197.5,241.1L197.5,241.1z"/>
				<path class="st5" d="M196.1,241.1c-2.6,0.4-5.1,1.1-7.5,2.2c-4.1,1.9-9.9,6.4-14.7,7.1s-8.1,3.3-15.1,9
					c-7,5.7-10.5,6.1-15.6,7.6s-6.7,3.9-7.6,8.3s-2.6,5.4-3.8,11c-0.2,0.9-0.3,1.8-0.1,2.6c0-0.1,0.1-0.3,0.1-0.4
					c0-0.7,0-1.5,0.2-2.2c1.2-5.5,2.9-6.6,3.8-11s2.5-6.9,7.6-8.3s8.6-1.9,15.6-7.6s10.4-8.4,15.1-9s10.6-5.2,14.7-7.1
					c2.3-1.1,4.7-1.8,7.2-2.2L196.1,241.1L196.1,241.1z"/>
				<path class="st6" d="M196,241.2c-2.5,0.4-4.9,1.2-7.2,2.2c-4.1,1.9-10,6.4-14.7,7.1s-8.1,3.3-15.1,9s-10.5,6.1-15.6,7.6
					s-6.7,3.9-7.6,8.3s-2.6,5.5-3.8,11c-0.2,0.7-0.3,1.5-0.2,2.2c1.3-4.8,2.9-6.2,3.8-10.6c1-4.9,2.8-7.8,8.4-9.3s9.4-2.1,17.2-8.5
					s11.5-9.4,16.7-10.1s11.6-5.8,16.1-7.9C194.6,241.8,195.3,241.5,196,241.2L196,241.2z"/>
				<path class="st7" d="M196.3,239.5c-3,0-8.1,2.5-10.2,4.1c-1.1,0.7-2.3,1.2-3.6,1.6c-3.6,1.6-7.2,3-10.9,4.2
					c-0.8,0.3-1.5,0.5-2.2,0.8c-6.7,3.3-8.9,6.7-13.6,8.5c-1.6,0.6-3.2,1.3-4.7,2.1c-1.4,0.8-2.9,1.7-4.9,2.6
					c-2.7,1.5-5.3,3-7.2,3.9c-4.3,2-5.7,9.7-7.5,13.4c-0.3,1.5-0.5,2.8-0.7,3.5c-0.2,0.6-0.4,1.3-0.7,1.9c0,0.2,0,0.4,0.1,0.7
					c0.1,2,0.7,3.2,0.9,3.2s0.1-0.2,0-0.8c-0.4-1.7,0.4-4.1,1.2-6.6s1.4-5.4,3.1-9.9s6-5.9,11.8-7.5s9.1-4.1,13.5-8.3
					c5.6-5.3,9.7-6.1,14.6-7.4s5.4-2.1,9-4.5s9.5-3.8,11.5-4.3s3.8-0.6,1-1.1C196.7,239.5,196.5,239.5,196.3,239.5L196.3,239.5z"/>
				<path class="st8" d="M161.1,244.7c0.7,0,0.7-4.1,6.8-5.2c7.2-1.3,5.2-2.7,11.1-3.1c0.6,0,1.2,0,1.9,0c5.5,0,11.5,1.2,11.4,2
					s-5.1,1.3-7,3.4s-11.9,5.8-15.3,7.2c-2.1,0.9-6.7,1.6-9.4,4.2c-0.3,0.3-0.5,0.4-0.7,0.4c-0.4,0-0.3-1-0.1-2.1s0.3-2.1,0-2.1
					c-0.1,0-0.2,0.1-0.3,0.1c-1.1,0.9-1.5,5.2-3.2,6.4c-3.9,2.5-8,4.7-12.2,6.8c-3.8,1.9-8.6,6.8-10.2,8.6s-3.8,9.2-4.1,11.8
					c-0.1,1-0.3,1.3-0.5,1.3s-0.6-1.1-0.2-2.2c0.1-2,0.5-4,1.2-5.9c1.1-2.3-5-5.1-1.5-17.5s23.7-17.9,29.1-17.9h0.2
					c5.2,0,1.4,1.7,2.6,3.5C160.8,244.6,161,244.7,161.1,244.7L161.1,244.7z M179.6,235.8h-0.7c-2.2,0-4.4,0.3-6.4,1.1
					c-4,1.8-6.1,2.1-8.1,2.2h-2.8c-1.1,0-2.1,0.1-3.1,0.3c-5.8,0.9-21.1,1.6-28.2,13.1c-2.3,3.7-3.6,7.9-3.5,12.3
					c0.1,5.2,2,9.4,2,12.4c0,0.2,0,0.4,0,0.7h-0.3l0.3,0.1c-0.3,1.3-0.4,2.6-0.3,3.9c0,2,0.4,3.9,1.1,5.8c0.2-0.4,0.5-0.9,0.7-1.3
					c0-1.8,0.4-3.6,1.3-5.3c0,0,0-0.1,0.1-0.1c0.6-2.9,1.4-6.8,3.5-9.5c3.1-4.2,4.6-4.7,10-7.2l1.2-0.6c1.6-0.9,3.3-1.8,4.9-2.6
					c1.9-1.2,3.9-2.2,6-3.1c4.1-1.8,6.4-5.1,12.2-7.5c0.6-0.3,1.1-0.6,1.8-0.8c3.7-1.6,7.5-3,11.3-4.2c2-0.9,3.5-1.6,4.4-2.2
					c1.9-1.1,4.2-3.8,11-3.8h0.4c-1.3-0.6-2.7-1-4.1-1.4C189.4,236.6,184.5,235.9,179.6,235.8L179.6,235.8z"/>
				<path class="st9" d="M179.6,235.5c-2.5-0.1-5,0.3-7.3,1.1c-4.4,1.9-6.4,2.1-8.4,2.1h-1.8c-1.3,0-2.5,0.1-3.8,0.3
					c-5.8,0.9-21.2,1.6-28.4,13.3s-1.1,20.8-1.5,25.4c-0.7,3.3-0.4,6.8,0.9,10c0.1-0.1,0.1-0.2,0.2-0.3c-0.7-1.8-1.1-3.8-1.1-5.8
					c0-1.3,0.1-2.6,0.3-3.9l-0.3-0.1h0.3c0-0.2,0-0.4,0-0.7c-0.1-3-1.9-7.1-2-12.4c-0.1-4.4,1.1-8.6,3.5-12.3
					c7.1-11.6,22.4-12.2,28.2-13.1c1-0.2,2.1-0.3,3.1-0.3h2.8c1.9,0,4-0.4,8.1-2.2c2.1-0.8,4.2-1.1,6.4-1.1h0.7
					c4.9,0.1,9.8,0.8,14.5,2.1c1.4,0.4,2.8,0.8,4.1,1.4h0.8C194.4,237.2,186.1,235.5,179.6,235.5L179.6,235.5z"/>
				<path class="st10" d="M155.4,243.1c-4,0-12.7,2.7-19.1,8.3c-7.8,6.9-4.9,17.9-4.9,17.9c0.4,1.3,0.8,1.8,1.2,1.8
					c0.6,0,1.2-1.1,1.4-2.1c0.4-1.6,2.8-3.7,7.6-6.8s13.7-7.2,13.6-11.2s3.8-6,2.1-7.4C156.7,243.2,156,243,155.4,243.1z"/>
				<path class="st10" d="M180.9,238.2c-3.4,0-6.6,2-8.6,2.8c-2.5,1-3.4,0-6.1,1.9c-1.6,1-2.6,2.7-2.7,4.5c0,1.1,0.4,1.6,1.3,1.6
					c1-0.1,1.9-0.4,2.7-0.8c2.7-1.3,3.4-2.8,7.3-3.5s4.9-2.1,6.3-3.5s6.6-1.1,2.4-2.6C182.6,238.3,181.7,238.2,180.9,238.2
					L180.9,238.2z"/>
				<path class="st11" d="M195.1,243.6c-0.8,0-3.1,1.4-5.4,2.8c-2.9,1.9-6.2,6.4-13.5,9.3s-13.5,13.1-21.7,14.7s-13.2,3.3-16.6,8.8
					c-2.6,4.3-3.6,7.6-2.9,7.6c0.2,0,0.5-0.2,0.9-0.8c2-2.4,2.3-4.8,6.6-6.6s9.2-3.9,9.2-3.9c10.4-4.2,11.9-5.3,14.7-7.7
					s14.2-9.2,20.1-13.6s8.6-9,8.8-10.2C195.5,243.7,195.4,243.6,195.1,243.6L195.1,243.6z"/>
			</g>
		</g>
	</g>
</g>
</svg>
