<?xml version="1.0" encoding="utf-8"?>
<!-- Generator: Adobe Illustrator 26.0.3, SVG Export Plug-In . SVG Version: 6.00 Build 0)  -->
<svg version="1.1" id="Layer_1" xmlns="http://www.w3.org/2000/svg" xmlns:xlink="http://www.w3.org/1999/xlink" x="0px" y="0px"
	 viewBox="0 0 342 788" style="enable-background:new 0 0 342 788;" xml:space="preserve">
<style type="text/css">
	.st0{opacity:0.7;}
	.st1{fill:#C65145;}
	.st2{fill:#983C32;}
	.st3{fill:#CC584A;}
	.st4{fill:#D36251;}
	.st5{fill:#CD5C4D;}
	.st6{fill:#BA463C;}
	.st7{fill:#8E332A;}
</style>
<g>
	<g id="Layer_2_00000140002379955758505330000012966135777045326728_">
		<g id="Layer_6">
			<g class="st0">
				<path class="st1" d="M203.5,249.2c-8,1.6-8.5,5-9.9,5.4s-2.5-0.9-2.1-3.1s-3.4,1.3-4.1,3.5c0,0,0.3,4.7,2.3,6s1.6,5.7,0,8.9
					s-3.5,5.4-7.1,6.4s-11.2,0.6-13.8,2.6c-1,0.9-2.2,1.7-3.5,2.2c0,0-5.9-0.1-8.9,3.4c-1.3,1.3-2.4,2.9-3.2,4.5
					c-0.7,2.3-1.3,4.6-1.8,7c-1.9,11.6,8.4,14.3,15.8,14.5c3.7,0.1,7.7-1,11.4-1.7c5.3-1,8.9-0.2,7.6,5.8l8.9-0.4
					c0.4,0,0.9-2.1-0.9-7c-1.2-3.3-5.6-6.5-9.7-6.4c-3.4,0.1-13.1,2-15.3,2c-1.7,0.1-3.5-0.1-5.1-0.7c-1.4-0.5-3.4,0.1-3.4-2.5
					s-2.4-2.1-1.1-2.8c1.1-0.7,1.8-1.9,1.9-3.2c2,0.3,4,0.3,6,0c1.1-0.3,2.2-0.3,3.2-0.1c2.3,0.6,15,6.5,28.4-0.1s17.4-12.5,19.4-25
					S211.5,247.5,203.5,249.2L203.5,249.2z"/>
				<path class="st2" d="M186,314.5c0.2-0.7,0.2-1.4,0.2-2.1c0-2.8-1.6-3.6-4.3-3.7c-1.1,0-2.2,0.1-3.3,0.4c-3.5,0.7-7.3,1.7-11,1.7
					h-0.4c-6.9-0.1-16.3-2.4-16.3-12.1c0-0.9,0.1-1.8,0.2-2.7c0.1-0.3,0.4-1.9,0.8-3.6c0.2-1.2,0.6-2.3,1-3.5c0.9-1.7,2-3.2,3.3-4.6
					c3-3.5,8.4-3.5,9.1-3.5c0.2-0.1,0.5-0.2,0.7-0.4c0.9-0.5,1.8-1.2,2.7-1.8c2.7-2,10.3-1.6,13.8-2.6s5.2-3.1,6.9-6.3
					c0.8-1.6,1.3-3.4,1.4-5.3c0-1.5-0.4-2.7-1.2-3.2c-2.2-1.5-2.4-6.2-2.5-6.3v-0.1c0.6-1.8,2.9-4.3,4.1-4.4c0.2,0,0.4,0.1,0.5,0.2
					c0.1,0.1,0.2,0.3,0.1,0.5c0,0.1,0,0.2,0,0.4c-0.1,0.3-0.1,0.5-0.1,0.8c0,1.4,0.7,2,1.4,2c0.1,0,0.3,0,0.4-0.1
					c1-0.2,1.9-3.9,9.9-5.4l0,0c0.7-0.1,1.3-0.2,2-0.2c6.8,0,13.6,6.6,13.6,16.4c0,1.1-0.1,2.3-0.3,3.4
					c-1.9,12.5-6.1,18.6-19.5,25.2c-4.2,2.1-8.9,3.2-13.6,3.1c-7.6,0-13.5-2.6-14.9-3c-0.4-0.1-0.7-0.2-1.1-0.1
					c-1.2,0-2.5,0.5-4.9,0.5c-1,0-1.9-0.1-2.9-0.2c-0.2,1.3-0.9,2.4-2,3.1h-0.1c0.2,0.1,0.3,0.2,0.5,0.4c0.6,0.5,0.9,1.3,0.8,2.1
					c0,1.3,0.4,1.5,1,1.8s1.5,0.2,2.2,0.5c1.6,0.5,3.3,0.7,5,0.6c2.1,0,11.8-1.9,15.3-2h0.5c4.2,0,8.5,3.2,9.7,6.5
					c0.7,1.9,1.2,3.8,1.3,5.8c0,0.9,0,1.5-0.7,1.6l-9.3,0.4L186,314.5L186,314.5z M185.5,309c0.9,0.8,1.4,2.1,1.4,3.3
					c0,0.6-0.1,1.3-0.2,1.9l8.5-0.4l0.1-0.1c0.1-0.3,0.1-0.6,0.1-0.9c-0.1-1.9-0.5-3.8-1.2-5.6c-1.1-3.1-5.2-6.2-9.1-6.2h-0.3
					c-3.4,0.1-13,2-15.3,2c-1.8,0.1-3.5-0.1-5.2-0.7c-0.6-0.2-1.5-0.2-2.2-0.5c-1-0.3-1.6-1.3-1.4-2.3c0.1-0.8-0.4-1.6-1.1-2
					c-0.1-0.1-0.3-0.1-0.4-0.5s0.3-0.4,0.5-0.6c1-0.7,1.6-1.8,1.8-3v-0.3h0.3c1,0.1,2,0.2,3.1,0.2c2.3,0,3.6-0.5,4.9-0.5
					c0.4,0,0.8,0,1.3,0.2c1.5,0.4,7.3,3,14.8,3c4.6,0,9.2-1,13.3-3c13.3-6.6,17.2-12.3,19.2-24.7c0.2-1.1,0.3-2.2,0.3-3.3
					c0-9.5-6.6-15.8-13-15.8c-0.6,0-1.3,0.1-1.9,0.2v-0.3v0.3c-7.9,1.6-8.2,4.8-9.8,5.4c-0.2,0.1-0.4,0.1-0.6,0.1
					c-1.2,0-2-1.1-2-2.6c0-0.3,0-0.6,0.1-0.9v-0.2c0-0.1,0-0.1,0-0.1l0,0c-0.5-0.1-3,2.4-3.5,3.9c0.1,0.8,0.2,1.6,0.4,2.4
					c0.3,1.3,0.9,2.8,1.8,3.3c1.1,0.9,1.7,2.3,1.5,3.7c0,1.9-0.5,3.8-1.4,5.5c-1.6,3.2-3.6,5.6-7.2,6.5s-11.3,0.7-13.6,2.5
					c-1.1,0.9-2.3,1.7-3.6,2.3h-0.2c-0.6,0-5.9,0.1-8.6,3.3c-1.3,1.3-2.4,2.8-3.2,4.5c-0.4,1.1-0.7,2.2-0.9,3.3
					c-0.4,1.6-0.8,3.3-0.8,3.5c-0.1,0.9-0.2,1.7-0.2,2.6c0,9.1,8.9,11.3,15.7,11.5h0.4c3.5,0,7.4-1,10.9-1.7
					c1.1-0.2,2.3-0.4,3.4-0.4C183.2,308,184.5,308.3,185.5,309L185.5,309z"/>
				<path class="st3" d="M175,285.7h-0.1c-0.7-0.1-3-1.1-1.5-2.3c0.4-0.4,1-0.5,1.6-0.5c0.5,0,1.1,0.1,1.6,0.3
					c0.4,0.1,0.9,0.2,1.4,0.3h0.4c0.5,0,1,0.1,1.4,0.3c1.2,0.1-0.5,1.8-1.4,1.8H178c-0.2,0-0.4-0.1-0.5-0.1c-0.4,0-0.9,0.1-1.3,0.1
					C175.8,285.6,175.4,285.7,175,285.7L175,285.7z M184.5,282.7c0.8,0,1.3-0.6,2.4-1.6c1.5-1.4,3.3-0.6,4.3-2s3.8-0.2,3.4-3.1
					s2.6-4,2.6-4c0.2-0.1,0.4-0.1,0.6-0.1c0.8,0,1.5,0.5,1.3,1.2c-0.3,1.1-1,2.1-1.9,2.7c-1.2,0.8-1.2,0.3-1.5,1.8
					c-0.1,1.4-1.2,2.6-2.6,2.8c-1.3,0.2-1.3,1-2.8,2.4c-0.5,0.6-1.2,0.9-1.9,0.9c-0.6,0-1.2-0.2-2.2-0.2c-0.1,0-0.2,0-0.3,0
					c-0.5,0-1,0.1-1.4,0.3c-0.3,0.2-0.6,0.3-0.9,0.3c-0.3,0-0.5-0.1-0.7-0.2c-1.1-0.6-1.1-1.7-0.2-1.7c0.2,0,0.5,0.1,0.7,0.1
					C183.7,282.5,184.1,282.6,184.5,282.7L184.5,282.7z M199.9,270.4c-0.8,0-1.5-0.6-1.8-1.8c-0.7-2.2,1.8-2.9,0.9-5.8s2-4.7,2-4.7
					c0.6-0.5,1.3-0.8,2.1-0.9c2.5,0,3.7,3.8,2.3,5.6c-1.4,1.6-2.5,3.4-3.2,5.4C201.5,269.8,200.7,270.4,199.9,270.4L199.9,270.4z
					 M203.9,256c-2,0.1-3.9,0.9-5.3,2.3c-1.5,2.4-1.4,3-2,6.9s-1,4.6-3.1,8.1s-7.9,7.5-12.6,8s-7.1,1.9-10.2,2.1s-7,1.6-8.1,2.8
					s1.2,2.2,3.1,2.2h0.3c1.9-0.1,3.1-1.2,4.4-1.9c0.3-0.1,0.7-0.2,1.1-0.2c2.1,0,6.4,1.1,10.1,1.9c0.7,0.1,1.3,0.2,2,0.2
					c3.6,0,6.9-2,12.9-3c7.1-1.3,10.2-8.2,11.4-11.6s3.1-3,3.6-9.2s-2.1-7.4-6-8.4C205,256,204.5,256,203.9,256L203.9,256z"/>
				<path class="st4" d="M203.2,257.4c-0.8,0-1.5,0.3-2.1,0.9c0,0-2.9,1.8-2,4.7s-1.6,3.5-0.9,5.8c0.3,1.1,1,1.8,1.8,1.8
					s1.7-0.7,2.3-2.1c0.7-2,1.8-3.8,3.2-5.4C207,261.2,205.7,257.4,203.2,257.4L203.2,257.4z"/>
				<path class="st4" d="M197.8,271.9c-0.2,0-0.4,0-0.6,0.1c0,0-3,1-2.6,4s-2.5,1.8-3.4,3.1s-2.9,0.5-4.3,2c-1,1.1-1.6,1.6-2.4,1.6
					c-0.4,0-0.7-0.1-1.1-0.2c-0.2-0.1-0.5-0.1-0.7-0.1c-0.9,0-0.9,1.1,0.2,1.7c0.2,0.1,0.5,0.2,0.7,0.2c0.3,0,0.7-0.2,0.9-0.3
					c0.4-0.2,0.9-0.3,1.4-0.3c0.1,0,0.2,0,0.3,0c0.9,0.1,1.6,0.2,2.2,0.2c0.7,0,1.4-0.4,1.9-0.9c1.5-1.4,1.5-2.2,2.8-2.4
					c1.4-0.3,2.4-1.4,2.6-2.8c0.3-1.5,0.3-1,1.5-1.8c1-0.7,1.6-1.6,1.9-2.7C199.4,272.4,198.6,271.9,197.8,271.9L197.8,271.9z"/>
				<path class="st4" d="M174.9,282.8c-0.6,0-1.1,0.2-1.6,0.5c-1.5,1.2,0.8,2.2,1.5,2.3h0.1c0.4,0,0.8-0.1,1.2-0.1
					c0.4-0.1,0.9-0.1,1.3-0.1c0.2,0,0.4,0,0.5,0.1h0.2c1,0,2.6-1.6,1.4-1.8c-0.4-0.2-0.9-0.3-1.4-0.3h-0.4c-0.5,0-0.9-0.1-1.4-0.3
					C175.9,282.9,175.4,282.8,174.9,282.8L174.9,282.8z"/>
				<path class="st5" d="M159.2,285.3c-0.7,0-1.4,0.3-1.8,0.8c-0.9,1.1-0.3,1.1-0.8,1.8s-1,0.8-0.7,1.5c0.1,0.3,0.3,0.4,0.4,0.4
					s0.5-0.3,0.6-0.5s0.2-0.9,0.7-0.9c0.2,0,0.4,0.1,0.6,0.2c0.3,0.1,0.5,0.1,0.8,0.1c1,0,1.9-0.5,2.4-1.3c0.3-0.9-0.8-1.6-1.4-1.9
					C159.7,285.3,159.4,285.3,159.2,285.3z"/>
				<path class="st6" d="M164.3,308.9c0.3,0.2,0.6,0.4,0.9,0.7c0.3-0.2,0.6-0.4,0.9-0.5C165.5,309.1,164.9,309,164.3,308.9z
					 M181.3,307.1c-0.6,0.1-1.5,0.2-2.7,0.4c0.8,0.1,1.6,0.2,2.4,0.4C181.1,307.6,181.1,307.4,181.3,307.1z M159,289.1
					c-0.1,0-0.1,0-0.2,0c-1,0.5,0.1,1.1-0.1,2.4c-0.1,0.5-0.2,1-0.5,1.4c0.3,0.1,0.7,0.2,1.1,0.2c0,1.5-1,2.9-2.4,3.4
					c-2.9,1.2-2.2,2.2-1,2.2c0.1,0,0.3,0,0.4,0c0.7-0.1,1.3-0.4,1.8-0.4s0.8,0.2,1.1,1.1c0.6,1.8-2,2.6-1.2,3.7
					c0.2,0.3,0.4,0.4,0.5,0.4c0.5,0,0.9-1,2.3-1.1h0.3c0.7,0,0.8,0.2,0.9,0.4s0,0.4,0.4,0.4h0.3c1,0-1,2.6,0.9,2.6s0.5-1.7,3.3-1.8
					h0.5c0.8,0,1.5,0.1,2.3,0.1s1.7,0.1,2.6,0.1c1.7,0,3.4-0.3,5.1-0.8c2.5-0.9,5.1-1.4,7.7-1.5c0.6,0,1.3,0.1,1.9,0.2
					c0.1-0.3,0.2-0.6,0.4-0.8c-0.8-0.3-1.6-0.4-2.5-0.4h-0.4c-3.4,0.1-13,2-15.3,2c-1.8,0.1-3.5-0.1-5.2-0.7
					c-0.6-0.2-1.5-0.2-2.2-0.5c-1-0.3-1.6-1.3-1.4-2.3c0.1-0.8-0.4-1.6-1.1-2c-0.1-0.1-0.3-0.1-0.4-0.5s0.3-0.4,0.5-0.6
					c1-0.7,1.6-1.8,1.8-3v-0.3h0.3c1,0.1,2,0.2,3.1,0.2l0,0c2.3,0,3.6-0.5,4.9-0.5c0.4,0,0.8,0,1.3,0.2c1.5,0.4,7.3,3,14.8,3
					c2.4,0,4.8-0.3,7.1-0.8c0.7-0.6,1.5-1.1,2.4-1.4c0-0.1,0-0.3,0-0.5c0.1-1.7,1.1-3.1,2.6-3.9c-3.4,1.1-6.9,1.3-14.2,2.4
					c-1.9,0.3-3.8,0.5-5.7,0.5c-6.3,0-7.1-2.4-8.8-3.1c-0.5-0.2-1-0.4-1.5-0.5c-0.6,0-0.8,0.5-1.6,1.6c-0.2,0.3-0.6,0.5-1,0.5
					c-1.1-0.1-2.2-0.5-3.2-1.1C160.9,289.6,159.9,289.3,159,289.1L159,289.1z M203.5,249.2L203.5,249.2v0.3
					c-7.9,1.6-8.2,4.8-9.8,5.4c-0.2,0.1-0.4,0.1-0.6,0.1l0,0c-1,0-1.9-0.9-1.9-1.9c-1,0.9-2.1,1.7-3.4,2.7c0.1,0.6,0.2,1.1,0.3,1.7
					c0.3,1.3,0.9,2.8,1.8,3.3c1.1,0.9,1.7,2.3,1.5,3.7c0,1.9-0.5,3.8-1.4,5.5c-1.6,3.2-3.6,5.6-7.2,6.5s-11.3,0.7-13.6,2.5
					c-1.1,0.9-2.3,1.7-3.6,2.3h-0.2c-0.8,0-6,0.2-8.6,3.3c-1.3,1.3-2.4,2.8-3.2,4.5c-0.4,1.1-0.7,2.2-0.9,3.3
					c-0.4,1.6-0.8,3.3-0.8,3.5c-0.1,0.9-0.2,1.7-0.2,2.6c-0.1,3.2,1.3,6.3,3.9,8.2c0.8,0.3,1.6,0.8,2.4,1.3c0.4-0.1,0.7-0.2,1.1-0.2
					l0.3,0c-5.1-1.9-7-6.1-6.7-9.9c0.2-2.3,0.6-4.5,1.3-6.7l0,0c0-0.1,0-0.2,0-0.3c0.2-0.5,0.4-0.9,0.5-1.2c0,0,0.2-0.3,0.1-0.5
					c0.6-0.8,1.2-1.7,1.6-2.6c0.9-2.3,5.7-4,6.7-4c0.2,0,0.2,0,0.1,0.1c-0.3,0.4,0,0.6,0.5,0.6c0.5,0,1-0.2,1.4-0.5
					c0.9-0.8,3-1.4,5.7-1.6s1.4,0.2,3.6-1c0.7-0.5,1.5-0.8,2.4-0.9c0.5,0,1.2,0.1,2.4,0.2c0.3,0,0.6,0,0.9,0c1.8,0,1.2-0.7,3.5-0.8
					h0.9h0.5h0.3c0.3,0,0-0.1,0.7-1c1.1-1.5,1.7-1.7,3.8-2.4s1.1-2.2,2.4-3.4s0.8-2.6,0.9-3.9s2-2.8,1.7-3.8s-2.2-0.5-1.9-2.1
					s-0.8-0.8-2.4-2.1s-0.6-3.4-0.6-3.4c0.3-0.8,0.8-1.2,1.3-1.2c0.6,0.1,1,0.4,1.3,0.8c0.6,0.9,1.1,1.3,1.5,1.3s0.5-0.2,0.7-0.6
					c0.7-1,0.1-0.6,2.8-3.5c1.5-1.6,3.6-2.5,5.8-2.4c1.5,0,3.1,0.3,4.5,0.9c4.2,1.5,3.9,2.4,6.5,7.3s1.1,8.9-1.6,14.9
					c-2.4,5.3-1.2,7.5-6,11c0.9,0.4,1.8,0.8,2.7,1.1c0.2,0,0.4,0.1,0.5,0h0.2c5-4.5,7.1-9.7,8.3-17.8c0.2-1.1,0.3-2.2,0.3-3.3
					c0-9.5-6.6-15.8-13-15.8c-0.6,0-1.3,0.1-1.9,0.2L203.5,249.2L203.5,249.2z"/>
				<path class="st7" d="M169.6,293.1c-1.3,0-2.6,0.5-4.9,0.5l0,0c-1,0-2-0.1-3.1-0.2h-0.3v0.3c-0.1,1.2-0.8,2.3-1.8,3
					c-0.3,0.2-0.5,0.2-0.5,0.6s0.3,0.4,0.4,0.5c0.7,0.4,1.2,1.2,1.1,2c-0.2,1,0.4,2,1.4,2.3c0.8,0.2,1.6,0.2,2.2,0.5
					c1.7,0.5,3.5,0.8,5.2,0.7c2.3,0,11.9-1.9,15.3-2h0.3c0.8,0,1.7,0.1,2.5,0.4l0.1-0.2c-0.9-0.3-1.7-0.4-2.6-0.4h-0.4
					c-3.4,0.1-13.1,2-15.3,2c-1.7,0.1-3.5-0.1-5.1-0.7c-1.4-0.5-3.4,0.1-3.4-2.5s-2.4-2.1-1.1-2.8c1.1-0.7,1.8-1.9,1.9-3.2l0,0
					c1,0.2,2.1,0.2,3.1,0.2c1,0,1.9-0.1,2.9-0.2c0.7-0.1,1.4-0.2,2.1-0.2c0.4,0,0.8,0.1,1.2,0.1c1.5,0.4,7.3,3,14.9,3
					c2.3,0,4.5-0.2,6.8-0.7c0.1-0.1,0.2-0.3,0.4-0.4c-2.3,0.6-4.7,0.8-7.1,0.8c-7.5,0-13.2-2.6-14.8-3
					C170.5,293.2,170,293.1,169.6,293.1L169.6,293.1z M187.8,255.8l-0.3,0.2c0.2,1.5,0.8,4.1,2.2,5c2,1.3,1.6,5.7,0,8.9
					s-3.5,5.4-7.1,6.4s-11.2,0.6-13.8,2.6c-1,0.9-2.2,1.7-3.5,2.2h-0.1c-0.6,0-6,0.1-8.9,3.4c-2.1,2.5-3,3.8-3.3,4.7l0,0
					c-0.4,1.1-1.6,6.3-1.7,6.8c-0.8,5,0.6,8.4,3.1,10.6c0.3,0.1,0.5,0.2,0.8,0.2c-2.6-1.9-4-5-3.9-8.2c0-0.9,0.1-1.8,0.2-2.6
					c0-0.2,0.4-1.9,0.8-3.5c0.2-1.1,0.6-2.2,0.9-3.3c0.9-1.6,2-3.2,3.2-4.5c2.6-3.1,7.7-3.3,8.6-3.3h0.2c1.3-0.6,2.5-1.4,3.6-2.3
					c2.3-1.8,10-1.5,13.6-2.5s5.6-3.3,7.2-6.5c0.9-1.7,1.4-3.6,1.4-5.5c0.2-1.4-0.4-2.8-1.5-3.7c-0.9-0.5-1.5-2-1.8-3.3
					C188,256.9,187.9,256.3,187.8,255.8L187.8,255.8z M203.5,249.2L203.5,249.2c-8,1.6-8.5,5-9.9,5.4c-0.2,0-0.3,0.1-0.5,0.1
					c-0.8,0-1.5-0.7-1.7-1.9l-0.2,0.2c0,1,0.9,1.9,1.9,1.9l0,0c0.2,0,0.4,0,0.6-0.1c1.6-0.6,1.9-3.8,9.8-5.4L203.5,249.2
					L203.5,249.2z M205.5,249c-0.7,0-1.3,0.1-2,0.2l0,0v0.3c0.6-0.1,1.3-0.2,1.9-0.2c6.4,0,13,6.3,13,15.8c0,1.1-0.1,2.2-0.3,3.3
					c-1.3,8.1-3.4,13.3-8.3,17.8c0.2,0,0.3,0,0.5-0.1c4.8-4.5,6.9-9.7,8.1-17.7C220.2,257,212.8,249,205.5,249L205.5,249z"/>
				<path class="st5" d="M155.2,290.9c-0.2,0-0.3,0.1-0.5,0.3c-0.7,1.4-1.1,3-1.2,4.6c0,0.7,0.1,0.9,0.3,0.9c0.5,0,1.5-1.3,2.3-1.9
					c1.2-0.8,1.4-1.7,0.5-2.8C155.9,291.3,155.5,290.9,155.2,290.9L155.2,290.9z"/>
				<path class="st5" d="M154.2,299.5c-0.3,0-0.4,0.2-0.5,0.6c-0.2,1.1,0.2,2.2,1,3c0.2,0.2,0.4,0.3,0.7,0.3c1.1,0,1.9-1.9,0.6-2.9
					C155,299.8,154.5,299.4,154.2,299.5L154.2,299.5z"/>
				<path class="st5" d="M183.7,303.1c-0.3,0-0.5,0.1-0.8,0.2c-1.2,0.7-2.8,0.1-5.2,1.2c-1.4,0.8-2.9,1.3-4.5,1.4
					c-0.6,0-1.3-0.1-1.9-0.3c-0.8-0.2-1.7-0.3-2.5-0.3c-1.2,0-2.4,0.3-3.5,0.8c-0.4,0.2-0.8,0.4-1.2,0.4c-0.6,0-1-0.4-1.6-0.4
					c-0.9,0-0.2-1.6-1.4-1.9c-0.5-0.1-1.1-0.2-1.7-0.2c-1,0-1.8,0.2-1.6,0.9c0,0,0.9,2.5,2.9,2.5c0.2,0,0.3,0,0.5,0
					c0.6-0.2,1.2-0.3,1.9-0.3c0.5,0,0.6,0.2,1,0.6s2,0.7,3.8,0.7c1.1,0,2.2-0.1,3.3-0.5c1.3-0.5,2.8-0.8,4.2-0.9h0.9h0.3
					c1.9,0,3.8-0.4,5.6-1c0.6-0.7,1.4-1.2,2.2-1.5C184.8,303.6,184.4,303.1,183.7,303.1L183.7,303.1z"/>
			</g>
		</g>
	</g>
</g>
</svg>
