<svg xmlns="http://www.w3.org/2000/svg" xmlns:xlink="http://www.w3.org/1999/xlink" viewBox="0 0 397.29 62.33"><defs><style>.cls-1{fill:url(#linear-gradient);}</style><linearGradient id="linear-gradient" x1="198.64" y1="328.08" x2="198.64" y2="406.98" gradientTransform="translate(0 -259.18) scale(1 0.79)" gradientUnits="userSpaceOnUse"><stop offset="0" stop-color="aqua" stop-opacity="0"/><stop offset="0.55" stop-color="aqua"/><stop offset="0.6" stop-color="aqua" stop-opacity="0.98"/><stop offset="0.65" stop-color="aqua" stop-opacity="0.92"/><stop offset="0.71" stop-color="aqua" stop-opacity="0.82"/><stop offset="0.78" stop-color="aqua" stop-opacity="0.68"/><stop offset="0.85" stop-color="aqua" stop-opacity="0.49"/><stop offset="0.92" stop-color="aqua" stop-opacity="0.27"/><stop offset="1" stop-color="aqua" stop-opacity="0.02"/><stop offset="1" stop-color="aqua" stop-opacity="0"/></linearGradient></defs><g id="Layer_2" data-name="Layer 2"><g id="Layer_7" data-name="Layer 7"><path class="cls-1" d="M396.81,29H380.25l-2.53-15.93a.43.43,0,0,0-.48-.33.43.43,0,0,0-.46.33L371.6,48.23l-4.49-18.94a.47.47,0,0,0-.47-.3H361a.45.45,0,0,0-.46.29l-1.76,6.44-.85-6.4a.43.43,0,0,0-.47-.33h-5l-2.52-11.14a.46.46,0,0,0-.49-.31.43.43,0,0,0-.45.34l-3.89,38.25L341.67.36A.45.45,0,0,0,341.2,0h0a.44.44,0,0,0-.47.34L337.52,29H301l-2.54-15.93a.42.42,0,0,0-.47-.33.44.44,0,0,0-.47.33l-5.18,35.17-4.49-18.94a.47.47,0,0,0-.47-.3h-5.65a.45.45,0,0,0-.46.29l-1.75,6.44-.85-6.4a.45.45,0,0,0-.48-.33h-5l-2.52-11.14a.46.46,0,0,0-.49-.31.43.43,0,0,0-.45.34l-3.89,38.24L262.4.36a.44.44,0,0,0-.46-.35.43.43,0,0,0-.49.34L258.25,29H221.72l-2.54-15.93a.41.41,0,0,0-.47-.33.45.45,0,0,0-.47.33l-5.17,35.17-4.5-18.94a.46.46,0,0,0-.46-.3h-5.66a.45.45,0,0,0-.46.29l-1.75,6.44-.85-6.4a.45.45,0,0,0-.47-.33h-5l-2.52-11.14a.46.46,0,0,0-.49-.31.43.43,0,0,0-.45.34l-3.88,38.24L183.13.36a.43.43,0,0,0-.46-.35.43.43,0,0,0-.49.34L179,29H142.45l-2.54-15.93a.4.4,0,0,0-.47-.33.45.45,0,0,0-.47.33L133.8,48.23l-4.5-18.94a.45.45,0,0,0-.46-.3h-5.66a.45.45,0,0,0-.46.29L121,35.72l-.85-6.4a.45.45,0,0,0-.47-.33h-5L112.1,17.85a.46.46,0,0,0-.49-.31.44.44,0,0,0-.45.34l-3.88,38.25L103.86.36A.43.43,0,0,0,103.4,0a.41.41,0,0,0-.48.34L99.71,29H63.18L60.65,13.06a.47.47,0,0,0-.48-.33h0a.45.45,0,0,0-.47.33L54.53,48.23,50,29.29a.47.47,0,0,0-.47-.3H43.92a.47.47,0,0,0-.47.29L41.7,35.72l-.85-6.4a.44.44,0,0,0-.47-.33h-5L32.84,17.85a.46.46,0,0,0-.49-.31.43.43,0,0,0-.45.34L28,56.13,24.59.36A.43.43,0,0,0,24.13,0a.41.41,0,0,0-.48.34L20.44,29H.48c-.27,0-.48.16-.48.37a.44.44,0,0,0,.48.38h20.4a.45.45,0,0,0,.47-.35L24,5.87,27.42,62a.44.44,0,0,0,.46.35h0a.44.44,0,0,0,.47-.34l4.19-41.16,1.94,8.6a.47.47,0,0,0,.47.31h5l1.12,8.39a.44.44,0,0,0,.44.34.47.47,0,0,0,.49-.3l2.3-8.43h4.88l5,21.06a.51.51,0,0,0,.94,0l5.08-34.55,2.1,13.19a.47.47,0,0,0,.48.33h37.37a.46.46,0,0,0,.48-.35l2.63-23.52L106.69,62a.43.43,0,0,0,.46.35h0a.44.44,0,0,0,.47-.34l4.18-41.16,2,8.6a.46.46,0,0,0,.47.31h5l1.12,8.39a.44.44,0,0,0,.44.34.47.47,0,0,0,.49-.3l2.3-8.43h4.87l5,21.06a.44.44,0,0,0,.48.3.45.45,0,0,0,.46-.33l5.08-34.55,2.1,13.19a.45.45,0,0,0,.47.33h37.38a.44.44,0,0,0,.47-.35l2.64-23.52L186,62a.45.45,0,0,0,.47.35h0a.45.45,0,0,0,.47-.34l4.18-41.16,1.95,8.6a.46.46,0,0,0,.47.31h5l1.11,8.39a.46.46,0,0,0,.45.34.48.48,0,0,0,.49-.3l2.29-8.43h4.88l5,21.06a.43.43,0,0,0,.48.3.45.45,0,0,0,.46-.33l5.08-34.55,2.1,13.19a.45.45,0,0,0,.47.33h37.38a.45.45,0,0,0,.47-.35l2.64-23.52L265.22,62a.45.45,0,0,0,.47.35.44.44,0,0,0,.48-.34l4.18-41.16,1.95,8.6a.46.46,0,0,0,.46.31h5l1.11,8.39a.46.46,0,0,0,.45.34.47.47,0,0,0,.49-.3l2.29-8.43H287l5,21.06a.42.42,0,0,0,.48.3.43.43,0,0,0,.45-.33L298,16.22l2.1,13.19a.45.45,0,0,0,.47.33H338a.45.45,0,0,0,.47-.35l2.63-23.52L344.49,62a.44.44,0,0,0,.47.35h0a.45.45,0,0,0,.48-.34l4.18-41.16,1.95,8.6a.45.45,0,0,0,.46.31h5l1.11,8.39a.45.45,0,0,0,.45.34.48.48,0,0,0,.49-.3l2.29-8.43h4.88l5,21.06a.42.42,0,0,0,.48.3.43.43,0,0,0,.45-.33l5.09-34.55,2.1,13.19a.45.45,0,0,0,.47.33h17a.44.44,0,0,0,.48-.38C397.29,29.15,397.08,29,396.81,29Z"/></g></g></svg>