<svg xmlns="http://www.w3.org/2000/svg" width="19" height="19" preserveAspectRatio="xMidYMid meet" viewBox="0 0 256 256"><rect x="0" y="0" width="256" height="256" fill="none" stroke="#4dffff" style="stroke-width:30" /><path fill="#4dffff" d="M167.6 88.4a8 8 0 0 1 0 11.3l-67.9 67.9a8.1 8.1 0 0 1-11.3 0a8 8 0 0 1 0-11.3l67.9-67.9a8 8 0 0 1 11.3 0Zm-28.3 84.9L111 201.5a39.7 39.7 0 0 1-56.5 0a40 40 0 0 1 0-56.5l28.2-28.3a8 8 0 0 0-11.3-11.3l-28.3 28.3a56 56 0 0 0 79.2 79.2l28.3-28.3a8 8 0 0 0 0-11.3a7.9 7.9 0 0 0-11.3 0Zm73.6-130.2a56.1 56.1 0 0 0-79.2 0l-28.3 28.3a8 8 0 0 0 11.3 11.3L145 54.5a39.7 39.7 0 0 1 56.5 0a40 40 0 0 1 0 56.5l-28.2 28.3a7.9 7.9 0 0 0 0 11.3a7.7 7.7 0 0 0 5.6 2.4a8 8 0 0 0 5.7-2.4l28.3-28.3a56.1 56.1 0 0 0 0-79.2Z"/></svg>