<svg xmlns="http://www.w3.org/2000/svg" viewBox="0 0 20.25 61.94"><defs><style>.cls-1{fill:aqua;}</style></defs><g id="Layer_2" data-name="Layer 2"><g id="Layer_4" data-name="Layer 4"><path class="cls-1" d="M10.2.5A2.8,2.8,0,0,1,12,1.12a3.47,3.47,0,0,1,.86,1.36A4.7,4.7,0,0,1,13,4.11.33.33,0,0,1,13.24,4h0a.2.2,0,0,1,.15.17,1,1,0,0,1,0,.24L13.2,5.64a1.17,1.17,0,0,1-.07.25.43.43,0,0,1-.3.22A3.55,3.55,0,0,1,12,8.29c0,.44,0,.88,0,1.12a.59.59,0,0,0,.05.35.65.65,0,0,0,.22.18,34.21,34.21,0,0,0,3.28,1.41h0a2.59,2.59,0,0,1,1.82,1.1,5.07,5.07,0,0,1,.82,2.42c.11.86.11,1.73.26,2.58a18.68,18.68,0,0,1,.43,2.35c0,.35,0,.71,0,1.06a7,7,0,0,0,.19.79,26.65,26.65,0,0,1,.42,8.74c0,.29,0,.48,0,.86,0,.17.05.33.08.49.07.5.13,1,.17,1.52a1.14,1.14,0,0,1,0,.32,2.14,2.14,0,0,1-.09.27L19,35.26c-.05.12-.12.25-.24.28s-.13,0-.18,0l-.07.06a.36.36,0,0,1-.27.08h-.15a4.88,4.88,0,0,0-.52.06h-.15a.61.61,0,0,1-.35-.09.29.29,0,0,1-.15-.34.39.39,0,0,1,.31-.17,2.7,2.7,0,0,1,.49,0h.09A.92.92,0,0,1,18,34.8a1.76,1.76,0,0,0,.13-1.16.45.45,0,0,0,0-.16c-.06-.1-.18-.15-.22-.26a2.18,2.18,0,0,0-.22.83,4.89,4.89,0,0,1,0,.54.68.68,0,0,1-.23.47.27.27,0,0,1-.18.08.11.11,0,0,1-.11-.06.23.23,0,0,1,0-.16,4.58,4.58,0,0,0,0-.64c0-.19,0-.39,0-.59,0-.49.19-1,.19-1.46a1.13,1.13,0,0,1,0-.45c.06-.16.22-.26.33-.39a1.74,1.74,0,0,0,.36-.75,3.2,3.2,0,0,1,0-.44c0-1.85-1.26-3.55-1.19-5.41,0-.34.07-.68.06-1a5.2,5.2,0,0,0-.38-1.44A26.21,26.21,0,0,1,15.55,19a9.84,9.84,0,0,0-.92,3.5c0,.81.94,5.33,1.07,5.89a22.75,22.75,0,0,1,.63,5.52c0,3.6-1.08,7.12-.64,10.69.05.35.11.69.15,1A14.37,14.37,0,0,1,15.77,50c-.26,1.52-.42,3-.62,4.56a7.2,7.2,0,0,0,0,3,3.6,3.6,0,0,0,.89,1.49,8.64,8.64,0,0,1,1.19,1.15.81.81,0,0,1,.11.8,1,1,0,0,1-.79.37,4.88,4.88,0,0,1-.76.07,1.87,1.87,0,0,1-.84-.18c-.15-.07-.28-.17-.44-.23a1.21,1.21,0,0,1-.46-.17c-.26-.21-.15-.64-.35-.9s-.64-.25-.81-.53a.89.89,0,0,1,0-.68,15.7,15.7,0,0,0,.24-4.49,18,18,0,0,0-.3-2.85c-.14-.69-.37-1.36-.48-2a9.25,9.25,0,0,1,.21-3.31,1.54,1.54,0,0,0,0-1.14c-.67-1.11-.55-2.5-.61-3.8a8.47,8.47,0,0,0-.1-1.12,9.4,9.4,0,0,0-.31-1c-.16-.48-.29-1-.41-1.47a20.35,20.35,0,0,1-.66-4.17c0-.26,0-.57-.26-.7H10c-.23.13-.25.44-.26.7a20.35,20.35,0,0,1-.66,4.17c-.12.49-.24,1-.41,1.48a8.57,8.57,0,0,0-.31,1,8.45,8.45,0,0,0-.09,1.12c-.07,1.3,0,2.69-.61,3.8a1.62,1.62,0,0,0,0,1.15,9,9,0,0,1,.21,3.3c-.11.69-.33,1.37-.48,2a18.13,18.13,0,0,0-.3,2.85,15.44,15.44,0,0,0,.25,4.5.91.91,0,0,1,0,.67c-.17.28-.61.27-.81.53s-.09.7-.35.9a1.16,1.16,0,0,1-.46.17c-.15.06-.29.16-.43.23a1.76,1.76,0,0,1-.85.18,4.65,4.65,0,0,1-.75-.07,1,1,0,0,1-.8-.37A.79.79,0,0,1,3,60.21a8.16,8.16,0,0,1,1.19-1.16,3.5,3.5,0,0,0,.89-1.49,6.87,6.87,0,0,0,0-3c-.2-1.52-.36-3-.62-4.55a14.75,14.75,0,0,1-.07-4.45c0-.34.11-.68.15-1C5,41,4,37.48,3.92,33.88a22.87,22.87,0,0,1,.63-5.52A27.52,27.52,0,0,0,6,22.49c0-1.14-.78-2.4-1.24-3.55a24.72,24.72,0,0,1-1,3.39,4.85,4.85,0,0,0-.37,1.44c0,.34,0,.68.05,1,.07,1.86-1.23,3.56-1.19,5.42a2.06,2.06,0,0,1,0,.43,1.58,1.58,0,0,0,.35.75c.11.13.27.23.33.4a1.07,1.07,0,0,1,0,.44c0,.49.2,1,.2,1.47,0,.19,0,.39,0,.58s0,.43,0,.64a.27.27,0,0,1,0,.16.14.14,0,0,1-.12.06.31.31,0,0,1-.18-.07.78.78,0,0,1-.23-.48,4.89,4.89,0,0,1,0-.54,2.18,2.18,0,0,0-.22-.83c0,.11-.16.16-.21.26a.32.32,0,0,0,0,.16,1.76,1.76,0,0,0,.13,1.16,1.27,1.27,0,0,1,.2.33h.08a2.7,2.7,0,0,1,.49,0,.39.39,0,0,1,.31.17.29.29,0,0,1-.15.34.61.61,0,0,1-.35.09H2.66a4.88,4.88,0,0,0-.52-.06H2a.36.36,0,0,1-.27-.08l-.07-.06s-.12,0-.18,0-.19-.16-.24-.27c-.21-.48-.42-1-.62-1.42a1.25,1.25,0,0,1-.1-.27,1.14,1.14,0,0,1,0-.32c0-.51.1-1,.18-1.52,0-.16,0-.32.07-.48,0-.39,0-.58,0-.87a26.38,26.38,0,0,1,.41-8.74,7,7,0,0,0,.19-.79c0-.35,0-.71,0-1.06a18.65,18.65,0,0,1,.42-2.35c.15-.85.15-1.72.26-2.58a5.07,5.07,0,0,1,.82-2.42,2.61,2.61,0,0,1,1.82-1.1h0A34.21,34.21,0,0,0,8,9.94a.65.65,0,0,0,.22-.18.59.59,0,0,0,.05-.35c0-.24,0-.68,0-1.12a3.55,3.55,0,0,1-.81-2.18.4.4,0,0,1-.3-.22.76.76,0,0,1-.06-.25c-.08-.43-.15-.86-.22-1.28a1,1,0,0,1,0-.24A.24.24,0,0,1,7,4H7a.33.33,0,0,1,.23.16,5,5,0,0,1,.18-1.63,3.54,3.54,0,0,1,.86-1.36A2.94,2.94,0,0,1,10.08.5h.12m0-.5h-.12A3.43,3.43,0,0,0,7.92.77,4,4,0,0,0,7,2.33a5.21,5.21,0,0,0-.21,1.18.69.69,0,0,0-.39.5,1,1,0,0,0,0,.42l.07.44.14.85a1.59,1.59,0,0,0,.12.4.91.91,0,0,0,.25.3,4.17,4.17,0,0,0,.8,2c0,.41,0,.77,0,1v.05h0a26.44,26.44,0,0,1-3,1.29l-.13.06H4.45l0,0a3.14,3.14,0,0,0-2,1.28,5.56,5.56,0,0,0-.91,2.65c0,.36-.07.72-.1,1.08a13.8,13.8,0,0,1-.15,1.47c-.05.27-.11.54-.17.81a8.35,8.35,0,0,0-.26,1.6c0,.14,0,.28,0,.42a3.89,3.89,0,0,1,0,.6,4.87,4.87,0,0,1-.13.59l0,.14a26.9,26.9,0,0,0-.43,8.9c0,.16,0,.29,0,.44s0,.22,0,.36l-.06.37v.08c-.07.5-.13,1-.18,1.55a1.81,1.81,0,0,0,0,.46A1.36,1.36,0,0,0,.15,34l.62,1.43a.88.88,0,0,0,.61.56h.05A.94.94,0,0,0,2,36.2h.15a1.15,1.15,0,0,1,.26,0l.2,0h.21a1.15,1.15,0,0,0,.62-.16L3.55,36c.07.75.16,1.5.25,2.23a25,25,0,0,1,.26,6.26c0,.19,0,.38-.08.57s0,.3-.07.45A15.1,15.1,0,0,0,4,50.13c.17,1,.3,2.06.43,3.06.06.5.12,1,.19,1.48a6.7,6.7,0,0,1,0,2.75,2.91,2.91,0,0,1-.76,1.27c-.13.13-.26.24-.4.36a4,4,0,0,0-.85.88,1.25,1.25,0,0,0-.14,1.31,1.48,1.48,0,0,0,1.17.63,5.55,5.55,0,0,0,.82.07,2.35,2.35,0,0,0,1.07-.23,1.18,1.18,0,0,0,.19-.11l.19-.1.11,0a1.13,1.13,0,0,0,.5-.22,1.22,1.22,0,0,0,.38-.78.81.81,0,0,1,0-.21,1.16,1.16,0,0,1,.19-.09,1.23,1.23,0,0,0,.65-.48,1.32,1.32,0,0,0,.06-1.06,15.38,15.38,0,0,1-.23-4.35,17.33,17.33,0,0,1,.29-2.76c.06-.27.13-.53.19-.8a10.13,10.13,0,0,0,.29-1.29A9.28,9.28,0,0,0,8.16,46a1.32,1.32,0,0,1,0-.78,6.53,6.53,0,0,0,.65-3.28c0-.25,0-.5,0-.75V40.9a5.31,5.31,0,0,1,.07-.81,6.15,6.15,0,0,1,.22-.7l.07-.22c.18-.53.32-1.06.43-1.53.2-.82.39-1.68.52-2.57.12.89.32,1.75.51,2.57.11.47.25,1,.43,1.53l.08.22c.08.25.16.48.21.7a6.94,6.94,0,0,1,.08.81v.24c0,.24,0,.5,0,.75a6.45,6.45,0,0,0,.66,3.28,1.26,1.26,0,0,1,0,.78,9.28,9.28,0,0,0-.21,3.48,12.2,12.2,0,0,0,.29,1.29c.07.27.14.53.19.8a16.7,16.7,0,0,1,.29,2.76,15,15,0,0,1-.23,4.35,1.29,1.29,0,0,0,.07,1.06,1.22,1.22,0,0,0,.64.48.92.92,0,0,1,.2.1,1.13,1.13,0,0,1,.05.2,1.15,1.15,0,0,0,.37.78,1.13,1.13,0,0,0,.5.22l.11,0a1.18,1.18,0,0,1,.19.1l.19.11a2.35,2.35,0,0,0,1.07.23,7.15,7.15,0,0,0,.82-.07,1.47,1.47,0,0,0,1.17-.63,1.27,1.27,0,0,0-.13-1.31,4.45,4.45,0,0,0-.85-.88,4.59,4.59,0,0,1-.41-.36,3,3,0,0,1-.76-1.27,6.7,6.7,0,0,1,0-2.75c.07-.49.13-1,.19-1.47.13-1,.26-2.05.43-3.07a15.1,15.1,0,0,0,.08-4.6c0-.15-.05-.3-.07-.46s-.06-.37-.08-.56a25,25,0,0,1,.26-6.26c.09-.73.18-1.48.25-2.23l.13.09a1.09,1.09,0,0,0,.61.16h.22l.2,0,.25,0h.15a.88.88,0,0,0,.56-.17h.06a.85.85,0,0,0,.6-.55l.57-1.3.05-.12a1.44,1.44,0,0,0,.13-.37,1.81,1.81,0,0,0,0-.46c0-.52-.1-1-.18-1.55v-.09L20,31.22c0-.14,0-.25,0-.36s0-.28,0-.44a27.23,27.23,0,0,0-.44-8.91l0-.12a5.13,5.13,0,0,1-.14-.6,4,4,0,0,1,0-.61v-.41a9.06,9.06,0,0,0-.27-1.6c-.06-.27-.12-.54-.17-.81a13.8,13.8,0,0,1-.15-1.47c0-.36-.06-.72-.1-1.08a5.56,5.56,0,0,0-.91-2.65,3.09,3.09,0,0,0-2.11-1.3l-.16-.07a28.39,28.39,0,0,1-3-1.29h0V9.44c0-.22,0-.59,0-1a4.17,4.17,0,0,0,.8-2,.81.81,0,0,0,.25-.3,1.34,1.34,0,0,0,.12-.4l.08-.49.13-.79a1.18,1.18,0,0,0,0-.43.73.73,0,0,0-.4-.5,5.89,5.89,0,0,0-.2-1.18,4,4,0,0,0-1-1.56A3.3,3.3,0,0,0,10.2,0ZM2.74,30.61c0-.12,0-.24,0-.34v-.08a7.23,7.23,0,0,1,.57-2.5,8,8,0,0,0,.62-2.91c0-.14,0-.29,0-.43a3.54,3.54,0,0,1,0-.56,3.87,3.87,0,0,1,.3-1.18l0-.11c.24-.66.45-1.34.64-2a4.9,4.9,0,0,1,.59,2,21.21,21.21,0,0,1-1.16,5c-.11.36-.2.62-.23.75a23.66,23.66,0,0,0-.6,4.07v-.15a1.48,1.48,0,0,0-.07-.56A1.26,1.26,0,0,0,3,31.14L3,31.05a1,1,0,0,1-.22-.44ZM16.79,32.3a23.69,23.69,0,0,0-.6-4.06c-.14-.58-1-5-1.06-5.8a4.89,4.89,0,0,1,.32-1.75c.18.61.37,1.22.58,1.81l0,.1a4.37,4.37,0,0,1,.31,1.19,3.76,3.76,0,0,1,0,.57l0,.41a7.94,7.94,0,0,0,.62,2.91,7.33,7.33,0,0,1,.57,2.51v.07a2,2,0,0,0,0,.35,1.13,1.13,0,0,1-.22.44l-.08.09a1.15,1.15,0,0,0-.34.46,1.3,1.3,0,0,0-.08.55v.15Z"/></g></g></svg>