<svg xmlns="http://www.w3.org/2000/svg" viewBox="0 0 108.3 70.35"><defs><style>.cls-1{fill:#4dffff;fill-rule:evenodd;}.cls-2{fill:none;stroke:#4dffff;stroke-miterlimit:10;}.cls-3{fill:#4dffff;}</style></defs><g id="Layer_2" data-name="Layer 2"><g id="Layer_1-2" data-name="Layer 1"><path class="cls-1" d="M22.44,53.78l.17-.08a.84.84,0,0,0,.47-1.23c-.37-.92-.67-1.08-1.64-.84a9.37,9.37,0,0,0-.9.28c-.14.06-.21.05-.25-.11a18.48,18.48,0,0,1-.78-3.73,7,7,0,0,1,.21-2.69,2.52,2.52,0,0,1,1.88-1.82,2.44,2.44,0,0,1,2,.47,7.21,7.21,0,0,1,1.88,2.16,17.58,17.58,0,0,1,1.44,3,.66.66,0,0,1,0,.15c-.29.16-.59.3-.87.46a6.58,6.58,0,0,0-.61.42.85.85,0,0,0-.27.9,3.54,3.54,0,0,0,.18.55.78.78,0,0,0,1.06.55A6.66,6.66,0,0,0,29,50.84a.91.91,0,0,0,.27-1A16.88,16.88,0,0,0,26,43.58a5.6,5.6,0,0,0-2.68-1.83,7,7,0,0,0-1.38-.18c-.32,0-.33,0-.3-.35a2.89,2.89,0,0,1,2-2.51c.53-.2,1.08-.36,1.63-.52a.38.38,0,0,0,.29-.33c.08-.59.18-1.17.25-1.76a.47.47,0,0,0-.14-.29,12,12,0,0,1-2-3.19c-.27-.68-.43-1.39-.65-2.08a.71.71,0,0,0-.16-.31,4.75,4.75,0,0,1-1.39-2.94,6.75,6.75,0,0,1,.1-2.83,2.84,2.84,0,0,1,.45-1,1.53,1.53,0,0,0,.25-1.18l0-.45c0-.66-.07-1.32,0-2,.06-1,.16-2,.27-3a4.29,4.29,0,0,1,2.23-3.2,15.37,15.37,0,0,1,4.53-1.77,13.66,13.66,0,0,1,2.62-.44,6.38,6.38,0,0,1,3.43.76,1.93,1.93,0,0,0,1.33.14,4.56,4.56,0,0,1,2.68.3,4.93,4.93,0,0,1,1.82,1.6,5.15,5.15,0,0,1,1,2.73c.08,1,.14,2,.14,2.95s-.11,1.9-.16,2.85a.41.41,0,0,0,.09.26,4.06,4.06,0,0,1,.8,2.42,7.34,7.34,0,0,1-.38,3,4.94,4.94,0,0,1-1.08,1.75.69.69,0,0,0-.16.29,9.93,9.93,0,0,1-1.94,4.37.73.73,0,0,1-.08.09,1.24,1.24,0,0,0-.36,1.26c.12.58.2,1.16.27,1.73a.38.38,0,0,0,.34.36,3.85,3.85,0,0,1,2.07,1.15,2.73,2.73,0,0,1,.7,1.65A6.18,6.18,0,0,1,42,43.47c0,.17-.12.22-.29.21a3.57,3.57,0,1,0,3.54,4.17,3.45,3.45,0,0,0-1.3-3.4.31.31,0,0,1-.12-.38,8.1,8.1,0,0,0,.41-2.58c0-.51-.11-1-.17-1.56.26.12.54.23.81.37.65.35,1.31.71,2,1.09A5.1,5.1,0,0,1,49,43.87a22.78,22.78,0,0,1,1.37,4.39c.36,1.71.65,3.43,1,5.14,0,.12,0,.24,0,.38Zm7.64-17.52a13.86,13.86,0,0,0,1.42.32,7.12,7.12,0,0,0,1.46,0,3.54,3.54,0,0,0,2.15-.84c.65-.59,1.29-1.18,1.88-1.83a7.57,7.57,0,0,0,2.19-4.85.38.38,0,0,1,.16-.2,3.59,3.59,0,0,0,.69-.58,4,4,0,0,0,.51-3.48.85.85,0,0,0-.63-.61.58.58,0,0,0-.72.41c-.06.24-.1.47-.15.71a.73.73,0,0,1-.44.59c-.24.09-.29.06-.29-.21,0-1.44,0-2.89,0-4.33A.44.44,0,0,0,38.1,21q-1.85-1.2-3.68-2.43a.41.41,0,0,0-.44,0c-1,.43-2,.89-3.09,1.26a19.64,19.64,0,0,1-4.73,1c-.2,0-.23.12-.23.29,0,1.47,0,2.95,0,4.43a2.8,2.8,0,0,0,0,.29c0,.19-.08.21-.24.16a.63.63,0,0,1-.44-.44c-.1-.32-.16-.64-.25-.95a.47.47,0,0,0-.16-.25.72.72,0,0,0-.75,0,1,1,0,0,0-.43.62,4.45,4.45,0,0,0,.09,2.53A2.2,2.2,0,0,0,25,28.88a.37.37,0,0,1,.12.25,7.59,7.59,0,0,0,.47,2.2A10.53,10.53,0,0,0,28.08,35a.37.37,0,0,1,.13.35c-.18,1.07-.37,2.15-.5,3.22a7.63,7.63,0,0,0,0,1.72,5.19,5.19,0,0,0,.94,2.32A15.53,15.53,0,0,0,32,46.16c.15.12.24.06.36,0A16.32,16.32,0,0,0,35.67,43c1-1.34,1.85-2.77,1.49-4.57-.07-.32-.11-.64-.16-1a5.43,5.43,0,0,1-3.74.8A4.6,4.6,0,0,1,30.08,36.26Z"/><path class="cls-1" d="M18.86,53.69h-6c.06-.44.1-.87.18-1.29.33-1.66.65-3.33,1-5a19.75,19.75,0,0,1,1.25-3.71,4.93,4.93,0,0,1,2-2.3c.74-.43,1.5-.84,2.25-1.25l.16-.06c0,.63-.05,1.26-.08,1.89a.41.41,0,0,1-.13.25,5,5,0,0,0-1.94,3.58,15.25,15.25,0,0,0,.76,6.39C18.51,52.7,18.69,53.18,18.86,53.69Z"/><path class="cls-1" d="M41.74,48.69a1.52,1.52,0,1,1,1.54-1.5A1.54,1.54,0,0,1,41.74,48.69Z"/><polyline class="cls-2" points="8 0.5 0.5 0.5 0.5 8"/><polyline class="cls-2" points="57 65.5 64.5 65.5 64.5 58"/><polygon class="cls-3" points="100.81 70.35 32.72 70.35 32.72 64.14 33.22 64.14 33.22 69.85 100.6 69.85 106.75 63.7 106.75 57.87 107.25 57.87 107.25 63.9 100.81 70.35"/><rect class="cls-3" x="105.7" y="57.62" width="2.59" height="0.5"/><path class="cls-3" d="M33,65a.86.86,0,1,1,.86-.86A.86.86,0,0,1,33,65Z"/></g></g></svg>