<svg xmlns="http://www.w3.org/2000/svg" viewBox="0 0 19 19"><defs><style>.cls-1{fill:none;stroke:#4dffff;stroke-miterlimit:10;}.cls-2{fill:#4dffff;fill-rule:evenodd;}</style></defs><g id="Layer_2" data-name="Layer 2"><g id="Layer_4" data-name="Layer 4"><rect class="cls-1" x="0.5" y="0.5" width="18" height="18"/><path class="cls-2" d="M10,13.41V14H9.26c-.08-.61-.08-.61-1-.74-.08.17-.16.35-.27.56l-.74-.27c.08-.22.14-.4.21-.61L7,12.68l-.41-.27-.47.44-.58-.54L6,11.82,5.45,11l-.61.22c-.1-.24-.2-.48-.31-.72l.53-.27c-.08-.94-.08-.94-.8-1V8.51l.58-.06c.26-.88.26-.88-.38-1.23l.26-.71.61.19.52-.81-.43-.46L6,4.85l.49.41.78-.54L7,4.11l.71-.32L8,4.34c.91-.13.91-.13,1-.81h.72c.14.64.14.64,1,.75.08-.16.15-.33.26-.56l.74.26c-.07.22-.13.41-.19.62l.8.51.47-.43.57.52-.4.51.54.78.61-.22c.11.24.2.46.31.71l-.56.3c.07.31.13.6.19.93l.64,0V9l-.6.08c-.05.29-.11.6-.17.92l.58.28-.28.74-.6-.2-.52.8.44.48c-.19.2-.37.38-.55.58l-.47-.42-.8.54c.07.18.14.35.22.58l-.66.34C10.86,13.13,10.86,13.13,10,13.41Zm-.5-8A3.39,3.39,0,1,0,12.89,8.8,3.39,3.39,0,0,0,9.52,5.38Z"/></g></g></svg>