<svg width="299" height="73" viewBox="0 0 299 73" fill="none" xmlns="http://www.w3.org/2000/svg" class="Header_logo__3T0lc"><path d="M100.929 16.0135L125.98 16.2929L126.276 60.4197C128.814 62.8401 131.122 61.4282 131.958 60.4197V16.3277L156.973 16.2929C159.393 14.3448 157.982 12.3328 156.973 11.5703L100.929 11.1275C98.8261 13.1221 99.6627 15.1587 100.929 16.0135Z" fill="white"></path><path d="M166.738 12.6214V60.5033C168.806 62.9548 170.983 61.5248 171.813 60.5033V21.1443L196.233 58.1092C198.761 59.718 200.734 58.7795 201.405 58.1092L230.804 14.6324C231.034 11.4147 228.41 11.2487 227.069 11.5679L198.923 53.0688L172.262 12.6214C169.855 10.6858 167.632 11.951 166.738 12.6214Z" fill="white"></path><path d="M231.316 57.1196C231.316 58.5003 230.196 59.6196 228.816 59.6196C227.435 59.6196 226.316 58.5003 226.316 57.1196C226.316 55.7389 227.435 54.6196 228.816 54.6196C230.196 54.6196 231.316 55.7389 231.316 57.1196Z" fill="white"></path><path d="M241.026 16.3407L266.076 16.6201L266.373 60.747C268.911 63.1673 271.218 61.7555 272.055 60.747V16.655L297.07 16.6201C299.49 14.6721 298.078 12.66 297.07 11.8975L241.026 11.4548C238.923 13.4494 239.76 15.486 241.026 16.3407Z" fill="white"></path><path d="M37.0968 72.4709C34.9651 68.3237 30.0135 61.0823 23.3891 54.163C19.5308 50.1329 14.8716 46.6772 10.6929 42.847C7.3808 39.811 4.82135 36.7712 3.14897 33.003C-0.845471 24.0029 -0.284131 12.9824 6.36913 6.13912C11.9456 0.40338 21.3666 -2.51325 35.7169 5.31111C27.3756 1.72312 9.55215 -1.71767 4.98897 13.2231C2.78413 20.4421 3.17546 27.2567 6.83973 33.574C8.65798 36.7087 10.6872 38.8713 13.1964 41.4384L21.9245 49.2693C21.9245 49.2693 24.0454 51.3902 28.5319 56.7739C31.0038 60.3187 33.7796 65.5771 37.0968 72.4709Z" fill="white"></path><path d="M30.4897 27.5712C27.7688 45.0163 39.4354 59.7649 45.4174 64.6048L69.2364 41.1937L64.7498 32.3024C62.4006 33.9991 57.9642 34.5641 55.9401 34.1785C49.088 32.8734 44.9279 24.9609 48.4355 17.4563C51.2416 11.4526 58.8767 11.3656 62.629 12.4804C64.3148 13.1058 68.4533 16.3469 69.2364 21.0454C70.0194 25.744 67.7137 29.3114 66.4629 30.5078L71.0309 39.3175C75.0901 33.5121 76.8163 28.7378 76.7409 23.5742C76.686 19.8137 75.798 15.8855 73.5596 11.0121C72.5086 8.72378 69.3025 6.08254 67.4417 4.73105C60.3224 -0.439443 51.0434 1.48292 45.4173 3.09963C43.0045 4.32966 38.7371 7.181 35.4655 12.4804C33.096 16.3185 31.6547 20.1018 30.4897 27.5712Z" fill="white"></path><path fill-rule="evenodd" clip-rule="evenodd" d="M55.8873 13.9518L57.4466 19.5109L58.0362 26.4241L60.0883 23.5636H65.5122L66.2464 24.7056H71.194V25.7056H65.7004L64.9663 24.5636H60.6016L57.27 29.2077L56.4582 19.69L55.7896 17.3061L54.6937 20.4879H53.7559L53.4217 31.0131L52.4277 31.073L51.1573 22.7818L49.9988 25.7056H46.8041V24.7056H49.3194L51.5868 18.9828L52.5944 25.5584L52.7872 19.4879H53.9804L55.8873 13.9518Z" fill="white"></path></svg>