<svg xmlns="http://www.w3.org/2000/svg" viewBox="0 0 16.34 62.12"><defs><style>.cls-1{fill:#ff56a7;}</style></defs><g id="Layer_2" data-name="Layer 2"><g id="Layer_4" data-name="Layer 4"><path class="cls-1" d="M8.17.5a2.16,2.16,0,0,1,.51.06,3.71,3.71,0,0,1,1.57.69,2.11,2.11,0,0,1,.84,1.4,10.21,10.21,0,0,1-.19,1.81v.19a.31.31,0,0,1,.09.11.7.7,0,0,1,.06.38,1.86,1.86,0,0,1-.09.47,1,1,0,0,1,.09.3A5.33,5.33,0,0,0,11.43,8a1.29,1.29,0,0,0,1,.71l.17,0a2.9,2.9,0,0,1-1.78,1.16,3.5,3.5,0,0,1-.65.07.21.21,0,0,0,0,.06,5.7,5.7,0,0,0,2.68,1.48,1.63,1.63,0,0,1,.19.09,2.84,2.84,0,0,1,1.62.81,3.65,3.65,0,0,1,.84,2.11,16.06,16.06,0,0,1-.05,2.3c-.14,2.59.17,5.18.28,7.77a51.57,51.57,0,0,1-.07,6.09h0a18.19,18.19,0,0,1,.08,2.45.61.61,0,0,1,0,.27.69.69,0,0,1-.1.19,1.72,1.72,0,0,0-.19.41,1.38,1.38,0,0,1-.12.34,1.31,1.31,0,0,1-.68.43,6.44,6.44,0,0,0-1,.55h0a49.08,49.08,0,0,1-1.25,5.35,11.88,11.88,0,0,0-.28,3.78,14.55,14.55,0,0,1-.56,7.29c-1.1,3.75-.78,3.87-.78,3.87a1.47,1.47,0,0,1,.1.8c0,.23-.13.43-.18.65a3.22,3.22,0,0,0,.12,1.34c.07.28.13.56.2.84a1.81,1.81,0,0,0,.49,1,1.59,1.59,0,0,1,.24.2.92.92,0,0,1,.13.65.49.49,0,0,1,0,.21.4.4,0,0,1-.16.13,2,2,0,0,1-.72.2c-.21,0-.42,0-.63,0a5.15,5.15,0,0,1-1.46-.21.44.44,0,0,1-.22-.1c-.14-.14-.07-.39-.14-.58l-.09-.16a1,1,0,0,1-.05-.39l0-1.45a6.68,6.68,0,0,1,.09-1.09c.09-.46.27-.9.37-1.36a4.29,4.29,0,0,0,.06-.88,51.16,51.16,0,0,1-.21-7.32,14.46,14.46,0,0,0,.24-4c-.07-.33-.19-.64-.25-1a7.27,7.27,0,0,1-.09-1.4c0-1.66,0-3.32,0-5,0-1.25-.26-2.49-.23-3.74,0-.12,0-.24,0-.36H8c0,.12,0,.24,0,.36,0,1.25-.18,2.49-.23,3.74-.07,1.66,0,3.32,0,5a7.27,7.27,0,0,1-.09,1.4c-.07.33-.18.64-.25,1a13.73,13.73,0,0,0,.24,4,51.16,51.16,0,0,1-.21,7.32,3.24,3.24,0,0,0,.06.88c.09.46.28.9.37,1.36A5.72,5.72,0,0,1,8,58.73l0,1.45a.86.86,0,0,1,0,.39,1.29,1.29,0,0,0-.09.16c-.07.19,0,.44-.14.58a.44.44,0,0,1-.22.1,5.21,5.21,0,0,1-1.46.21c-.21,0-.42,0-.63,0a2.09,2.09,0,0,1-.73-.2.37.37,0,0,1-.15-.13.5.5,0,0,1,0-.21,1,1,0,0,1,.13-.65,2.43,2.43,0,0,1,.25-.2,1.88,1.88,0,0,0,.49-1c.07-.28.13-.56.2-.84A3.22,3.22,0,0,0,5.68,57c0-.22-.14-.42-.19-.65a1.48,1.48,0,0,1,.11-.8s.32-.12-.78-3.87a14.43,14.43,0,0,1-.56-7.29A11.76,11.76,0,0,0,4,40.59a51.21,51.21,0,0,1-1.24-5.35h0a7.41,7.41,0,0,0-1-.55A1.27,1.27,0,0,1,1,34.26a1.06,1.06,0,0,1-.12-.34,1.72,1.72,0,0,0-.19-.41,1.18,1.18,0,0,1-.11-.19,1.17,1.17,0,0,1,0-.27A20,20,0,0,1,.63,30.6h0A53.81,53.81,0,0,1,.55,24.5c.12-2.59.42-5.18.29-7.77a16.06,16.06,0,0,1,0-2.3,3.65,3.65,0,0,1,.84-2.11,2.84,2.84,0,0,1,1.62-.81,1.63,1.63,0,0,1,.19-.09A5.7,5.7,0,0,0,6.12,9.94l0-.06a4,4,0,0,1-.5-.07A2.87,2.87,0,0,1,3.88,8.65l.17,0a1.27,1.27,0,0,0,1-.71,5.15,5.15,0,0,0,.38-2s0-.06,0-.1a1.93,1.93,0,0,1-.16-.67.66.66,0,0,1,0-.37c-.06-.15-.12-.29-.17-.44a3,3,0,0,1,0-1.57,2.45,2.45,0,0,1,.65-1.28,1.42,1.42,0,0,1,.92-.35H6.9A1.38,1.38,0,0,1,8.17.5m5.88,30.24.09-.17a3.43,3.43,0,0,0,.3-.68c-.06-2.27-.74-4.49-.85-6.75,0-.69,0-1.37-.05-2.05a31.33,31.33,0,0,0-.67-4,.84.84,0,0,0,0,.17c-.2.61-.45,1.21-.63,1.83a6.57,6.57,0,0,0-.26,2.2c.1,1.64.93,3.12,1.42,4.69a11.07,11.07,0,0,1,.42,2v0a9,9,0,0,1,.28,2.73m-11.76,0A9.32,9.32,0,0,1,2.56,28v0A11.07,11.07,0,0,1,3,26c.49-1.57,1.32-3.05,1.42-4.69a6.57,6.57,0,0,0-.26-2.2c-.18-.62-.43-1.22-.63-1.83,0-.06,0-.12,0-.17a31.33,31.33,0,0,0-.67,4c0,.68,0,1.36-.06,2.05-.1,2.26-.79,4.48-.85,6.75a4.13,4.13,0,0,0,.3.68l.1.17m11.43,3.81a2.22,2.22,0,0,1,.35-.25,1.36,1.36,0,0,0,.54-1.1,5,5,0,0,0-.08-.56s0-.07,0-.09a.08.08,0,0,0-.07,0,.16.16,0,0,0-.09,0,.65.65,0,0,0-.23.47c0,.29-.1.57-.14.86a.72.72,0,0,1-.11.32.28.28,0,0,1-.1.09c0,.08,0,.17,0,.25m-11.1,0a2.17,2.17,0,0,1,0-.25.22.22,0,0,1-.1-.09.72.72,0,0,1-.11-.32L2.22,33A.61.61,0,0,0,2,32.56a.11.11,0,0,0-.08,0,.08.08,0,0,0-.07,0,.14.14,0,0,0,0,.09,5,5,0,0,0-.08.56,1.36,1.36,0,0,0,.54,1.1,2.22,2.22,0,0,1,.35.25M8.17,0h0A2,2,0,0,0,6.64.63a2,2,0,0,0-1.12.48,2.91,2.91,0,0,0-.8,1.54,3.5,3.5,0,0,0,0,1.83c0,.1.07.21.11.31a1.27,1.27,0,0,0,0,.38,2.42,2.42,0,0,0,.14.7c0,.19,0,.38,0,.57a2.83,2.83,0,0,1-.28,1.28.81.81,0,0,1-.56.45H4L2.78,7.88l.68,1a3.32,3.32,0,0,0,1.65,1.25,8.33,8.33,0,0,1-1.61.7L3.27,11,3.11,11a3.53,3.53,0,0,0-1.85,1,4.12,4.12,0,0,0-1,2.4,12.27,12.27,0,0,0,0,1.92l0,.46a46,46,0,0,1-.15,5.38c0,.78-.1,1.56-.14,2.34A54.34,54.34,0,0,0,.13,30.6,20.45,20.45,0,0,0,0,33.06a1.37,1.37,0,0,0,.08.44,1.33,1.33,0,0,0,.12.24,1.19,1.19,0,0,1,.16.32l0,.07a1.62,1.62,0,0,0,.15.39,1.53,1.53,0,0,0,.84.6l.08,0a5,5,0,0,1,.79.41,50.54,50.54,0,0,0,1.21,5.17,11.2,11.2,0,0,1,.28,3.55,15.06,15.06,0,0,0,.57,7.52,14.94,14.94,0,0,1,.8,3.52v0A2,2,0,0,0,5,56.43c0,.13.07.26.11.39s.06.18.08.26a2.76,2.76,0,0,1-.12,1.12l-.14.58-.06.27a1.5,1.5,0,0,1-.32.75l-.07.05a1.55,1.55,0,0,0-.24.22,1.35,1.35,0,0,0-.24,1,.85.85,0,0,0,.11.44.82.82,0,0,0,.35.31,2.49,2.49,0,0,0,.9.26c.23,0,.46,0,.69,0a6.1,6.1,0,0,0,1.59-.22,1.17,1.17,0,0,0,.44-.23l.09-.11a.41.41,0,0,0,.09.1.93.93,0,0,0,.42.23,5.91,5.91,0,0,0,1.61.23c.23,0,.46,0,.69,0a2.49,2.49,0,0,0,.9-.26.82.82,0,0,0,.35-.31.85.85,0,0,0,.11-.44,1.33,1.33,0,0,0-.24-1,1.09,1.09,0,0,0-.24-.21.18.18,0,0,0-.07,0,1.41,1.41,0,0,1-.32-.76l-.07-.3-.13-.55a2.76,2.76,0,0,1-.12-1.12,2.41,2.41,0,0,1,.08-.25,3.34,3.34,0,0,0,.1-.4,1.84,1.84,0,0,0-.13-1.09v0A14.27,14.27,0,0,1,12,51.8a15.18,15.18,0,0,0,.57-7.52,11.43,11.43,0,0,1,.28-3.57,50.23,50.23,0,0,0,1.21-5.15,5.35,5.35,0,0,1,.78-.41l.09,0a1.53,1.53,0,0,0,.84-.6,1.56,1.56,0,0,0,.15-.38l0-.08a1.51,1.51,0,0,1,.13-.29,1.43,1.43,0,0,0,.15-.27,1.1,1.1,0,0,0,.07-.44,18.75,18.75,0,0,0-.08-2.47h0a51.83,51.83,0,0,0,.07-6.11c0-.78-.08-1.56-.14-2.34A48.26,48.26,0,0,1,16,16.76l0-.46a11.17,11.17,0,0,0,0-1.92,4.06,4.06,0,0,0-1-2.4,3.49,3.49,0,0,0-1.85-1L13.07,11l-.24-.08a9,9,0,0,1-1.55-.67A3.29,3.29,0,0,0,13,8.92l.68-1-1.21.28h-.06a.83.83,0,0,1-.57-.45,3,3,0,0,1-.27-1.28c0-.2,0-.39,0-.59a1.38,1.38,0,0,0-.06-.26,3,3,0,0,0,.06-.42,1.18,1.18,0,0,0-.12-.65l0,0a4,4,0,0,1,.1-.65,3.91,3.91,0,0,0,.09-1.24,2.68,2.68,0,0,0-1-1.72A4.17,4.17,0,0,0,8.79.07,2.68,2.68,0,0,0,8.17,0Zm-5,24.05a8.89,8.89,0,0,0,.07-.89c0-.32,0-.63,0-.95s0-.73,0-1.09A18.92,18.92,0,0,1,3.59,19l.08.24a6.12,6.12,0,0,1,.24,2,9.36,9.36,0,0,1-.74,2.76Zm10,0a9.34,9.34,0,0,1-.73-2.76,6.12,6.12,0,0,1,.24-2c0-.08.05-.16.07-.24a16.85,16.85,0,0,1,.3,2.1c0,.36,0,.73,0,1.09s0,.63,0,.95,0,.6.07.89Zm-5,24v0c0-.43-.1-.86-.16-1.27a7.3,7.3,0,0,1-.09-2.58c0-.14.07-.29.11-.43s.1-.36.14-.54h0c0,.19.09.37.14.55s.08.29.11.43a7.54,7.54,0,0,1-.09,2.58c-.06.41-.13.84-.16,1.27v0Zm0,8.69c-.06-.2-.12-.39-.16-.58a2.68,2.68,0,0,1,0-.75c0-.39,0-.79.08-1.19.05-.66.09-1.32.13-2,0,.67.08,1.33.13,2,0,.4,0,.8.08,1.19a3.12,3.12,0,0,1-.05.75c0,.19-.1.38-.16.58Z"/></g></g></svg>